<svg width="1920" height="2092" viewBox="0 0 1920 2092" fill="none" xmlns="http://www.w3.org/2000/svg">
<path d="M-13.7006 1378.32C-17.9206 1419.12 -22.1306 1459.92 -26.3506 1500.72L208.339 1631.43C208.889 1624.36 209.439 1617.29 209.989 1610.23C287.669 1658.31 365.349 1706.4 443.039 1754.48L217.629 1539.15C216.709 1547.68 215.789 1556.2 214.869 1564.73C138.679 1502.59 62.4894 1440.46 -13.7006 1378.32Z" fill="#FBC90D"/>
<path d="M1436.58 1622.64C1504.26 1567.94 1571.94 1513.24 1639.63 1458.54C1641.58 1465.85 1643.54 1473.16 1645.49 1480.47C1739.57 1413.38 1833.65 1346.3 1927.73 1279.21C1929.43 1319.04 1931.13 1358.86 1932.83 1398.69C1835.1 1444.14 1737.36 1489.58 1639.63 1535.03L1636.7 1514.87L1436.59 1622.64H1436.58Z" fill="#FBC90D"/>
<path d="M1959.9 1108.17L1976.49 -63.6699L-42.5996 -34.6899L-51.8896 1213.49C-51.8896 1213.49 586.29 1741.37 775.27 1910.43H1040.52C1237.78 1741.37 1959.91 1108.17 1959.91 1108.17H1959.9Z" fill="#FBC90D"/>
<path d="M234.68 1896.18L104.82 1904.34L221.51 1971.47L220.58 1972.72L93.5299 1941.98L138.7 2009.72L57.9899 1948.93L-7.80012 2016L3.80988 1955.16L-109.74 1982.76L-19.4001 1917.21L-111.62 1889.92L-25.6701 1854.16L-84.6301 1766.03L-82.1601 1765.43L3.50989 1817.15L29.2399 1704.25L30.8099 1810.26L109.85 1719.93L77.2399 1796.46C94.8099 1781.4 111.22 1764.91 128.67 1749.72C129.21 1749.25 134.49 1744.59 133.69 1747.21L89.1599 1822.81L213.38 1787.99L92.9199 1861.07L234.71 1896.2L234.68 1896.18Z" fill="#F8EBBB"/>
<mask id="mask0_610_4601" style="mask-type:luminance" maskUnits="userSpaceOnUse" x="26" y="1704" width="209" height="306">
<path d="M26.0198 1718.32V1981.52L57.9898 1948.93L138.7 2009.72L93.5298 1941.98L220.58 1972.72L221.51 1971.47L104.82 1904.34L234.68 1896.18L92.8898 1861.05L213.35 1787.97L89.1298 1822.79L133.66 1747.19C134.47 1744.57 129.17 1749.24 128.64 1749.7C111.19 1764.9 94.7798 1781.38 77.2098 1796.44L109.83 1719.91L30.7898 1810.24L29.2198 1704.23L26.0098 1718.32H26.0198Z" fill="white"/>
</mask>
<g mask="url(#mask0_610_4601)">
<path d="M183.289 1913.07C182.719 1913.77 182.53 1916.89 182.109 1918.17C175.879 1937.27 158.739 1951.06 138.289 1951.18C139.789 1973.42 114.679 1990.04 94.3295 1988.86C91.5795 1988.7 84.4695 1986.44 83.0795 1986.59C82.2895 1986.67 76.5695 1990.54 74.7295 1991.34C53.5995 2000.55 23.5295 1996.96 2.96948 1987.56C0.789482 1986.57 -8.38052 1980.8 -9.07052 1980.73C-11.0105 1980.52 -18.4605 1982.85 -21.6305 1982.87C-38.8105 1982.94 -64.9305 1968.18 -71.2405 1951.77C-76.8605 1937.15 -70.2105 1922.43 -64.3305 1909.1C-86.1705 1898.12 -84.1505 1869.32 -78.1805 1849.36C-92.1305 1841.44 -107.821 1829.14 -98.7705 1811.28C-92.8205 1799.54 -74.7605 1785.95 -61.1405 1787.46C-51.8305 1788.49 -46.6505 1796.36 -48.8205 1805.33C-50.5505 1805.66 -49.7705 1804.83 -50.1705 1804.02C-54.6005 1794.93 -55.5105 1790.1 -67.5005 1791.74C-78.6305 1793.27 -96.0405 1808.51 -97.1805 1820.05C-98.2805 1831.19 -85.6905 1841.09 -76.6505 1845.41C-72.5405 1836.1 -64.7205 1824.36 -53.7505 1822.83C-33.4905 1820.01 -41.3305 1852.4 -59.2605 1853.78C-64.6405 1854.19 -68.8405 1852.63 -73.9005 1851.38C-79.3405 1869.83 -81.1405 1894.45 -62.2705 1905.75C-59.5305 1899.82 -46.3905 1886 -39.8405 1892.9C-33.3505 1899.74 -42.8305 1910.4 -50.4605 1911.6C-52.9505 1911.99 -57.7105 1911.03 -58.6305 1911.24C-61.3705 1911.87 -67.6305 1933.48 -67.9405 1937.15C-70.0205 1962.07 -36.4405 1981.59 -14.1405 1977.49C-25.8405 1967 -34.0205 1951.93 -22.5005 1937.76C-4.14052 1915.17 26.6495 1942.98 12.6395 1965.72C9.31948 1971.11 3.21948 1976.06 -2.79052 1978.1C-3.44052 1978.96 4.82948 1983.14 5.76949 1983.58C22.5995 1991.46 44.2795 1994.19 62.4795 1990.46C63.7895 1990.19 79.2895 1986.11 77.9195 1984.08C63.8995 1979.63 46.8995 1952.26 61.8195 1941.37C78.7095 1929.03 101.059 1958.74 92.1895 1974.72L86.8995 1983.47C107.199 1988.94 134.699 1974.35 133.559 1951.56C125.559 1949.71 114.329 1947.92 107.799 1942.53C104.479 1939.79 105.119 1937.05 109.339 1936.27C116.399 1934.97 129.039 1937.77 134.139 1943.1C134.929 1943.92 136.599 1946.91 136.939 1947.01C138.669 1947.5 146.329 1946.06 148.479 1945.51C162.279 1942.03 174.419 1929 177.77 1915.32C168.139 1918.12 153.119 1916.09 146.379 1908.15C139.209 1899.69 144.009 1887.19 153.449 1882.93C169.959 1875.48 183.059 1893.02 183.159 1908.15C207.319 1892.62 207.069 1851.03 183.949 1834.72C177.109 1839.02 167.549 1843.33 159.52 1840.02C151.029 1836.52 159.689 1829.78 164.899 1828.02C168.449 1826.82 172.529 1826.48 176.279 1826.85C182.159 1827.44 183.169 1831.61 187.599 1826.19C197.669 1813.87 195.27 1798.57 183.449 1788.6C167.699 1775.33 150.699 1781.61 135.339 1791.58C141.839 1800.23 144.529 1814.81 136.539 1823.38C128.769 1831.7 110.709 1826.74 111.419 1814.6C111.969 1805.2 122.039 1797.82 127.569 1791.29C122.339 1787 116.349 1783.69 109.979 1781.39C103.329 1801.04 84.5295 1813.49 63.5995 1809.5C63.8195 1828.92 77.2895 1846.43 94.0295 1854.89C101.189 1843.61 118.259 1833.66 131.559 1839.28C145.139 1845.03 146.419 1867.85 129.679 1869.29C118.249 1870.28 106.409 1866.2 96.2095 1861.48C95.6895 1863.15 93.9595 1865.03 93.4995 1866.6C92.9695 1868.41 96.4795 1866.93 97.3795 1866.89C116.329 1866.15 130.669 1881.03 128.759 1900.06C127.569 1911.9 116.469 1923.1 104.129 1919.92C87.3095 1915.59 81.5495 1890.16 84.5195 1875.26C75.6095 1879.57 67.7395 1885.58 60.2795 1892C60.6995 1896.4 63.0595 1900.84 63.5295 1905.52C64.4095 1914.28 62.5295 1926.07 55.7695 1932.28C48.5995 1938.87 37.4095 1934.29 36.1595 1925.12C34.3295 1911.78 44.8295 1900.93 53.3795 1892.21C53.7095 1890.31 43.9195 1879.72 41.5195 1879.08C40.5995 1878.84 35.1895 1886.14 33.7195 1887.52C22.9095 1897.65 -0.570511 1908.13 -14.9405 1901.48C-20.2505 1899.02 -22.5305 1895.45 -20.2105 1889.79C-15.7305 1878.86 5.89948 1871.83 16.7495 1870.55C24.7495 1869.61 31.8195 1870.55 39.6595 1872.23C44.7595 1858.89 43.6595 1844.06 32.7695 1834.03L25.0595 1842.39C18.7495 1847.9 8.94948 1852.03 0.559479 1852.56C-24.2705 1854.14 -31.9705 1834.96 -7.35052 1824.93C2.31948 1820.99 11.2395 1820.59 21.2895 1823.41C22.7295 1823.82 28.2295 1826.31 28.6095 1826.23C31.7195 1825.58 29.4595 1811.84 28.4495 1809.08C21.2895 1789.65 1.44949 1791.32 -15.4205 1795.33C-19.4705 1796.29 -23.1705 1798.05 -27.2605 1798.73C-28.2105 1797.88 -24.7105 1795.81 -24.2105 1795.51C-15.2305 1790.32 4.07948 1787.31 14.1095 1789.34C31.9995 1792.95 40.5095 1813.16 34.3895 1829.43C47.9595 1839.75 50.7995 1859.43 43.3495 1874.35C47.2895 1876.73 50.6395 1879.62 53.7495 1883C54.9195 1884.27 56.6695 1888.19 58.2095 1887.51C60.2595 1886.6 65.1395 1881.85 67.5995 1880.13C69.8495 1878.55 72.4295 1876.73 74.7795 1875.36C76.5595 1874.32 85.6995 1870.3 86.1695 1869.71C87.3795 1868.2 88.7695 1860.59 91.0995 1858.51C72.1495 1849.09 57.0695 1829.16 58.1195 1807.19C39.2695 1799.02 34.1095 1771.47 59.8795 1768.41C62.8095 1768.06 67.4395 1768.79 69.7495 1768.12C70.9895 1767.76 74.0595 1763.31 75.5495 1761.96C89.0795 1749.69 110.869 1748.34 111.449 1771.56C111.479 1772.89 110.339 1775.75 110.899 1776.54C111.179 1776.94 118.549 1779.55 119.989 1780.3C124.279 1782.54 128.289 1785.39 132.049 1788.41C147.269 1778.11 164.179 1771.49 181.559 1781.51C200.559 1792.46 204.039 1815.96 187.969 1831.31C212.599 1849.53 212.69 1892.68 187.799 1910.66C186.789 1911.39 183.56 1912.78 183.329 1913.06M160.419 1836.4C166.629 1838.95 175.489 1836.91 180.149 1832.23C176.369 1831.38 173.199 1830.61 169.249 1831.19C167.939 1831.38 159.019 1834.58 160.429 1836.41M178.279 1910.45C179.469 1897.87 166.829 1877.54 152.969 1888.43C145.869 1894.01 145.999 1903.07 153.539 1908.15C160.569 1912.89 170.46 1913.23 178.289 1910.45M136.349 1806.37C135.819 1802.47 133.509 1798.05 130.819 1795.17C125.259 1799.84 111.849 1811.77 117.699 1819.63C120.609 1823.53 127.739 1824.63 131.679 1821.72C135.919 1818.59 137.009 1811.26 136.339 1806.37M136.279 1855.93C136.269 1851.57 133.309 1846.46 129.369 1844.43C119.269 1839.23 104.699 1849.53 98.8495 1857.62C107.139 1862.03 136.339 1872.95 136.269 1855.93M113.789 1940.43C118.339 1944.06 124.909 1945.14 130.529 1946.4C126.979 1941.53 119.409 1940.74 113.789 1940.43ZM123.809 1891.84C121.689 1878.22 104.649 1866.68 91.3595 1872.86C87.8495 1884.24 89.2795 1897.74 95.9595 1907.73C108.849 1927 126.689 1910.4 123.799 1891.85M105.419 1774.23C107.099 1752.91 88.1695 1756.39 77.9295 1767.96L105.419 1774.23ZM73.7795 1773.08C70.8695 1778.77 68.4295 1784.66 66.7195 1790.85C66.0295 1793.37 63.5895 1802.46 64.2295 1804.34C64.6995 1805.73 71.2195 1805.99 72.8595 1805.95C87.6895 1805.57 102.079 1793.82 104.169 1779.07L73.7795 1773.08ZM89.1095 1964.2C88.2195 1954.97 76.1095 1938.05 65.7495 1944.1C55.4795 1950.09 64.2195 1967.05 70.4195 1973.32C72.0795 1975 80.2195 1981.5 82.2695 1980.99C83.1295 1980.77 85.6195 1977.41 86.1695 1976.48C88.3895 1972.78 89.5095 1968.5 89.0995 1964.2M67.1495 1773.05C60.1895 1772.68 49.1895 1774.37 47.6995 1782.58C46.3295 1790.12 52.0595 1798.13 57.8895 1802.32C58.8595 1801.75 58.6195 1801.06 58.7895 1800.24C60.7995 1790.79 62.1795 1781.62 67.1595 1773.04M55.7895 1896.78C48.7995 1902.46 35.0795 1920.52 43.8095 1928.79C49.0395 1933.74 53.1795 1928.53 55.5195 1923.7C59.5695 1915.35 58.8095 1905.32 55.7895 1896.78ZM36.6595 1876.46C22.5895 1872.32 0.59948 1876.08 -10.8505 1885.44C-24.1805 1896.33 -10.5805 1900.22 0.419479 1899.1C12.3595 1897.89 26.3095 1889.7 33.9795 1880.65C34.4795 1880.06 37.0795 1876.91 36.6595 1876.46ZM-15.7505 1843.98C-6.18052 1853.5 16.5195 1844.88 24.0895 1835.5C25.8695 1833.3 28.2695 1831.06 25.4395 1829.39C18.1995 1825.11 5.83948 1825.03 -2.07052 1827.28C-7.74052 1828.89 -22.8305 1836.94 -15.7505 1843.98ZM10.7895 1951.65C9.15948 1937.9 -7.60052 1927.37 -17.9805 1940.48C-27.0705 1951.95 -20.3005 1966.38 -9.66051 1973.9C-6.47051 1976.15 -2.84052 1973.72 0.149483 1971.76C7.03948 1967.25 11.7995 1960.15 10.7895 1951.66M-56.6005 1907.54C-52.4305 1907.89 -48.6905 1907.56 -45.5505 1904.55C-40.9905 1900.18 -41.8505 1892.65 -49.1305 1897.98C-50.3005 1898.84 -57.6405 1906.59 -56.6005 1907.54ZM-72.1005 1847.71C-67.0405 1849.66 -61.3105 1851.38 -56.0105 1849.25C-47.2605 1845.74 -40.1605 1825.26 -53.2605 1826.89C-61.9305 1827.97 -70.2205 1839.84 -72.1005 1847.71Z" fill="#FBF3DD"/>
</g>
<path d="M308.42 1947.68C307.23 1948.95 293.73 1953.68 293 1953.09C292.33 1942.41 294.52 1939.34 296.85 1927.44C297.46 1925.45 300.16 1925.67 301.54 1923.93C304.8 1919.82 303.36 1910.7 299.33 1907.46C297.4 1905.9 290.66 1904.2 288.36 1904.63C287.02 1904.89 281.43 1910.5 281.12 1911.6C280.37 1914.27 280.06 1918.78 280.98 1921.4C281.43 1922.67 285.16 1923.36 285.58 1926.1C286.88 1934.63 281.8 1943.78 281.09 1952.33L267.32 1938.1C266.36 1936.35 268.16 1935 268.42 1933.23C269.06 1928.9 267.88 1923.78 263.96 1921.34C262.01 1920.13 255.15 1919.22 252.81 1919.74C247.42 1920.93 244.05 1929.73 247.3 1934.36C255.95 1942.93 265.92 1950.74 273.3 1960.55C273.86 1961.3 274.75 1961.48 274.41 1962.79C267.95 1961.68 259.89 1966.32 253.98 1966.39C251.09 1966.43 246.79 1964.14 243.93 1964.64C237.26 1965.81 231.06 1975.35 236.49 1981.12C239.38 1984.19 250.15 1983.63 253.25 1980.76C254.87 1979.27 254.52 1977.53 255.31 1976.47C256.9 1974.35 271.63 1971.86 275.15 1971.02C275.85 1971.66 269.32 1988.13 268.8 1988.92C266.17 1992.91 260.97 1991.64 261.82 1998.97C263 2009.1 282.45 2009.12 282.62 1998.32C282.66 1995.72 280.83 1994.41 280.51 1992.86C280.09 1990.84 281.95 1985.71 282.78 1983.55C283.13 1982.64 284.01 1978.68 285.18 1979.25C286.12 1979.71 296.33 1995.99 296.58 1997.01C297.3 1999.94 293.53 2001.46 296.69 2005.82C296.84 2006.02 299.97 2009.09 300.21 2009.14C301.31 2009.38 308.6 2009.42 309.56 2009.16C309.79 2009.1 312.77 2005.92 312.92 2005.65C316.09 2000.19 310.82 1997.71 308.29 1994.14C305.83 1990.67 303.4 1986.99 301.15 1983.37C300.49 1982.32 295.56 1974.4 295.96 1974.01L314.86 1980.04C316.67 1982.85 317.64 1988.55 321.56 1989.02C324.46 1989.36 324.95 1988.31 326.96 1987.73C327.56 1987.56 328.55 1988.25 328.62 1988.19C328.91 1987.98 328.97 1985.29 329.6 1984.67C330.31 1983.96 332.23 1984.4 333.43 1982.17C338.23 1973.34 329.2 1968.58 321.57 1969.5C319.32 1969.77 318.36 1971.08 315.86 1970.88C313.74 1970.71 294.48 1964.33 294.47 1963.17C300.2 1960.51 306.34 1958.55 312.29 1956.44C316.26 1955.03 317.92 1955.2 321.25 1954.24C325.38 1953.04 330.61 1947.78 330.19 1942.99C329.58 1935.87 316.63 1932.75 312.68 1937.41C310.57 1939.91 309.71 1946.26 308.39 1947.67H308.4L308.42 1947.68Z" fill="#F8EBBB"/>
<path d="M228.64 2083.25C226.84 2085.39 224.55 2088.55 219.86 2088.25C218.83 2088.19 217.81 2088.55 216.81 2088.81C210.72 2090.38 204.43 2091.1 198.09 2091.52C196.22 2091.64 194.29 2091.54 192.39 2091.42C190.66 2091.31 189.07 2090.85 187.59 2089.56C184.13 2086.54 180.87 2083.39 178.51 2079.38C175.42 2074.13 172.68 2068.78 171.14 2062.94C169.84 2057.98 170.14 2053.27 172.55 2049.08C176.94 2041.45 182.72 2035.26 191.27 2032.17C192.39 2031.76 193.49 2031.15 194.38 2030.39C195.58 2029.37 197.07 2029.02 198.51 2028.94C205.42 2028.53 212.34 2028.35 219.34 2029.98C222.25 2030.66 224.67 2031.81 226.3 2034.48C228.58 2038.22 231.57 2041.56 233.18 2045.65C233.85 2047.33 235.44 2048.31 236.03 2050.1C237.55 2054.77 237.4 2059.28 236.3 2063.72C235.71 2066.1 234.83 2068.37 233.99 2070.66C232.53 2074.61 231.18 2078.61 228.65 2083.26M223.19 2078.91C225.93 2071.92 227.93 2065.88 229.19 2059.55C229.63 2057.34 229.34 2055.03 228.31 2053C227.06 2050.54 225.85 2047.98 224.05 2045.82C223.19 2044.8 222.52 2043.77 222.01 2042.56C221.16 2040.5 219.41 2039.19 217.48 2038.59C216.38 2038.25 215.25 2037.95 214.23 2037.44C212.4 2036.53 210.54 2036.21 208.61 2036.31C207.09 2036.39 205.56 2036.58 204.04 2036.45C199.11 2036.03 195.07 2037.45 191.44 2040.55C188.52 2043.05 185.44 2045.37 182.68 2048.08C180.76 2049.96 178.59 2051.63 178.35 2054.62C178.13 2057.39 179.1 2060.13 179.99 2062.74C180.6 2064.55 181.73 2066.28 182.55 2068.09C184.06 2071.42 186.66 2074.16 188.22 2077.47C188.77 2078.63 189.59 2079.66 190.22 2080.79C191.42 2083 193.22 2083.88 195.55 2083.73C196.68 2083.66 197.82 2083.49 198.95 2083.53C205.42 2083.8 211.67 2082.85 217.85 2081.63C220.18 2081.17 222.73 2080.59 223.2 2078.9L223.19 2078.91Z" fill="#F8EBBB"/>
<path d="M1649.36 1780.35L1779.22 1788.51L1662.53 1855.64L1663.46 1856.89L1790.51 1826.15L1745.34 1893.89L1826.05 1833.1L1891.84 1900.17L1880.23 1839.33L1993.78 1866.93L1903.44 1801.38L1995.66 1774.09L1909.71 1738.33L1968.67 1650.2L1966.2 1649.6L1880.53 1701.32L1854.8 1588.42L1853.23 1694.43L1774.19 1604.1L1806.8 1680.63C1789.23 1665.57 1772.82 1649.09 1755.37 1633.89C1754.83 1633.42 1749.55 1628.76 1750.35 1631.38L1794.88 1706.98L1670.66 1672.16L1791.12 1745.24L1649.33 1780.37L1649.36 1780.35Z" fill="#F8EBBB"/>
<mask id="mask1_610_4601" style="mask-type:luminance" maskUnits="userSpaceOnUse" x="1649" y="1588" width="207" height="306">
<path d="M1853.26 1694.41L1774.22 1604.08L1806.84 1680.61C1789.27 1665.55 1772.86 1649.07 1755.41 1633.87C1754.88 1633.4 1749.59 1628.74 1750.39 1631.36L1794.92 1706.96L1670.7 1672.14L1791.16 1745.22L1649.37 1780.35L1779.23 1788.51L1662.54 1855.64L1663.47 1856.89L1790.52 1826.15L1745.35 1893.89L1826.06 1833.1L1855.12 1862.72V1589.71L1854.82 1588.4L1853.25 1694.41H1853.26Z" fill="white"/>
</mask>
<g mask="url(#mask1_610_4601)">
<path d="M1700.76 1797.24C1701.33 1797.94 1701.52 1801.06 1701.94 1802.34C1708.17 1821.44 1725.31 1835.23 1745.76 1835.35C1744.26 1857.59 1769.37 1874.21 1789.72 1873.03C1792.47 1872.87 1799.58 1870.61 1800.97 1870.76C1801.76 1870.84 1807.48 1874.71 1809.32 1875.51C1830.45 1884.72 1860.52 1881.13 1881.08 1871.73C1883.26 1870.74 1892.43 1864.97 1893.12 1864.9C1895.06 1864.69 1902.51 1867.02 1905.68 1867.04C1922.86 1867.11 1948.98 1852.35 1955.29 1835.94C1960.91 1821.32 1954.26 1806.6 1948.38 1793.27C1970.22 1782.29 1968.2 1753.49 1962.23 1733.53C1976.18 1725.61 1991.87 1713.31 1982.82 1695.45C1976.87 1683.71 1958.81 1670.12 1945.19 1671.63C1935.88 1672.66 1930.7 1680.53 1932.87 1689.5C1934.6 1689.83 1933.82 1689 1934.22 1688.19C1938.65 1679.1 1939.56 1674.27 1951.55 1675.91C1962.68 1677.44 1980.09 1692.68 1981.23 1704.22C1982.33 1715.36 1969.74 1725.26 1960.7 1729.58C1956.59 1720.27 1948.77 1708.53 1937.8 1707C1917.54 1704.18 1925.38 1736.57 1943.31 1737.95C1948.69 1738.36 1952.89 1736.8 1957.95 1735.55C1963.39 1754 1965.19 1778.62 1946.32 1789.92C1943.58 1783.99 1930.44 1770.17 1923.89 1777.07C1917.4 1783.91 1926.88 1794.57 1934.51 1795.77C1937 1796.16 1941.76 1795.2 1942.68 1795.41C1945.42 1796.04 1951.68 1817.65 1951.99 1821.32C1954.07 1846.24 1920.49 1865.76 1898.19 1861.66C1909.89 1851.17 1918.07 1836.1 1906.55 1821.93C1888.19 1799.34 1857.4 1827.15 1871.41 1849.89C1874.73 1855.28 1880.83 1860.23 1886.84 1862.27C1887.49 1863.13 1879.22 1867.31 1878.28 1867.75C1861.45 1875.63 1839.77 1878.36 1821.57 1874.63C1820.26 1874.36 1804.77 1870.28 1806.14 1868.25C1820.16 1863.8 1837.16 1836.43 1822.24 1825.54C1805.35 1813.2 1783 1842.91 1791.87 1858.89L1797.16 1867.64C1776.86 1873.11 1749.36 1858.52 1750.5 1835.73C1758.5 1833.88 1769.73 1832.09 1776.26 1826.7C1779.58 1823.96 1778.94 1821.22 1774.72 1820.44C1767.66 1819.14 1755.02 1821.94 1749.92 1827.27C1749.13 1828.09 1747.46 1831.08 1747.12 1831.18C1745.39 1831.67 1737.73 1830.23 1735.58 1829.68C1721.78 1826.2 1709.64 1813.17 1706.29 1799.49C1715.92 1802.29 1730.94 1800.26 1737.68 1792.32C1744.85 1783.86 1740.05 1771.36 1730.61 1767.1C1714.1 1759.65 1701 1777.19 1700.9 1792.32C1676.74 1776.79 1676.99 1735.2 1700.11 1718.89C1706.95 1723.19 1716.51 1727.5 1724.54 1724.19C1733.03 1720.69 1724.37 1713.95 1719.16 1712.19C1715.61 1710.99 1711.53 1710.65 1707.78 1711.02C1701.9 1711.61 1700.89 1715.78 1696.46 1710.36C1686.39 1698.04 1688.79 1682.74 1700.61 1672.77C1716.36 1659.5 1733.36 1665.78 1748.72 1675.75C1742.22 1684.4 1739.53 1698.98 1747.52 1707.55C1755.29 1715.87 1773.35 1710.91 1772.64 1698.77C1772.09 1689.37 1762.02 1681.99 1756.49 1675.46C1761.72 1671.17 1767.71 1667.86 1774.08 1665.56C1780.73 1685.21 1799.53 1697.66 1820.46 1693.67C1820.24 1713.09 1806.77 1730.6 1790.03 1739.06C1782.87 1727.78 1765.8 1717.83 1752.5 1723.45C1738.92 1729.2 1737.64 1752.02 1754.38 1753.46C1765.81 1754.45 1777.65 1750.37 1787.85 1745.65C1788.37 1747.32 1790.1 1749.2 1790.56 1750.77C1791.09 1752.58 1787.58 1751.1 1786.68 1751.06C1767.73 1750.32 1753.39 1765.2 1755.3 1784.23C1756.49 1796.07 1767.59 1807.27 1779.93 1804.09C1796.75 1799.76 1802.51 1774.33 1799.54 1759.43C1808.45 1763.74 1816.32 1769.75 1823.78 1776.17C1823.36 1780.57 1821 1785.01 1820.53 1789.69C1819.65 1798.45 1821.53 1810.24 1828.29 1816.45C1835.46 1823.04 1846.65 1818.46 1847.9 1809.29C1849.73 1795.95 1839.23 1785.1 1830.68 1776.38C1830.35 1774.48 1840.14 1763.89 1842.54 1763.25C1843.46 1763.01 1848.87 1770.31 1850.34 1771.69C1861.15 1781.82 1884.63 1792.3 1899 1785.65C1904.31 1783.19 1906.59 1779.62 1904.27 1773.96C1899.79 1763.03 1878.16 1756 1867.31 1754.72C1859.31 1753.78 1852.24 1754.72 1844.4 1756.4C1839.3 1743.06 1840.4 1728.23 1851.29 1718.2L1859 1726.56C1865.31 1732.07 1875.11 1736.2 1883.5 1736.73C1908.33 1738.31 1916.03 1719.13 1891.41 1709.1C1881.74 1705.16 1872.82 1704.76 1862.77 1707.58C1861.33 1707.99 1855.83 1710.48 1855.45 1710.4C1852.34 1709.75 1854.6 1696.01 1855.62 1693.25C1862.78 1673.82 1882.62 1675.49 1899.49 1679.5C1903.54 1680.46 1907.24 1682.22 1911.33 1682.9C1912.28 1682.05 1908.78 1679.98 1908.28 1679.68C1899.3 1674.49 1879.99 1671.48 1869.96 1673.51C1852.07 1677.12 1843.56 1697.33 1849.68 1713.6C1836.11 1723.92 1833.27 1743.6 1840.72 1758.52C1836.78 1760.9 1833.43 1763.79 1830.32 1767.17C1829.15 1768.44 1827.4 1772.36 1825.86 1771.68C1823.81 1770.77 1818.93 1766.02 1816.47 1764.3C1814.22 1762.72 1811.64 1760.9 1809.29 1759.53C1807.51 1758.49 1798.37 1754.47 1797.9 1753.88C1796.69 1752.37 1795.3 1744.76 1792.97 1742.68C1811.92 1733.26 1827 1713.33 1825.95 1691.36C1844.8 1683.19 1849.96 1655.64 1824.19 1652.58C1821.26 1652.23 1816.63 1652.96 1814.32 1652.29C1813.08 1651.93 1810.01 1647.48 1808.52 1646.13C1794.99 1633.86 1773.2 1632.51 1772.62 1655.73C1772.59 1657.06 1773.73 1659.92 1773.17 1660.71C1772.89 1661.11 1765.52 1663.72 1764.08 1664.47C1759.79 1666.71 1755.79 1669.56 1752.02 1672.58C1736.8 1662.28 1719.89 1655.66 1702.51 1665.68C1683.51 1676.63 1680.03 1700.13 1696.1 1715.48C1671.47 1733.7 1671.38 1776.85 1696.27 1794.83C1697.28 1795.56 1700.51 1796.95 1700.74 1797.23M1723.63 1720.57C1717.42 1723.12 1708.56 1721.08 1703.9 1716.4C1707.68 1715.55 1710.85 1714.78 1714.8 1715.36C1716.11 1715.55 1725.03 1718.75 1723.62 1720.58M1705.77 1794.62C1704.58 1782.04 1717.22 1761.71 1731.08 1772.6C1738.18 1778.18 1738.05 1787.24 1730.51 1792.32C1723.48 1797.06 1713.59 1797.4 1705.76 1794.62M1747.7 1690.54C1748.23 1686.64 1750.54 1682.22 1753.23 1679.34C1758.79 1684.01 1772.2 1695.94 1766.35 1703.8C1763.44 1707.7 1756.31 1708.8 1752.37 1705.89C1748.13 1702.76 1747.04 1695.43 1747.71 1690.54M1747.77 1740.1C1747.78 1735.74 1750.74 1730.63 1754.68 1728.6C1764.78 1723.4 1779.35 1733.7 1785.2 1741.79C1776.91 1746.2 1747.71 1757.12 1747.78 1740.1M1770.26 1824.6C1765.71 1828.23 1759.14 1829.31 1753.52 1830.57C1757.07 1825.7 1764.64 1824.91 1770.26 1824.6ZM1760.24 1776.01C1762.36 1762.39 1779.4 1750.85 1792.69 1757.03C1796.2 1768.41 1794.77 1781.91 1788.09 1791.9C1775.2 1811.17 1757.36 1794.57 1760.25 1776.02M1778.63 1658.4C1776.95 1637.08 1795.88 1640.56 1806.12 1652.13L1778.63 1658.4ZM1810.26 1657.25C1813.17 1662.94 1815.61 1668.83 1817.32 1675.02C1818.01 1677.54 1820.45 1686.63 1819.81 1688.51C1819.34 1689.9 1812.82 1690.16 1811.18 1690.12C1796.35 1689.74 1781.96 1677.99 1779.87 1663.24L1810.26 1657.25ZM1794.94 1848.37C1795.83 1839.14 1807.95 1822.22 1818.3 1828.27C1828.57 1834.26 1819.83 1851.22 1813.63 1857.49C1811.97 1859.17 1803.83 1865.67 1801.78 1865.16C1800.92 1864.94 1798.43 1861.58 1797.88 1860.65C1795.66 1856.95 1794.54 1852.67 1794.95 1848.37M1816.89 1657.22C1823.85 1656.85 1834.85 1658.54 1836.34 1666.75C1837.71 1674.29 1831.98 1682.3 1826.15 1686.49C1825.18 1685.92 1825.42 1685.23 1825.25 1684.41C1823.24 1674.96 1821.86 1665.79 1816.88 1657.21M1828.26 1780.95C1835.25 1786.63 1848.97 1804.69 1840.24 1812.96C1835.01 1817.91 1830.87 1812.7 1828.53 1807.87C1824.48 1799.52 1825.24 1789.49 1828.26 1780.95ZM1847.39 1760.63C1861.46 1756.49 1883.45 1760.25 1894.9 1769.61C1908.23 1780.5 1894.63 1784.39 1883.63 1783.27C1871.69 1782.06 1857.74 1773.87 1850.07 1764.82C1849.57 1764.23 1846.97 1761.08 1847.39 1760.63ZM1899.79 1728.14C1890.22 1737.66 1867.52 1729.04 1859.95 1719.66C1858.17 1717.46 1855.77 1715.22 1858.6 1713.55C1865.84 1709.27 1878.2 1709.19 1886.11 1711.44C1891.78 1713.05 1906.87 1721.1 1899.79 1728.14ZM1873.26 1835.82C1874.89 1822.07 1891.65 1811.54 1902.03 1824.65C1911.12 1836.12 1904.35 1850.55 1893.71 1858.07C1890.52 1860.32 1886.89 1857.89 1883.9 1855.93C1877.01 1851.42 1872.25 1844.32 1873.26 1835.83M1940.65 1791.71C1936.48 1792.06 1932.74 1791.73 1929.6 1788.72C1925.04 1784.35 1925.9 1776.82 1933.18 1782.15C1934.35 1783.01 1941.69 1790.76 1940.65 1791.71ZM1956.15 1731.88C1951.09 1733.83 1945.36 1735.55 1940.06 1733.42C1931.31 1729.91 1924.21 1709.43 1937.31 1711.06C1945.98 1712.14 1954.27 1724.01 1956.15 1731.88Z" fill="#FBF3DD"/>
</g>
<path d="M1625.18 1930.49C1626.37 1931.76 1639.87 1936.49 1640.6 1935.9C1641.27 1925.22 1639.08 1922.15 1636.75 1910.25C1636.14 1908.26 1633.44 1908.48 1632.06 1906.74C1628.8 1902.63 1630.24 1893.51 1634.27 1890.27C1636.2 1888.71 1642.94 1887.01 1645.24 1887.44C1646.58 1887.7 1652.17 1893.31 1652.48 1894.41C1653.23 1897.08 1653.54 1901.59 1652.62 1904.21C1652.17 1905.48 1648.44 1906.17 1648.02 1908.91C1646.72 1917.44 1651.8 1926.59 1652.51 1935.14L1666.28 1920.91C1667.24 1919.16 1665.44 1917.81 1665.18 1916.04C1664.54 1911.71 1665.72 1906.59 1669.64 1904.15C1671.59 1902.94 1678.45 1902.03 1680.79 1902.55C1686.18 1903.74 1689.55 1912.54 1686.3 1917.17C1677.65 1925.74 1667.68 1933.55 1660.3 1943.36C1659.74 1944.11 1658.85 1944.29 1659.19 1945.6C1665.65 1944.49 1673.71 1949.13 1679.62 1949.2C1682.51 1949.24 1686.81 1946.95 1689.67 1947.45C1696.34 1948.62 1702.54 1958.16 1697.11 1963.93C1694.22 1967 1683.45 1966.44 1680.35 1963.57C1678.73 1962.08 1679.08 1960.34 1678.29 1959.28C1676.7 1957.16 1661.97 1954.67 1658.45 1953.83C1657.75 1954.47 1664.28 1970.94 1664.8 1971.73C1667.43 1975.72 1672.63 1974.45 1671.78 1981.78C1670.6 1991.91 1651.15 1991.93 1650.98 1981.13C1650.94 1978.53 1652.77 1977.22 1653.09 1975.67C1653.51 1973.65 1651.65 1968.52 1650.82 1966.36C1650.47 1965.45 1649.59 1961.49 1648.42 1962.06C1647.48 1962.52 1637.27 1978.8 1637.02 1979.82C1636.3 1982.75 1640.07 1984.27 1636.91 1988.63C1636.76 1988.83 1633.63 1991.9 1633.39 1991.95C1632.29 1992.19 1625 1992.23 1624.04 1991.97C1623.81 1991.91 1620.83 1988.73 1620.68 1988.46C1617.51 1983 1622.78 1980.52 1625.31 1976.95C1627.77 1973.48 1630.2 1969.8 1632.45 1966.18C1633.11 1965.13 1638.04 1957.21 1637.64 1956.82L1618.74 1962.85C1616.93 1965.66 1615.96 1971.36 1612.04 1971.83C1609.14 1972.17 1608.65 1971.12 1606.64 1970.54C1606.04 1970.37 1605.05 1971.06 1604.98 1971C1604.69 1970.79 1604.63 1968.1 1604 1967.48C1603.29 1966.77 1601.37 1967.21 1600.17 1964.98C1595.37 1956.15 1604.4 1951.39 1612.03 1952.31C1614.28 1952.58 1615.24 1953.89 1617.74 1953.69C1619.86 1953.52 1639.12 1947.14 1639.13 1945.98C1633.4 1943.32 1627.26 1941.36 1621.31 1939.25C1617.34 1937.84 1615.68 1938.01 1612.35 1937.05C1608.22 1935.85 1602.99 1930.59 1603.41 1925.8C1604.02 1918.68 1616.97 1915.56 1620.92 1920.22C1623.03 1922.72 1623.89 1929.07 1625.21 1930.48H1625.2L1625.18 1930.49Z" fill="#F8EBBB"/>
<path d="M1567.46 1853.68C1569.26 1855.82 1571.55 1858.98 1576.24 1858.68C1577.27 1858.62 1578.29 1858.98 1579.29 1859.24C1585.38 1860.81 1591.67 1861.53 1598.01 1861.95C1599.88 1862.07 1601.81 1861.97 1603.71 1861.85C1605.44 1861.74 1607.03 1861.28 1608.51 1859.99C1611.97 1856.97 1615.23 1853.82 1617.59 1849.81C1620.68 1844.56 1623.42 1839.21 1624.96 1833.37C1626.26 1828.41 1625.96 1823.7 1623.55 1819.51C1619.16 1811.88 1613.38 1805.69 1604.83 1802.6C1603.71 1802.19 1602.61 1801.58 1601.72 1800.82C1600.52 1799.8 1599.03 1799.45 1597.59 1799.37C1590.68 1798.96 1583.76 1798.78 1576.76 1800.41C1573.85 1801.09 1571.43 1802.24 1569.8 1804.91C1567.52 1808.65 1564.53 1811.99 1562.92 1816.08C1562.25 1817.76 1560.66 1818.74 1560.07 1820.53C1558.55 1825.2 1558.7 1829.71 1559.8 1834.15C1560.39 1836.53 1561.27 1838.8 1562.11 1841.09C1563.57 1845.04 1564.92 1849.04 1567.45 1853.69M1572.92 1849.34C1570.18 1842.35 1568.18 1836.31 1566.92 1829.98C1566.48 1827.77 1566.77 1825.46 1567.8 1823.43C1569.05 1820.97 1570.26 1818.41 1572.06 1816.25C1572.92 1815.23 1573.59 1814.2 1574.1 1812.99C1574.95 1810.93 1576.7 1809.62 1578.63 1809.02C1579.73 1808.68 1580.86 1808.38 1581.88 1807.87C1583.71 1806.96 1585.57 1806.64 1587.5 1806.74C1589.02 1806.82 1590.55 1807.01 1592.07 1806.88C1597 1806.46 1601.04 1807.88 1604.67 1810.98C1607.59 1813.48 1610.67 1815.8 1613.43 1818.51C1615.35 1820.39 1617.52 1822.06 1617.76 1825.05C1617.98 1827.82 1617.01 1830.56 1616.12 1833.17C1615.51 1834.98 1614.38 1836.71 1613.56 1838.52C1612.05 1841.85 1609.45 1844.59 1607.89 1847.9C1607.34 1849.06 1606.52 1850.09 1605.89 1851.22C1604.69 1853.43 1602.89 1854.31 1600.56 1854.16C1599.43 1854.09 1598.29 1853.92 1597.16 1853.96C1590.69 1854.23 1584.44 1853.28 1578.26 1852.06C1575.93 1851.6 1573.38 1851.02 1572.91 1849.33L1572.92 1849.34Z" fill="#F8EBBB"/>
<path d="M1927.72 1194.91C1839.62 1268.61 1751.53 1342.32 1663.43 1416.02C1751.53 1359.42 1839.62 1302.82 1927.72 1246.22V1194.91Z" fill="#F8EBBB"/>
<path d="M-3.44043 1317.33V1336.27C148.36 1462.41 225.04 1524.58 226.58 1522.77C228.15 1520.92 151.48 1452.44 -3.44043 1317.33Z" fill="#F8EBBB"/>
<path d="M1910.58 1456.32C1879.53 1467.52 1848.49 1478.73 1817.44 1489.94C1818.7 1496.3 1819.97 1502.65 1821.23 1509.01C1806.59 1516.98 1791.95 1524.96 1777.31 1532.94C1797.94 1529.63 1818.56 1526.32 1839.19 1523.01C1837.71 1517.25 1836.23 1511.48 1834.75 1505.72C1860.03 1489.25 1885.3 1472.79 1910.58 1456.32Z" fill="#F8EBBB"/>
<path d="M299.15 1693.63L213.32 1647.89C214.11 1651.72 214.9 1655.54 215.69 1659.37C202.47 1653.41 189.25 1647.45 176.04 1641.49C192.29 1654.94 208.54 1668.39 224.8 1681.85C224.89 1676.91 224.98 1671.96 225.07 1667.02C249.76 1675.9 274.45 1684.77 299.15 1693.65" fill="#F8EBBB"/>
</svg>
