<?xml version="1.0" encoding="UTF-8"?>
<svg id="Capa_2" data-name="Capa 2" xmlns="http://www.w3.org/2000/svg" viewBox="0 0 496.66 375.89">
  <defs>
    <style>
      .cls-1 {
        fill: #9cf;
      }

      .cls-2, .cls-3 {
        fill: #fff;
      }

      .cls-3 {
        stroke: #9cf;
        stroke-width: 3.47px;
      }

      .cls-3, .cls-4 {
        stroke-miterlimit: 10;
      }

      .cls-5 {
        fill: #40566b;
      }

      .cls-4 {
        fill: none;
        stroke: #4b4a63;
        stroke-dasharray: 4.57;
        stroke-width: .65px;
      }

      .cls-6 {
        fill: #87c3f4;
        font-family: InterTight-Regular, 'Inter Tight';
        font-size: 22px;
      }
    </style>
  </defs>
  <g id="Capa_1-2" data-name="Capa 1">
    <circle class="cls-1" cx="205.12" cy="185.79" r="79.35"/>
    <g>
      <path class="cls-2" d="M175.23,162.08v-12.37h8.33v2.16h-5.73v2.91h5.3v2.12h-5.3v3.03h5.74v2.16h-8.35Z"/>
      <path class="cls-2" d="M185.38,152.8h2.56v9.75c0,.71-.14,1.29-.42,1.73-.28.44-.69.76-1.21.97-.53.21-1.15.31-1.88.31h-.52v-2.01h.33c.42,0,.71-.09.88-.26.17-.17.25-.43.26-.78v-9.7ZM186.65,151.62c-.38,0-.71-.13-.98-.38-.27-.25-.41-.56-.41-.92s.14-.67.41-.92c.27-.25.6-.38.98-.38s.72.13.99.38c.27.25.41.56.41.92s-.14.67-.41.92c-.27.25-.6.38-.99.38Z"/>
      <path class="cls-2" d="M194.02,162.27c-.95,0-1.77-.19-2.47-.58-.69-.39-1.22-.94-1.59-1.66-.37-.72-.55-1.56-.55-2.54s.18-1.79.55-2.51c.37-.72.89-1.28,1.56-1.69.67-.4,1.46-.61,2.37-.61.61,0,1.19.1,1.72.29.53.2,1,.49,1.39.88.4.39.71.88.93,1.47.22.59.33,1.28.33,2.07v.7h-7.84v-1.59h6.59l-1.2.42c0-.47-.07-.88-.22-1.23s-.36-.62-.64-.81c-.28-.19-.64-.29-1.06-.29s-.78.1-1.07.29c-.29.19-.51.46-.67.79s-.23.71-.23,1.15v1.12c0,.5.09.93.27,1.29.18.36.42.63.74.82.32.19.68.29,1.1.29.29,0,.55-.04.78-.12s.43-.21.6-.37c.17-.16.29-.35.38-.58l2.37.16c-.12.57-.36,1.07-.73,1.49-.37.42-.84.75-1.42.99-.58.23-1.25.35-2.02.35Z"/>
      <path class="cls-2" d="M207.41,155.45l-2.35.14c-.06-.29-.22-.55-.49-.76s-.62-.32-1.07-.32c-.4,0-.73.08-1,.25-.27.17-.4.39-.4.66,0,.22.09.41.26.57.17.16.47.28.9.37l1.69.33c.9.18,1.57.48,2.02.89.44.41.66.95.66,1.62,0,.61-.18,1.15-.53,1.61-.35.46-.84.81-1.46,1.07-.62.26-1.33.39-2.13.39-1.23,0-2.21-.26-2.93-.77-.73-.51-1.15-1.21-1.27-2.09l2.52-.13c.08.38.27.66.56.86.29.19.67.29,1.13.29s.81-.09,1.09-.27c.28-.18.42-.4.42-.67,0-.46-.4-.77-1.2-.93l-1.6-.33c-.9-.18-1.57-.5-2.02-.94-.44-.44-.66-1.01-.66-1.7,0-.6.16-1.11.49-1.54s.78-.76,1.37-1c.59-.23,1.28-.35,2.07-.35,1.17,0,2.1.25,2.77.74.67.5,1.06,1.17,1.17,2.02Z"/>
      <path class="cls-2" d="M216.15,162.23c-.71,0-1.35-.18-1.92-.55s-1.02-.9-1.35-1.61c-.33-.71-.5-1.58-.5-2.61s.17-1.95.51-2.66c.34-.71.8-1.24,1.37-1.59.57-.35,1.19-.53,1.87-.53.52,0,.95.09,1.3.26.35.17.63.39.85.65.22.26.38.52.49.77h.07v-4.66h2.57v12.37h-2.53v-1.49h-.12c-.12.25-.29.51-.51.76s-.5.46-.85.63c-.35.17-.77.25-1.27.25ZM216.95,160.19c.42,0,.77-.12,1.06-.34.29-.23.51-.55.66-.96.15-.41.23-.89.23-1.44s-.07-1.03-.22-1.44c-.15-.41-.37-.72-.66-.95-.29-.22-.65-.34-1.06-.34s-.77.12-1.06.35-.51.55-.66.96c-.15.41-.22.88-.22,1.42s.07,1.01.22,1.42c.15.41.37.73.66.97.29.23.64.35,1.06.35Z"/>
      <path class="cls-2" d="M227.49,162.27c-.95,0-1.77-.19-2.47-.58-.69-.39-1.22-.94-1.59-1.66-.37-.72-.55-1.56-.55-2.54s.18-1.79.55-2.51c.37-.72.89-1.28,1.56-1.69.67-.4,1.46-.61,2.37-.61.61,0,1.19.1,1.72.29.53.2,1,.49,1.39.88.4.39.71.88.93,1.47.22.59.33,1.28.33,2.07v.7h-7.84v-1.59h6.59l-1.2.42c0-.47-.07-.88-.22-1.23s-.36-.62-.64-.81c-.28-.19-.64-.29-1.06-.29s-.78.1-1.07.29c-.29.19-.51.46-.67.79s-.23.71-.23,1.15v1.12c0,.5.09.93.27,1.29.18.36.42.63.74.82.32.19.68.29,1.1.29.29,0,.55-.04.78-.12s.43-.21.6-.37c.17-.16.29-.35.38-.58l2.37.16c-.12.57-.36,1.07-.73,1.49-.37.42-.84.75-1.42.99-.58.23-1.25.35-2.02.35Z"/>
      <path class="cls-2" d="M169.12,182.67c-.95,0-1.76-.2-2.44-.61-.68-.41-1.2-.97-1.57-1.68s-.55-1.54-.55-2.49.18-1.79.55-2.51c.37-.72.89-1.28,1.57-1.68.68-.4,1.49-.61,2.43-.61.81,0,1.51.15,2.12.44.61.29,1.09.71,1.44,1.24s.55,1.16.58,1.88h-2.42c-.04-.31-.14-.58-.28-.81s-.33-.41-.57-.54c-.24-.13-.51-.19-.83-.19-.4,0-.75.11-1.04.32-.3.21-.53.53-.69.94-.16.41-.25.91-.25,1.5s.08,1.09.25,1.51c.16.42.39.74.69.96.3.22.64.33,1.04.33.44,0,.82-.14,1.12-.42s.49-.67.56-1.16h2.42c-.04.71-.23,1.33-.57,1.87-.34.54-.82.96-1.42,1.26s-1.32.45-2.15.45Z"/>
      <path class="cls-2" d="M178.89,182.67c-.94,0-1.74-.2-2.43-.6-.68-.4-1.21-.96-1.58-1.68-.37-.72-.55-1.55-.55-2.5s.18-1.8.55-2.52c.37-.72.89-1.28,1.58-1.68.68-.4,1.49-.6,2.43-.6s1.75.2,2.44.6c.68.4,1.21.96,1.58,1.68.37.72.55,1.56.55,2.52s-.18,1.79-.55,2.5c-.37.72-.89,1.28-1.58,1.68-.68.4-1.5.6-2.44.6ZM178.9,180.66c.43,0,.78-.12,1.07-.36.29-.24.5-.57.65-.99.15-.42.22-.9.22-1.44s-.07-1.02-.22-1.44c-.15-.42-.36-.74-.65-.98-.29-.24-.64-.36-1.07-.36s-.79.12-1.08.36c-.29.24-.51.56-.66.98-.15.42-.22.89-.22,1.44s.07,1.02.22,1.44c.15.42.37.75.66.99.29.24.65.36,1.08.36Z"/>
      <path class="cls-2" d="M187.49,177.12v5.36h-2.56v-9.28h2.52v1.65h.09c.21-.55.54-.98,1-1.29s1.03-.47,1.73-.47c.64,0,1.2.14,1.68.42.48.28.85.68,1.12,1.2.27.52.4,1.14.4,1.87v5.9h-2.56v-5.45c0-.56-.15-1.01-.44-1.33-.29-.32-.7-.49-1.21-.49-.34,0-.65.08-.91.23-.27.15-.47.37-.62.65s-.22.62-.22,1.02Z"/>
      <path class="cls-2" d="M200.24,173.2v1.94h-5.59v-1.94h5.59ZM195.93,171h2.56v8.63c0,.31.07.54.21.68.14.15.36.22.66.22.1,0,.21,0,.33-.03s.23-.04.32-.06l.41,1.93c-.28.08-.55.14-.82.18-.26.04-.52.06-.78.06-.92,0-1.64-.23-2.14-.69-.5-.46-.76-1.11-.76-1.95v-8.97Z"/>
      <path class="cls-2" d="M205.93,182.67c-.95,0-1.77-.19-2.47-.58-.69-.39-1.22-.94-1.59-1.66-.37-.72-.55-1.56-.55-2.54s.18-1.79.55-2.51c.37-.72.89-1.28,1.56-1.68.67-.4,1.46-.61,2.37-.61.61,0,1.19.1,1.72.29s1,.49,1.39.88c.4.39.71.88.93,1.47.22.59.33,1.28.33,2.07v.7h-7.84v-1.58h6.59l-1.2.42c0-.47-.07-.88-.22-1.23s-.36-.62-.64-.81c-.28-.19-.64-.29-1.06-.29s-.78.1-1.07.29c-.29.19-.51.46-.67.79s-.23.71-.23,1.15v1.12c0,.5.09.93.27,1.29.18.36.42.63.74.82.32.19.68.29,1.1.29.29,0,.55-.04.78-.12s.43-.2.6-.37c.17-.16.29-.35.38-.58l2.37.16c-.12.57-.36,1.07-.73,1.49-.37.42-.84.75-1.42.99s-1.25.35-2.02.35Z"/>
      <path class="cls-2" d="M214.18,177.12v5.36h-2.56v-9.28h2.52v1.65h.09c.21-.55.54-.98,1-1.29s1.03-.47,1.73-.47c.64,0,1.2.14,1.68.42.48.28.85.68,1.12,1.2.27.52.4,1.14.4,1.87v5.9h-2.56v-5.45c0-.56-.15-1.01-.44-1.33-.29-.32-.7-.49-1.21-.49-.34,0-.65.08-.91.23-.27.15-.47.37-.62.65s-.22.62-.22,1.02Z"/>
      <path class="cls-2" d="M223.29,172.02c-.38,0-.71-.13-.98-.38-.27-.25-.41-.56-.41-.92s.14-.67.41-.92.6-.38.98-.38.72.13.99.38.41.56.41.92-.14.67-.41.92c-.27.25-.6.38-.99.38ZM222.01,182.48v-9.28h2.56v9.28h-2.56Z"/>
      <path class="cls-2" d="M229.81,182.63c-.71,0-1.35-.18-1.92-.55s-1.02-.9-1.35-1.61-.5-1.58-.5-2.61.17-1.95.51-2.66c.34-.71.8-1.24,1.37-1.59s1.19-.53,1.87-.53c.52,0,.95.09,1.3.26.35.17.63.39.85.65.22.26.38.52.49.77h.07v-4.66h2.57v12.37h-2.53v-1.49h-.12c-.12.25-.29.51-.51.76-.22.25-.5.46-.85.63-.35.17-.77.25-1.27.25ZM230.61,180.59c.42,0,.77-.11,1.06-.34.29-.23.51-.55.66-.96.15-.41.23-.89.23-1.44s-.07-1.03-.22-1.44c-.15-.41-.37-.72-.66-.95-.29-.22-.65-.34-1.06-.34s-.77.12-1.06.35-.51.55-.66.96c-.15.41-.22.88-.22,1.42s.07,1.01.22,1.42.37.73.66.97c.29.23.64.35,1.06.35Z"/>
      <path class="cls-2" d="M241.1,182.67c-.94,0-1.74-.2-2.43-.6-.68-.4-1.21-.96-1.58-1.68-.37-.72-.55-1.55-.55-2.5s.18-1.8.55-2.52c.37-.72.89-1.28,1.58-1.68.68-.4,1.49-.6,2.43-.6s1.75.2,2.44.6c.68.4,1.21.96,1.58,1.68.37.72.55,1.56.55,2.52s-.18,1.79-.55,2.5c-.37.72-.89,1.28-1.58,1.68-.68.4-1.5.6-2.44.6ZM241.12,180.66c.43,0,.78-.12,1.07-.36.29-.24.5-.57.65-.99.15-.42.22-.9.22-1.44s-.07-1.02-.22-1.44c-.15-.42-.36-.74-.65-.98-.29-.24-.64-.36-1.07-.36s-.79.12-1.08.36c-.29.24-.51.56-.66.98-.15.42-.22.89-.22,1.44s.07,1.02.22,1.44c.15.42.37.75.66.99.29.24.65.36,1.08.36Z"/>
      <path class="cls-5" d="M159.18,202.88v-12.37h8.33v2.16h-5.73v2.91h5.3v2.12h-5.3v3.03h5.74v2.16h-8.35Z"/>
      <path class="cls-5" d="M171.8,197.52v5.36h-2.56v-9.28h2.52v1.65h.09c.21-.55.54-.98,1-1.29s1.03-.47,1.73-.47c.64,0,1.2.14,1.68.42.48.28.85.68,1.12,1.2.27.52.4,1.14.4,1.87v5.9h-2.56v-5.45c0-.56-.15-1.01-.44-1.33-.29-.32-.7-.49-1.21-.49-.34,0-.65.08-.91.23s-.47.37-.62.65-.22.62-.22,1.02Z"/>
      <path class="cls-5" d="M188.73,203.05c-1.1,0-2.08-.25-2.95-.75s-1.56-1.22-2.06-2.17-.76-2.09-.76-3.43.25-2.5.76-3.45c.51-.95,1.2-1.67,2.07-2.17.87-.5,1.85-.74,2.93-.74.72,0,1.39.1,2,.3s1.16.5,1.63.88c.47.38.86.86,1.16,1.41.3.56.49,1.19.57,1.91h-2.64c-.05-.34-.15-.64-.29-.91-.15-.27-.34-.5-.57-.69-.23-.19-.5-.33-.8-.44-.3-.1-.63-.15-.99-.15-.63,0-1.19.16-1.66.48-.48.32-.85.78-1.11,1.38-.26.6-.39,1.33-.39,2.2s.13,1.62.4,2.22c.27.6.64,1.05,1.11,1.36.48.3,1.03.46,1.65.46.35,0,.67-.05.97-.14.3-.09.56-.23.8-.41.23-.18.43-.39.58-.65.16-.26.26-.55.32-.88h2.64c-.07.57-.23,1.12-.5,1.64-.27.53-.63,1-1.09,1.41s-1,.74-1.64.98c-.63.24-1.34.36-2.13.36Z"/>
      <path class="cls-5" d="M196.89,192.42c-.38,0-.71-.13-.98-.38-.27-.25-.41-.56-.41-.92s.14-.67.41-.92c.27-.25.6-.38.98-.38s.72.13.99.38c.27.25.41.56.41.92s-.14.67-.41.92c-.27.25-.6.38-.99.38ZM195.61,202.88v-9.28h2.56v9.28h-2.56Z"/>
      <path class="cls-5" d="M204.15,203.07c-.95,0-1.77-.19-2.47-.58-.69-.39-1.22-.94-1.59-1.66-.37-.72-.55-1.56-.55-2.54s.18-1.79.55-2.51c.37-.72.89-1.28,1.56-1.69.67-.4,1.46-.61,2.37-.61.61,0,1.19.1,1.72.29.53.2,1,.49,1.39.88.4.39.71.88.93,1.47.22.59.33,1.28.33,2.07v.7h-7.84v-1.59h6.59l-1.2.42c0-.47-.07-.88-.22-1.23s-.36-.62-.64-.81c-.28-.19-.64-.29-1.06-.29s-.78.1-1.07.29c-.29.19-.51.46-.67.79s-.23.71-.23,1.15v1.12c0,.5.09.93.27,1.29.18.36.42.63.74.82.32.19.68.29,1.1.29.29,0,.55-.04.78-.12s.43-.21.6-.37c.17-.16.29-.35.38-.58l2.37.16c-.12.57-.36,1.07-.73,1.49-.37.42-.84.75-1.42.99-.58.23-1.25.35-2.02.35Z"/>
      <path class="cls-5" d="M212.3,197.52v5.36h-2.56v-9.28h2.52v1.65h.09c.21-.55.54-.98,1-1.29s1.03-.47,1.73-.47c.64,0,1.2.14,1.68.42.48.28.85.68,1.12,1.2.27.52.4,1.14.4,1.87v5.9h-2.56v-5.45c0-.56-.15-1.01-.44-1.33-.29-.32-.7-.49-1.21-.49-.34,0-.65.08-.91.23s-.47.37-.62.65-.22.62-.22,1.02Z"/>
      <path class="cls-5" d="M224.2,203.07c-.95,0-1.76-.2-2.44-.61-.68-.41-1.2-.97-1.57-1.68-.37-.72-.55-1.55-.55-2.49s.18-1.79.55-2.51c.37-.72.89-1.28,1.57-1.69.68-.4,1.49-.61,2.43-.61.81,0,1.51.15,2.12.44.61.29,1.09.71,1.44,1.24s.55,1.16.58,1.88h-2.42c-.04-.31-.14-.58-.28-.81s-.33-.41-.57-.54c-.24-.13-.51-.19-.83-.19-.4,0-.75.11-1.04.32-.3.21-.53.53-.69.94-.16.41-.25.91-.25,1.5s.08,1.09.25,1.51c.16.42.39.74.69.96.3.22.64.33,1.04.33.44,0,.82-.14,1.12-.42.3-.28.49-.67.56-1.16h2.42c-.04.71-.23,1.33-.57,1.87-.34.54-.82.96-1.42,1.26-.6.3-1.32.45-2.15.45Z"/>
      <path class="cls-5" d="M230.97,192.42c-.38,0-.71-.13-.98-.38-.27-.25-.41-.56-.41-.92s.14-.67.41-.92c.27-.25.6-.38.98-.38s.72.13.99.38c.27.25.41.56.41.92s-.14.67-.41.92c-.27.25-.6.38-.99.38ZM229.69,202.88v-9.28h2.56v9.28h-2.56Z"/>
      <path class="cls-5" d="M236.65,203.06c-.59,0-1.11-.1-1.58-.31-.47-.21-.83-.52-1.1-.93-.27-.41-.4-.92-.4-1.53,0-.52.09-.95.28-1.3.19-.35.45-.63.77-.84s.7-.38,1.11-.49c.42-.11.85-.19,1.32-.23.54-.05.97-.1,1.29-.15s.57-.13.72-.23c.15-.1.23-.25.23-.44v-.04c0-.38-.12-.68-.36-.89-.24-.21-.58-.32-1.02-.32-.46,0-.83.1-1.1.3-.27.2-.46.46-.54.77l-2.38-.19c.12-.56.36-1.05.71-1.46.35-.41.81-.73,1.37-.96.56-.22,1.21-.34,1.96-.34.51,0,1.01.06,1.48.18.47.12.89.31,1.26.56.37.25.66.58.88.97s.32.87.32,1.42v6.26h-2.45v-1.29h-.07c-.15.29-.35.55-.6.77s-.55.39-.9.51c-.35.12-.75.19-1.21.19ZM237.39,201.28c.38,0,.71-.08,1-.23.29-.15.52-.36.68-.61.16-.26.25-.55.25-.87v-.99c-.08.05-.19.1-.33.14-.14.04-.3.08-.47.12s-.34.06-.51.09c-.17.02-.33.05-.46.07-.3.04-.57.11-.8.21-.23.1-.4.23-.53.39-.12.16-.19.37-.19.61,0,.35.13.61.38.8s.58.27.98.27Z"/>
      <path class="cls-5" d="M251.31,196.25l-2.35.14c-.06-.29-.22-.55-.49-.76s-.62-.32-1.07-.32c-.4,0-.73.08-1,.25-.27.17-.4.39-.4.66,0,.22.09.41.26.57.17.16.47.28.9.37l1.69.33c.9.18,1.57.48,2.02.89.44.41.66.95.66,1.62,0,.61-.18,1.15-.53,1.61-.35.46-.84.81-1.46,1.07-.62.26-1.33.39-2.13.39-1.23,0-2.21-.26-2.93-.77-.73-.51-1.15-1.21-1.27-2.09l2.52-.13c.08.38.27.66.56.86.29.19.67.29,1.13.29s.81-.09,1.09-.27c.28-.18.42-.4.42-.67,0-.46-.4-.77-1.2-.93l-1.6-.33c-.9-.18-1.57-.5-2.02-.94-.44-.44-.66-1.01-.66-1.7,0-.6.16-1.11.49-1.54s.78-.76,1.37-1c.59-.23,1.28-.35,2.07-.35,1.17,0,2.1.25,2.77.74.67.5,1.06,1.17,1.17,2.02Z"/>
      <path class="cls-5" d="M176.68,223.46c-1,0-1.86-.15-2.6-.46-.74-.3-1.31-.76-1.73-1.36-.41-.6-.63-1.35-.65-2.24h2.52c.03.41.15.75.37,1.03s.49.49.85.63c.35.14.76.21,1.22.21s.83-.06,1.16-.19c.33-.13.58-.31.76-.54.18-.23.27-.5.27-.8,0-.28-.08-.51-.24-.7-.16-.19-.4-.35-.71-.48-.31-.13-.69-.25-1.14-.36l-1.35-.33c-1.04-.25-1.86-.65-2.47-1.19s-.9-1.27-.9-2.19c0-.75.2-1.4.61-1.96.41-.56.96-1,1.67-1.31.71-.31,1.51-.47,2.41-.47s1.72.16,2.4.47c.68.32,1.22.75,1.6,1.31.38.56.58,1.2.59,1.93h-2.52c-.04-.48-.25-.86-.62-1.13-.37-.27-.86-.41-1.49-.41-.42,0-.78.06-1.07.18-.3.12-.52.28-.68.49-.15.21-.23.45-.23.72,0,.29.09.53.27.73s.41.36.71.48c.3.12.62.23.98.31l1.1.27c.54.12,1.03.28,1.49.49.45.2.85.45,1.18.74.33.29.59.64.78,1.03.18.4.27.85.27,1.37,0,.76-.19,1.42-.57,1.97-.38.56-.93.98-1.64,1.29s-1.58.45-2.59.45Z"/>
      <path class="cls-5" d="M187.05,223.47c-.94,0-1.74-.2-2.43-.6-.68-.4-1.21-.96-1.58-1.68-.37-.72-.55-1.55-.55-2.5s.18-1.8.55-2.52c.37-.72.89-1.28,1.58-1.68.68-.4,1.49-.6,2.43-.6s1.75.2,2.44.6c.68.4,1.21.96,1.58,1.68.37.72.55,1.56.55,2.52s-.18,1.79-.55,2.5c-.37.72-.89,1.28-1.58,1.68-.68.4-1.5.6-2.44.6ZM187.06,221.46c.43,0,.78-.12,1.07-.36.29-.24.5-.57.65-.99.15-.42.22-.9.22-1.44s-.07-1.02-.22-1.44c-.15-.42-.36-.74-.65-.98-.29-.24-.64-.36-1.07-.36s-.79.12-1.08.36c-.29.24-.51.56-.66.98-.15.42-.22.89-.22,1.44s.07,1.02.22,1.44c.15.42.37.75.66.99.29.24.65.36,1.08.36Z"/>
      <path class="cls-5" d="M197.16,223.47c-.95,0-1.76-.2-2.44-.61-.68-.41-1.2-.97-1.57-1.68-.37-.72-.55-1.55-.55-2.49s.18-1.79.55-2.51c.37-.72.89-1.28,1.57-1.69.68-.4,1.49-.61,2.43-.61.81,0,1.51.15,2.12.44.61.29,1.09.71,1.44,1.24s.55,1.16.58,1.88h-2.42c-.04-.31-.14-.58-.28-.81s-.33-.41-.57-.54c-.24-.13-.51-.19-.83-.19-.4,0-.75.11-1.04.32-.3.21-.53.53-.69.94-.16.41-.25.91-.25,1.5s.08,1.09.25,1.51c.16.42.39.74.69.96.3.22.64.33,1.04.33.44,0,.82-.14,1.12-.42.3-.28.49-.67.56-1.16h2.42c-.04.71-.23,1.33-.57,1.87-.34.54-.82.96-1.42,1.26-.6.3-1.32.45-2.15.45Z"/>
      <path class="cls-5" d="M203.93,212.82c-.38,0-.71-.13-.98-.38-.27-.25-.41-.56-.41-.92s.14-.67.41-.92c.27-.25.6-.38.98-.38s.72.13.99.38c.27.25.41.56.41.92s-.14.67-.41.92c-.27.25-.6.38-.99.38ZM202.66,223.29v-9.28h2.56v9.28h-2.56Z"/>
      <path class="cls-5" d="M209.61,223.46c-.59,0-1.11-.1-1.58-.31-.47-.21-.83-.52-1.1-.93-.27-.41-.4-.92-.4-1.53,0-.52.09-.95.28-1.3.19-.35.45-.63.77-.84s.7-.38,1.11-.49c.42-.11.85-.19,1.32-.23.54-.05.97-.1,1.29-.15s.57-.13.72-.23c.15-.1.23-.25.23-.44v-.04c0-.38-.12-.68-.36-.89-.24-.21-.58-.32-1.02-.32-.46,0-.83.1-1.1.3-.27.2-.46.46-.54.77l-2.38-.19c.12-.56.36-1.05.71-1.46.35-.41.81-.73,1.37-.96.56-.22,1.21-.34,1.96-.34.51,0,1.01.06,1.48.18.47.12.89.31,1.26.56.37.25.66.58.88.97s.32.87.32,1.42v6.26h-2.45v-1.29h-.07c-.15.29-.35.55-.6.77s-.55.39-.9.51c-.35.12-.75.19-1.21.19ZM210.35,221.68c.38,0,.71-.08,1-.23.29-.15.52-.36.68-.61.16-.26.25-.55.25-.87v-.99c-.08.05-.19.1-.33.14-.14.04-.3.08-.47.12s-.34.06-.51.09c-.17.02-.33.05-.46.07-.3.04-.57.11-.8.21-.23.1-.4.23-.53.39-.12.16-.19.37-.19.61,0,.35.13.61.38.8s.58.27.98.27Z"/>
      <path class="cls-5" d="M219.14,210.92v12.37h-2.56v-12.37h2.56Z"/>
      <path class="cls-5" d="M225.11,223.47c-.95,0-1.77-.19-2.47-.58-.69-.39-1.22-.94-1.59-1.66-.37-.72-.55-1.56-.55-2.54s.18-1.79.55-2.51c.37-.72.89-1.28,1.56-1.69.67-.4,1.46-.61,2.37-.61.61,0,1.19.1,1.72.29.53.2,1,.49,1.39.88.4.39.71.88.93,1.47.22.59.33,1.28.33,2.07v.7h-7.84v-1.59h6.59l-1.2.42c0-.47-.07-.88-.22-1.23s-.36-.62-.64-.81c-.28-.19-.64-.29-1.06-.29s-.78.1-1.07.29c-.29.19-.51.46-.67.79s-.23.71-.23,1.15v1.12c0,.5.09.93.27,1.29.18.36.42.63.74.82.32.19.68.29,1.1.29.29,0,.55-.04.78-.12s.43-.21.6-.37c.17-.16.29-.35.38-.58l2.37.16c-.12.57-.36,1.07-.73,1.49-.37.42-.84.75-1.42.99-.58.23-1.25.35-2.02.35Z"/>
      <path class="cls-5" d="M238.4,216.65l-2.35.14c-.06-.29-.22-.55-.49-.76s-.62-.32-1.07-.32c-.4,0-.73.08-1,.25-.27.17-.4.39-.4.66,0,.22.09.41.26.57.17.16.47.28.9.37l1.69.33c.9.18,1.57.48,2.02.89.44.41.66.95.66,1.62,0,.61-.18,1.15-.53,1.61-.35.46-.84.81-1.46,1.07-.62.26-1.33.39-2.13.39-1.23,0-2.21-.26-2.93-.77-.73-.51-1.15-1.21-1.27-2.09l2.52-.13c.08.38.27.66.56.86.29.19.67.29,1.13.29s.81-.09,1.09-.27c.28-.18.42-.4.42-.67,0-.46-.4-.77-1.2-.93l-1.6-.33c-.9-.18-1.57-.5-2.02-.94-.44-.44-.66-1.01-.66-1.7,0-.6.16-1.11.49-1.54s.78-.76,1.37-1c.59-.23,1.28-.35,2.07-.35,1.17,0,2.1.25,2.77.74.67.5,1.06,1.17,1.17,2.02Z"/>
    </g>
    <text class="cls-6" transform="translate(0 19)"><tspan x="0" y="0">Las sociedades </tspan><tspan x="0" y="26.4">y la construcción</tspan><tspan x="0" y="52.8">de los espacios</tspan></text>
    <text class="cls-6" transform="translate(350.22 152.98)"><tspan x="0" y="0">Las sociedades</tspan><tspan x="0" y="26.4">en el tiempo. </tspan><tspan x="0" y="52.8">Cambios y </tspan><tspan x="0" y="79.2">continuidades</tspan></text>
    <text class="cls-6" transform="translate(0 316.06)"><tspan x="0" y="0">Las sociedades,</tspan><tspan x="0" y="26.4">la vida cotidiana</tspan><tspan x="0" y="52.8">y las prácticas culturales </tspan></text>
    <path class="cls-4" d="M318.86,181.84c18.58-29.15,21.15-67.26,3.41-99.75-25.95-47.51-85.5-65-133.02-39.05-18.08,9.88-31.8,24.63-40.45,41.72"/>
    <path class="cls-4" d="M135.92,283.82c-34.57-.28-67.94-18.87-85.53-51.44-25.73-47.63-7.98-107.1,39.66-132.84,18.13-9.79,37.97-13.27,57.02-11.22"/>
    <path class="cls-4" d="M320.02,185.5c19.68,28.42,23.7,66.41,7.21,99.54-24.12,48.47-82.96,68.21-131.43,44.09-18.45-9.18-32.72-23.4-42.01-40.15"/>
    <g>
      <circle class="cls-4" cx="204.84" cy="185.5" r="112.01"/>
      <circle class="cls-3" cx="316.86" cy="185.5" r="8.19"/>
      <circle class="cls-3" cx="148.81" cy="282.52" r="8.19"/>
      <circle class="cls-3" cx="148.81" cy="88.49" r="8.19"/>
    </g>
  </g>
</svg>