<?xml version="1.0" encoding="UTF-8"?>
<svg id="Capa_2" data-name="Capa 2" xmlns="http://www.w3.org/2000/svg" viewBox="0 0 529.69 441.51">
  <defs>
    <style>
      .cls-1 {
        font-family: InterTight-Regular, 'Inter Tight';
        font-size: 22px;
      }

      .cls-1, .cls-2 {
        fill: #78b72a;
      }

      .cls-3 {
        stroke: #78b72a;
        stroke-width: 3.71px;
      }

      .cls-3, .cls-4 {
        fill: #fff;
      }

      .cls-3, .cls-5, .cls-6 {
        stroke-miterlimit: 10;
      }

      .cls-7 {
        fill: #3c5d26;
      }

      .cls-5 {
        stroke-dasharray: 4.57;
      }

      .cls-5, .cls-6 {
        fill: none;
        stroke: #4b4a63;
        stroke-width: .65px;
      }

      .cls-6 {
        stroke-dasharray: 4.57 4.57;
      }
    </style>
  </defs>
  <g id="Capa_1-2" data-name="Capa 1">
    <g>
      <path class="cls-5" d="M260.81,90.78c14.05-12.44,32.53-19.99,52.76-19.99,43.98,0,79.62,35.66,79.62,79.63,0,20.38-7.66,38.98-20.25,53.06"/>
      <path class="cls-5" d="M372.93,203.48c12.6,14.08,20.25,32.68,20.25,53.06,0,43.98-35.64,79.63-79.62,79.63-20.71,0-39.58-7.91-53.74-20.88"/>
      <path class="cls-5" d="M148.05,202.76c-11.68,13.85-18.71,31.74-18.71,51.28,0,43.97,35.64,79.62,79.62,79.62,19.34,0,37.08-6.9,50.87-18.36"/>
      <path class="cls-5" d="M148.05,202.76c-12.21-13.99-19.62-32.31-19.62-52.33,0-43.98,35.64-79.63,79.62-79.63,20.23,0,38.7,7.55,52.76,19.99"/>
    </g>
    <circle class="cls-2" cx="260.81" cy="204.2" r="79.35"/>
    <g>
      <path class="cls-4" d="M230.92,177.5v-12.37h8.33v2.16h-5.73v2.91h5.3v2.12h-5.3v3.03h5.74v2.16h-8.35Z"/>
      <path class="cls-4" d="M241.07,168.22h2.56v9.75c0,.71-.14,1.29-.42,1.73-.28.44-.69.76-1.21.97s-1.15.31-1.88.31h-.52v-2.01h.33c.42,0,.71-.09.88-.26s.25-.43.26-.78v-9.7ZM242.34,167.03c-.38,0-.71-.13-.98-.38s-.41-.56-.41-.92.14-.67.41-.92c.27-.25.6-.38.98-.38s.72.13.99.38c.27.25.41.56.41.92s-.14.67-.41.92-.6.38-.99.38Z"/>
      <path class="cls-4" d="M249.71,177.68c-.95,0-1.77-.19-2.47-.58s-1.22-.94-1.59-1.66c-.37-.72-.55-1.56-.55-2.54s.18-1.79.55-2.51c.37-.72.89-1.28,1.56-1.69.67-.4,1.46-.61,2.37-.61.61,0,1.19.1,1.72.29.53.2,1,.49,1.39.88.4.39.71.88.93,1.47.22.59.33,1.28.33,2.07v.7h-7.84v-1.59h6.59l-1.2.42c0-.47-.07-.88-.22-1.23s-.36-.62-.64-.81c-.28-.19-.64-.29-1.06-.29s-.78.1-1.07.29c-.29.19-.51.46-.67.79s-.23.71-.23,1.15v1.12c0,.5.09.93.27,1.29.18.36.42.63.74.82.32.19.68.29,1.1.29.29,0,.55-.04.78-.12s.43-.2.6-.37c.17-.16.29-.35.38-.58l2.37.16c-.12.57-.36,1.07-.73,1.49-.37.42-.84.75-1.42.99-.58.23-1.25.35-2.02.35Z"/>
      <path class="cls-4" d="M263.1,170.86l-2.35.14c-.06-.29-.22-.55-.49-.76-.27-.21-.62-.32-1.07-.32-.4,0-.73.08-1,.25-.27.17-.4.39-.4.66,0,.22.09.41.26.57.17.16.47.28.9.37l1.69.33c.9.18,1.57.48,2.02.89s.66.95.66,1.62c0,.61-.18,1.15-.53,1.61-.35.46-.84.81-1.46,1.07-.62.26-1.33.39-2.13.39-1.23,0-2.21-.26-2.93-.77-.73-.51-1.15-1.21-1.27-2.09l2.52-.13c.08.38.27.66.56.85s.67.29,1.13.29.81-.09,1.09-.27c.28-.18.42-.4.42-.67,0-.46-.4-.77-1.2-.93l-1.6-.33c-.9-.18-1.57-.5-2.02-.94s-.66-1.01-.66-1.7c0-.6.16-1.11.49-1.54s.78-.76,1.37-1c.59-.23,1.28-.35,2.07-.35,1.17,0,2.1.25,2.77.74.67.5,1.06,1.17,1.17,2.02Z"/>
      <path class="cls-4" d="M271.84,177.65c-.71,0-1.35-.18-1.92-.55s-1.02-.9-1.35-1.61c-.33-.71-.5-1.58-.5-2.61s.17-1.95.51-2.66.8-1.24,1.37-1.59c.57-.35,1.19-.53,1.87-.53.52,0,.95.09,1.3.26.35.17.63.39.85.65s.38.52.49.77h.07v-4.66h2.57v12.37h-2.53v-1.49h-.12c-.12.25-.29.51-.51.76-.22.25-.5.46-.85.63-.35.17-.77.25-1.27.25ZM272.65,175.6c.42,0,.77-.11,1.06-.34.29-.23.51-.55.66-.96.15-.41.23-.89.23-1.44s-.07-1.03-.22-1.44c-.15-.41-.37-.72-.66-.95-.29-.22-.65-.34-1.06-.34s-.77.12-1.06.35-.51.55-.66.96c-.15.41-.22.88-.22,1.42s.07,1.01.22,1.42c.15.41.37.73.66.97.29.23.64.35,1.06.35Z"/>
      <path class="cls-4" d="M283.18,177.68c-.95,0-1.77-.19-2.47-.58s-1.22-.94-1.59-1.66c-.37-.72-.55-1.56-.55-2.54s.18-1.79.55-2.51c.37-.72.89-1.28,1.56-1.69.67-.4,1.46-.61,2.37-.61.61,0,1.19.1,1.72.29.53.2,1,.49,1.39.88.4.39.71.88.93,1.47.22.59.33,1.28.33,2.07v.7h-7.84v-1.59h6.59l-1.2.42c0-.47-.07-.88-.22-1.23s-.36-.62-.64-.81c-.28-.19-.64-.29-1.06-.29s-.78.1-1.07.29c-.29.19-.51.46-.67.79s-.23.71-.23,1.15v1.12c0,.5.09.93.27,1.29.18.36.42.63.74.82.32.19.68.29,1.1.29.29,0,.55-.04.78-.12s.43-.2.6-.37c.17-.16.29-.35.38-.58l2.37.16c-.12.57-.36,1.07-.73,1.49-.37.42-.84.75-1.42.99-.58.23-1.25.35-2.02.35Z"/>
      <path class="cls-4" d="M224.81,198.08c-.95,0-1.76-.2-2.44-.61-.68-.41-1.2-.97-1.57-1.68-.37-.72-.55-1.55-.55-2.49s.18-1.79.55-2.51c.37-.72.89-1.28,1.57-1.69s1.49-.61,2.43-.61c.81,0,1.51.15,2.12.44.61.29,1.09.71,1.44,1.24s.55,1.16.58,1.88h-2.42c-.04-.31-.14-.58-.28-.81s-.33-.41-.57-.54-.51-.19-.83-.19c-.4,0-.75.11-1.04.32-.3.21-.53.53-.69.94-.16.41-.25.91-.25,1.5s.08,1.09.25,1.51c.16.42.39.74.69.96.3.22.64.33,1.04.33.44,0,.82-.14,1.12-.42.3-.28.49-.67.56-1.16h2.42c-.04.71-.23,1.33-.57,1.87-.34.54-.82.96-1.42,1.26-.6.3-1.32.45-2.15.45Z"/>
      <path class="cls-4" d="M234.58,198.08c-.94,0-1.74-.2-2.43-.6-.68-.4-1.21-.96-1.58-1.68-.37-.72-.55-1.55-.55-2.5s.18-1.8.55-2.52c.37-.72.89-1.28,1.58-1.68.68-.4,1.49-.6,2.43-.6s1.75.2,2.44.6c.68.4,1.21.96,1.58,1.68.37.72.55,1.56.55,2.52s-.18,1.79-.55,2.5c-.37.72-.89,1.28-1.58,1.68-.68.4-1.5.6-2.44.6ZM234.6,196.07c.43,0,.78-.12,1.07-.36.29-.24.5-.57.65-.99.15-.42.22-.9.22-1.44s-.07-1.02-.22-1.44c-.15-.42-.36-.74-.65-.98s-.64-.36-1.07-.36-.79.12-1.08.36c-.29.24-.51.56-.66.98-.15.42-.22.89-.22,1.44s.07,1.02.22,1.44c.15.42.37.75.66.99.29.24.65.36,1.08.36Z"/>
      <path class="cls-4" d="M243.19,192.53v5.36h-2.56v-9.28h2.52v1.65h.09c.21-.55.54-.98,1-1.29s1.03-.47,1.73-.47c.64,0,1.2.14,1.68.42.48.28.85.68,1.12,1.2s.4,1.14.4,1.87v5.9h-2.56v-5.45c0-.56-.15-1.01-.44-1.33-.29-.32-.7-.49-1.21-.49-.34,0-.65.08-.91.23-.27.15-.47.37-.62.65s-.22.62-.22,1.02Z"/>
      <path class="cls-4" d="M255.94,188.62v1.94h-5.59v-1.94h5.59ZM251.62,186.41h2.56v8.63c0,.31.07.54.21.68.14.15.36.22.66.22.1,0,.21,0,.33-.02s.23-.04.32-.06l.41,1.93c-.28.08-.55.14-.82.18-.26.04-.52.06-.78.06-.92,0-1.64-.23-2.14-.69-.5-.46-.76-1.11-.76-1.95v-8.97Z"/>
      <path class="cls-4" d="M261.62,198.08c-.95,0-1.77-.19-2.47-.58s-1.22-.94-1.59-1.66c-.37-.72-.55-1.56-.55-2.54s.18-1.79.55-2.51c.37-.72.89-1.28,1.56-1.69.67-.4,1.46-.61,2.37-.61.61,0,1.19.1,1.72.29.53.2,1,.49,1.39.88.4.39.71.88.93,1.47.22.59.33,1.28.33,2.07v.7h-7.84v-1.59h6.59l-1.2.42c0-.47-.07-.88-.22-1.23s-.36-.62-.64-.81c-.28-.19-.64-.29-1.06-.29s-.78.1-1.07.29c-.29.19-.51.46-.67.79s-.23.71-.23,1.15v1.12c0,.5.09.93.27,1.29.18.36.42.63.74.82.32.19.68.29,1.1.29.29,0,.55-.04.78-.12s.43-.2.6-.37c.17-.16.29-.35.38-.58l2.37.16c-.12.57-.36,1.07-.73,1.49-.37.42-.84.75-1.42.99-.58.23-1.25.35-2.02.35Z"/>
      <path class="cls-4" d="M269.87,192.53v5.36h-2.56v-9.28h2.52v1.65h.09c.21-.55.54-.98,1-1.29s1.03-.47,1.73-.47c.64,0,1.2.14,1.68.42.48.28.85.68,1.12,1.2s.4,1.14.4,1.87v5.9h-2.56v-5.45c0-.56-.15-1.01-.44-1.33-.29-.32-.7-.49-1.21-.49-.34,0-.65.08-.91.23-.27.15-.47.37-.62.65s-.22.62-.22,1.02Z"/>
      <path class="cls-4" d="M278.98,187.43c-.38,0-.71-.13-.98-.38s-.41-.56-.41-.92.14-.67.41-.92c.27-.25.6-.38.98-.38s.72.13.99.38c.27.25.41.56.41.92s-.14.67-.41.92-.6.38-.99.38ZM277.7,197.9v-9.28h2.56v9.28h-2.56Z"/>
      <path class="cls-4" d="M285.5,198.05c-.71,0-1.35-.18-1.92-.55s-1.02-.9-1.35-1.61c-.33-.71-.5-1.58-.5-2.61s.17-1.95.51-2.66.8-1.24,1.37-1.59c.57-.35,1.19-.53,1.87-.53.52,0,.95.09,1.3.26.35.17.63.39.85.65s.38.52.49.77h.07v-4.66h2.57v12.37h-2.53v-1.49h-.12c-.12.25-.29.51-.51.76-.22.25-.5.46-.85.63-.35.17-.77.25-1.27.25ZM286.31,196c.42,0,.77-.11,1.06-.34.29-.23.51-.55.66-.96.15-.41.23-.89.23-1.44s-.07-1.03-.22-1.44c-.15-.41-.37-.72-.66-.95-.29-.22-.65-.34-1.06-.34s-.77.12-1.06.35-.51.55-.66.96c-.15.41-.22.88-.22,1.42s.07,1.01.22,1.42c.15.41.37.73.66.97.29.23.64.35,1.06.35Z"/>
      <path class="cls-4" d="M296.79,198.08c-.94,0-1.74-.2-2.43-.6-.68-.4-1.21-.96-1.58-1.68-.37-.72-.55-1.55-.55-2.5s.18-1.8.55-2.52c.37-.72.89-1.28,1.58-1.68.68-.4,1.49-.6,2.43-.6s1.75.2,2.44.6c.68.4,1.21.96,1.58,1.68.37.72.55,1.56.55,2.52s-.18,1.79-.55,2.5c-.37.72-.89,1.28-1.58,1.68-.68.4-1.5.6-2.44.6ZM296.81,196.07c.43,0,.78-.12,1.07-.36.29-.24.5-.57.65-.99.15-.42.22-.9.22-1.44s-.07-1.02-.22-1.44c-.15-.42-.36-.74-.65-.98s-.64-.36-1.07-.36-.79.12-1.08.36c-.29.24-.51.56-.66.98-.15.42-.22.89-.22,1.44s.07,1.02.22,1.44c.15.42.37.75.66.99.29.24.65.36,1.08.36Z"/>
      <path class="cls-7" d="M217.39,218.48c-.95,0-1.77-.19-2.47-.58s-1.22-.94-1.59-1.66c-.37-.72-.55-1.56-.55-2.54s.18-1.79.55-2.51c.37-.72.89-1.28,1.56-1.69.67-.4,1.46-.61,2.37-.61.61,0,1.19.1,1.72.29.53.2,1,.49,1.39.88.4.39.71.88.93,1.47.22.59.33,1.28.33,2.07v.7h-7.84v-1.59h6.59l-1.2.42c0-.47-.07-.88-.22-1.23s-.36-.62-.64-.81c-.28-.19-.64-.29-1.06-.29s-.78.1-1.07.29c-.29.19-.51.46-.67.79s-.23.71-.23,1.15v1.12c0,.5.09.93.27,1.29.18.36.42.63.74.82.32.19.68.29,1.1.29.29,0,.55-.04.78-.12s.43-.2.6-.37c.17-.16.29-.35.38-.58l2.37.16c-.12.57-.36,1.07-.73,1.49-.37.42-.84.75-1.42.99-.58.23-1.25.35-2.02.35Z"/>
      <path class="cls-7" d="M225.54,212.93v5.36h-2.56v-9.28h2.52v1.65h.09c.21-.55.54-.98,1-1.29s1.03-.47,1.73-.47c.64,0,1.2.14,1.68.42.48.28.85.68,1.12,1.2s.4,1.14.4,1.87v5.9h-2.56v-5.45c0-.56-.15-1.01-.44-1.33-.29-.32-.7-.49-1.21-.49-.34,0-.65.08-.91.23-.27.15-.47.37-.62.65s-.22.62-.22,1.02Z"/>
      <path class="cls-7" d="M242.47,218.46c-1.1,0-2.08-.25-2.95-.75s-1.56-1.22-2.06-2.17-.76-2.09-.76-3.43.25-2.5.76-3.45c.51-.95,1.2-1.67,2.07-2.17.87-.5,1.85-.74,2.93-.74.72,0,1.39.1,2,.3.61.2,1.16.5,1.63.88.47.38.86.86,1.16,1.41.3.56.49,1.19.57,1.91h-2.64c-.05-.34-.15-.64-.29-.91-.15-.27-.34-.5-.57-.69-.23-.19-.5-.33-.8-.44-.3-.1-.63-.15-.99-.15-.63,0-1.19.16-1.66.48-.48.32-.85.78-1.11,1.38-.26.6-.39,1.33-.39,2.2s.13,1.62.4,2.22c.27.6.64,1.05,1.11,1.36s1.03.46,1.65.46c.35,0,.67-.05.97-.14s.56-.23.8-.41.43-.39.58-.65c.16-.26.26-.55.32-.88h2.64c-.07.57-.23,1.12-.5,1.64-.27.53-.63.99-1.09,1.41-.46.41-1,.74-1.64.98-.63.24-1.34.36-2.13.36Z"/>
      <path class="cls-7" d="M250.63,207.83c-.38,0-.71-.13-.98-.38s-.41-.56-.41-.92.14-.67.41-.92c.27-.25.6-.38.98-.38s.72.13.99.38c.27.25.41.56.41.92s-.14.67-.41.92-.6.38-.99.38ZM249.35,218.3v-9.28h2.56v9.28h-2.56Z"/>
      <path class="cls-7" d="M257.89,218.48c-.95,0-1.77-.19-2.47-.58s-1.22-.94-1.59-1.66c-.37-.72-.55-1.56-.55-2.54s.18-1.79.55-2.51c.37-.72.89-1.28,1.56-1.69.67-.4,1.46-.61,2.37-.61.61,0,1.19.1,1.72.29.53.2,1,.49,1.39.88.4.39.71.88.93,1.47.22.59.33,1.28.33,2.07v.7h-7.84v-1.59h6.59l-1.2.42c0-.47-.07-.88-.22-1.23s-.36-.62-.64-.81c-.28-.19-.64-.29-1.06-.29s-.78.1-1.07.29c-.29.19-.51.46-.67.79s-.23.71-.23,1.15v1.12c0,.5.09.93.27,1.29.18.36.42.63.74.82.32.19.68.29,1.1.29.29,0,.55-.04.78-.12s.43-.2.6-.37c.17-.16.29-.35.38-.58l2.37.16c-.12.57-.36,1.07-.73,1.49-.37.42-.84.75-1.42.99-.58.23-1.25.35-2.02.35Z"/>
      <path class="cls-7" d="M266.04,212.93v5.36h-2.56v-9.28h2.52v1.65h.09c.21-.55.54-.98,1-1.29s1.03-.47,1.73-.47c.64,0,1.2.14,1.68.42.48.28.85.68,1.12,1.2s.4,1.14.4,1.87v5.9h-2.56v-5.45c0-.56-.15-1.01-.44-1.33-.29-.32-.7-.49-1.21-.49-.34,0-.65.08-.91.23-.27.15-.47.37-.62.65s-.22.62-.22,1.02Z"/>
      <path class="cls-7" d="M277.94,218.48c-.95,0-1.76-.2-2.44-.61-.68-.41-1.2-.97-1.57-1.68-.37-.72-.55-1.55-.55-2.49s.18-1.79.55-2.51c.37-.72.89-1.28,1.57-1.69s1.49-.61,2.43-.61c.81,0,1.51.15,2.12.44.61.29,1.09.71,1.44,1.24s.55,1.16.58,1.88h-2.42c-.04-.31-.14-.58-.28-.81s-.33-.41-.57-.54-.51-.19-.83-.19c-.4,0-.75.11-1.04.32-.3.21-.53.53-.69.94-.16.41-.25.91-.25,1.5s.08,1.09.25,1.51c.16.42.39.74.69.96.3.22.64.33,1.04.33.44,0,.82-.14,1.12-.42.3-.28.49-.67.56-1.16h2.42c-.04.71-.23,1.33-.57,1.87-.34.54-.82.96-1.42,1.26-.6.3-1.32.45-2.15.45Z"/>
      <path class="cls-7" d="M284.71,207.83c-.38,0-.71-.13-.98-.38s-.41-.56-.41-.92.14-.67.41-.92c.27-.25.6-.38.98-.38s.72.13.99.38c.27.25.41.56.41.92s-.14.67-.41.92-.6.38-.99.38ZM283.43,218.3v-9.28h2.56v9.28h-2.56Z"/>
      <path class="cls-7" d="M290.39,218.47c-.59,0-1.11-.1-1.58-.31-.47-.21-.83-.52-1.1-.93s-.4-.92-.4-1.53c0-.52.09-.95.28-1.3.19-.35.45-.63.77-.84s.7-.38,1.11-.49.85-.19,1.32-.23c.54-.05.97-.1,1.29-.15s.57-.13.72-.23c.15-.1.23-.25.23-.44v-.04c0-.38-.12-.68-.36-.89-.24-.21-.58-.32-1.02-.32-.46,0-.83.1-1.1.3-.27.2-.46.46-.54.77l-2.38-.19c.12-.56.36-1.05.71-1.46.35-.41.81-.73,1.37-.96.56-.22,1.21-.34,1.96-.34.51,0,1.01.06,1.48.18s.89.31,1.26.56c.37.25.66.58.88.98s.32.87.32,1.42v6.26h-2.45v-1.29h-.07c-.15.29-.35.55-.6.77-.25.22-.55.39-.9.51-.35.12-.75.19-1.21.19ZM291.13,216.69c.38,0,.71-.08,1-.23.29-.15.52-.36.68-.61.16-.26.25-.55.25-.87v-.99c-.08.05-.19.1-.33.14-.14.04-.3.08-.47.12s-.34.06-.51.09c-.17.02-.33.05-.46.07-.3.04-.57.11-.8.21-.23.1-.4.23-.53.39-.12.16-.19.37-.19.61,0,.35.13.61.38.8s.58.27.98.27Z"/>
      <path class="cls-7" d="M305.05,211.66l-2.35.14c-.06-.29-.22-.55-.49-.76-.27-.21-.62-.32-1.07-.32-.4,0-.73.08-1,.25-.27.17-.4.39-.4.66,0,.22.09.41.26.57.17.16.47.28.9.37l1.69.33c.9.18,1.57.48,2.02.89s.66.95.66,1.62c0,.61-.18,1.15-.53,1.61-.35.46-.84.81-1.46,1.07-.62.26-1.33.39-2.13.39-1.23,0-2.21-.26-2.93-.77-.73-.51-1.15-1.21-1.27-2.09l2.52-.13c.08.38.27.66.56.85s.67.29,1.13.29.81-.09,1.09-.27c.28-.18.42-.4.42-.67,0-.46-.4-.77-1.2-.93l-1.6-.33c-.9-.18-1.57-.5-2.02-.94s-.66-1.01-.66-1.7c0-.6.16-1.11.49-1.54s.78-.76,1.37-1c.59-.23,1.28-.35,2.07-.35,1.17,0,2.1.25,2.77.74.67.5,1.06,1.17,1.17,2.02Z"/>
      <path class="cls-7" d="M233.12,226.33v12.37h-2.26l-5.37-7.78h-.11v7.78h-2.61v-12.37h2.29l5.34,7.78h.11v-7.78h2.61Z"/>
      <path class="cls-7" d="M237.55,238.87c-.59,0-1.11-.1-1.58-.31-.47-.21-.83-.52-1.1-.93s-.4-.92-.4-1.53c0-.52.09-.95.28-1.3.19-.35.45-.63.77-.84s.7-.38,1.11-.49.85-.19,1.32-.23c.54-.05.97-.1,1.29-.15s.57-.13.72-.23c.15-.1.23-.25.23-.44v-.04c0-.38-.12-.68-.36-.89-.24-.21-.58-.32-1.02-.32-.46,0-.83.1-1.1.3-.27.2-.46.46-.54.77l-2.38-.19c.12-.56.36-1.05.71-1.46.35-.41.81-.73,1.37-.96.56-.22,1.21-.34,1.96-.34.51,0,1.01.06,1.48.18s.89.31,1.26.56c.37.25.66.58.88.98s.32.87.32,1.42v6.26h-2.45v-1.29h-.07c-.15.29-.35.55-.6.77-.25.22-.55.39-.9.51-.35.12-.75.19-1.21.19ZM238.29,237.1c.38,0,.71-.08,1-.23.29-.15.52-.36.68-.61.16-.26.25-.55.25-.87v-.99c-.08.05-.19.1-.33.14-.14.04-.3.08-.47.12s-.34.06-.51.09c-.17.02-.33.05-.46.07-.3.04-.57.11-.8.21-.23.1-.4.23-.53.39-.12.16-.19.37-.19.61,0,.35.13.61.38.8s.58.27.98.27Z"/>
      <path class="cls-7" d="M249.43,229.42v1.94h-5.59v-1.94h5.59ZM245.12,227.21h2.56v8.63c0,.31.07.54.21.68.14.15.36.22.66.22.1,0,.21,0,.33-.02s.23-.04.32-.06l.41,1.93c-.28.08-.55.14-.82.18-.26.04-.52.06-.78.06-.92,0-1.64-.23-2.14-.69-.5-.46-.76-1.11-.76-1.95v-8.97Z"/>
      <path class="cls-7" d="M256.74,234.75v-5.34h2.56v9.28h-2.47v-1.69h-.1c-.21.54-.56.97-1.04,1.31-.48.33-1.07.5-1.77.49-.62,0-1.17-.14-1.64-.42-.47-.28-.84-.68-1.1-1.2-.26-.52-.39-1.14-.39-1.87v-5.91h2.56v5.46c0,.54.15.97.44,1.29.29.32.68.47,1.17.47.31,0,.6-.07.86-.21.27-.14.48-.35.65-.63.17-.28.25-.63.25-1.04Z"/>
      <path class="cls-7" d="M261.05,238.7v-9.28h2.48v1.63h.1c.17-.58.46-1.01.85-1.31.4-.3.85-.44,1.37-.44.13,0,.27,0,.42.02.15.01.28.04.39.07v2.27c-.12-.04-.29-.07-.5-.1-.21-.02-.41-.04-.59-.04-.37,0-.71.08-1,.25-.3.16-.53.39-.7.68-.17.29-.25.62-.25,1v5.25h-2.56Z"/>
      <path class="cls-7" d="M270.32,238.87c-.59,0-1.11-.1-1.58-.31-.47-.21-.83-.52-1.1-.93s-.4-.92-.4-1.53c0-.52.09-.95.28-1.3.19-.35.45-.63.77-.84s.7-.38,1.11-.49.85-.19,1.32-.23c.54-.05.97-.1,1.29-.15s.57-.13.72-.23c.15-.1.23-.25.23-.44v-.04c0-.38-.12-.68-.36-.89-.24-.21-.58-.32-1.02-.32-.46,0-.83.1-1.1.3-.27.2-.46.46-.54.77l-2.38-.19c.12-.56.36-1.05.71-1.46.35-.41.81-.73,1.37-.96.56-.22,1.21-.34,1.96-.34.51,0,1.01.06,1.48.18s.89.31,1.26.56c.37.25.66.58.88.98s.32.87.32,1.42v6.26h-2.45v-1.29h-.07c-.15.29-.35.55-.6.77-.25.22-.55.39-.9.51-.35.12-.75.19-1.21.19ZM271.06,237.1c.38,0,.71-.08,1-.23.29-.15.52-.36.68-.61.16-.26.25-.55.25-.87v-.99c-.08.05-.19.1-.33.14-.14.04-.3.08-.47.12s-.34.06-.51.09c-.17.02-.33.05-.46.07-.3.04-.57.11-.8.21-.23.1-.4.23-.53.39-.12.16-.19.37-.19.61,0,.35.13.61.38.8s.58.27.98.27Z"/>
      <path class="cls-7" d="M279.85,226.33v12.37h-2.56v-12.37h2.56Z"/>
      <path class="cls-7" d="M285.82,238.88c-.95,0-1.77-.19-2.47-.58s-1.22-.94-1.59-1.66c-.37-.72-.55-1.56-.55-2.54s.18-1.79.55-2.51c.37-.72.89-1.28,1.56-1.69.67-.4,1.46-.61,2.37-.61.61,0,1.19.1,1.72.29.53.2,1,.49,1.39.88.4.39.71.88.93,1.47.22.59.33,1.28.33,2.07v.7h-7.84v-1.59h6.59l-1.2.42c0-.47-.07-.88-.22-1.23s-.36-.62-.64-.81c-.28-.19-.64-.29-1.06-.29s-.78.1-1.07.29c-.29.19-.51.46-.67.79s-.23.71-.23,1.15v1.12c0,.5.09.93.27,1.29.18.36.42.63.74.82.32.19.68.29,1.1.29.29,0,.55-.04.78-.12s.43-.2.6-.37c.17-.16.29-.35.38-.58l2.37.16c-.12.57-.36,1.07-.73,1.49-.37.42-.84.75-1.42.99-.58.23-1.25.35-2.02.35Z"/>
      <path class="cls-7" d="M299.11,232.06l-2.35.14c-.06-.29-.22-.55-.49-.76-.27-.21-.62-.32-1.07-.32-.4,0-.73.08-1,.25-.27.17-.4.39-.4.66,0,.22.09.41.26.57.17.16.47.28.9.37l1.69.33c.9.18,1.57.48,2.02.89s.66.95.66,1.62c0,.61-.18,1.15-.53,1.61-.35.46-.84.81-1.46,1.07-.62.26-1.33.39-2.13.39-1.23,0-2.21-.26-2.93-.77-.73-.51-1.15-1.21-1.27-2.09l2.52-.13c.08.38.27.66.56.85s.67.29,1.13.29.81-.09,1.09-.27c.28-.18.42-.4.42-.67,0-.46-.4-.77-1.2-.93l-1.6-.33c-.9-.18-1.57-.5-2.02-.94s-.66-1.01-.66-1.7c0-.6.16-1.11.49-1.54s.78-.76,1.37-1c.59-.23,1.28-.35,2.07-.35,1.17,0,2.1.25,2.77.74.67.5,1.06,1.17,1.17,2.02Z"/>
    </g>
    <g>
      <circle class="cls-6" cx="260.55" cy="204.2" r="113.43"/>
      <circle class="cls-3" cx="147.12" cy="204.2" r="7.94"/>
      <circle class="cls-3" cx="373.97" cy="204.2" r="7.94"/>
      <circle class="cls-3" cx="260.55" cy="317.63" r="7.94"/>
      <circle class="cls-3" cx="260.55" cy="90.78" r="7.94"/>
    </g>
    <text class="cls-1" transform="translate(259.82 19)"><tspan x="0" y="0">Los seres vivos: unidad, </tspan><tspan x="0" y="21.68">diversidad, interacciones </tspan><tspan x="0" y="43.35">y cambios</tspan></text>
    <text class="cls-1" transform="translate(404.07 166.5)"><tspan x="0" y="0">Materiales: </tspan><tspan x="0" y="21.68">composición,</tspan><tspan x="0" y="43.35">propiedades </tspan><tspan x="0" y="65.03">y cambios</tspan></text>
    <text class="cls-1" transform="translate(259.82 355.29)"><tspan x="0" y="0">Los fenómenos </tspan><tspan x="0" y="26.4">del mundo físico: </tspan><tspan x="0" y="52.8">movimiento, fuerzas, </tspan><tspan x="0" y="79.2">energía, luz y sonido</tspan></text>
    <text class="cls-1" transform="translate(0 166.5)"><tspan x="0" y="0">La Tierra, </tspan><tspan x="0" y="21.68">el universo</tspan><tspan x="0" y="43.35">y sus cambios</tspan></text>
  </g>
</svg>
