<?xml version="1.0" encoding="UTF-8"?>
<svg id="Capa_2" data-name="Capa 2" xmlns="http://www.w3.org/2000/svg" viewBox="0 0 527.5 404.65">
  <defs>
    <style>
      .cls-1 {
        fill: #15826d;
      }

      .cls-2, .cls-3 {
        fill: #20baa1;
      }

      .cls-4 {
        stroke-dasharray: 4.83 4.83;
      }

      .cls-4, .cls-5 {
        fill: none;
        stroke: #4b4a63;
        stroke-width: .69px;
      }

      .cls-4, .cls-5, .cls-6 {
        stroke-miterlimit: 10;
      }

      .cls-3 {
        font-family: InterTight-Regular, 'Inter Tight';
        font-size: 18px;
      }

      .cls-7, .cls-6 {
        fill: #fff;
      }

      .cls-5 {
        stroke-dasharray: 4.83;
      }

      .cls-6 {
        stroke: #20baa1;
        stroke-width: 3.92px;
      }
    </style>
  </defs>
  <g id="Capa_1-2" data-name="Capa 1">
    <path class="cls-5" d="M279.97,204.37c15.41,30.54,15.51,68.03-3.02,99.77-29.07,49.8-93.01,66.6-142.81,37.53-14.78-8.63-26.66-20.34-35.29-33.83"/>
    <path class="cls-5" d="M98.85,307.83c-34.15-1.97-66.64-20.67-84.82-52.61C-14.49,205.1,3.01,141.35,53.13,112.83c14.88-8.47,30.96-12.88,46.96-13.58"/>
    <path class="cls-5" d="M100.09,99.42c18.61-28.7,50.93-47.69,87.68-47.69,57.67,0,104.41,46.75,104.41,104.41,0,17.12-4.12,33.28-11.42,47.53"/>
    <circle class="cls-2" cx="162.88" cy="203.82" r="83.9"/>
    <g>
      <path class="cls-7" d="M133.34,182.54v-12.37h8.33v2.16h-5.73v2.91h5.3v2.12h-5.3v3.03h5.74v2.16h-8.35Z"/>
      <path class="cls-7" d="M143.49,173.26h2.56v9.75c0,.71-.14,1.29-.42,1.73-.28.44-.69.76-1.21.97-.53.2-1.15.31-1.88.31h-.52v-2.01h.33c.42,0,.71-.09.88-.26s.25-.43.26-.78v-9.7ZM144.76,172.07c-.38,0-.71-.13-.98-.38s-.41-.56-.41-.92.14-.67.41-.92c.27-.25.6-.38.98-.38s.72.13.99.38c.27.25.41.56.41.92s-.14.67-.41.92c-.27.25-.6.38-.99.38Z"/>
      <path class="cls-7" d="M152.13,182.72c-.95,0-1.77-.19-2.46-.58-.69-.39-1.22-.94-1.59-1.66-.37-.72-.55-1.56-.55-2.54s.18-1.79.55-2.51.89-1.28,1.56-1.69c.67-.4,1.46-.61,2.37-.61.62,0,1.19.1,1.72.29.53.2,1,.49,1.39.88.4.39.71.88.93,1.47.22.59.33,1.28.33,2.07v.7h-7.84v-1.59h6.59l-1.2.42c0-.47-.07-.88-.22-1.23s-.36-.62-.64-.81c-.29-.19-.64-.29-1.06-.29s-.78.1-1.07.29c-.29.19-.51.46-.67.79s-.23.71-.23,1.15v1.12c0,.5.09.93.27,1.29.18.36.42.63.74.82.32.19.68.29,1.1.29.29,0,.55-.04.78-.12s.43-.2.6-.37.29-.35.38-.58l2.37.16c-.12.57-.36,1.07-.73,1.49-.37.42-.84.75-1.42.99-.58.23-1.25.35-2.02.35Z"/>
      <path class="cls-7" d="M165.52,175.91l-2.35.14c-.06-.29-.22-.55-.49-.76-.27-.21-.62-.32-1.07-.32-.4,0-.73.08-1,.25s-.4.39-.4.66c0,.22.09.41.26.57.17.16.47.28.9.37l1.68.33c.9.18,1.57.48,2.02.89.44.41.66.95.66,1.62,0,.61-.18,1.15-.53,1.61-.35.46-.84.81-1.46,1.07-.62.26-1.33.39-2.13.39-1.23,0-2.21-.26-2.93-.77s-1.15-1.21-1.27-2.09l2.52-.13c.08.38.27.66.56.85s.67.29,1.13.29.81-.09,1.09-.27.42-.4.42-.67c0-.46-.4-.77-1.2-.93l-1.6-.33c-.9-.18-1.57-.5-2.02-.94s-.66-1.01-.66-1.7c0-.6.16-1.11.49-1.54.33-.43.79-.76,1.37-1,.59-.23,1.28-.35,2.07-.35,1.17,0,2.1.25,2.77.74.67.5,1.06,1.17,1.17,2.02Z"/>
      <path class="cls-7" d="M174.26,182.69c-.71,0-1.35-.18-1.92-.55s-1.02-.9-1.35-1.61c-.33-.71-.5-1.58-.5-2.61s.17-1.95.52-2.66c.34-.71.8-1.24,1.37-1.59.57-.35,1.19-.53,1.87-.53.52,0,.96.09,1.3.26.35.17.63.39.85.65s.38.52.49.77h.07v-4.66h2.57v12.37h-2.53v-1.49h-.12c-.12.25-.29.51-.51.76-.22.25-.5.46-.85.63s-.77.25-1.27.25ZM175.07,180.65c.42,0,.77-.11,1.06-.34.29-.23.51-.55.66-.96s.23-.89.23-1.44-.08-1.03-.22-1.44c-.15-.41-.37-.72-.66-.95-.29-.22-.65-.34-1.06-.34s-.77.12-1.06.35-.51.55-.66.96c-.15.41-.22.88-.22,1.42s.08,1.01.22,1.42c.15.41.37.73.66.97.29.23.64.35,1.06.35Z"/>
      <path class="cls-7" d="M185.6,182.72c-.95,0-1.77-.19-2.46-.58-.69-.39-1.22-.94-1.59-1.66-.37-.72-.55-1.56-.55-2.54s.18-1.79.55-2.51.89-1.28,1.56-1.69c.67-.4,1.46-.61,2.37-.61.62,0,1.19.1,1.72.29.53.2,1,.49,1.39.88.4.39.71.88.93,1.47.22.59.33,1.28.33,2.07v.7h-7.84v-1.59h6.59l-1.2.42c0-.47-.07-.88-.22-1.23s-.36-.62-.64-.81c-.29-.19-.64-.29-1.06-.29s-.78.1-1.07.29c-.29.19-.51.46-.67.79s-.23.71-.23,1.15v1.12c0,.5.09.93.27,1.29.18.36.42.63.74.82.32.19.68.29,1.1.29.29,0,.55-.04.78-.12s.43-.2.6-.37.29-.35.38-.58l2.37.16c-.12.57-.36,1.07-.73,1.49-.37.42-.84.75-1.42.99-.58.23-1.25.35-2.02.35Z"/>
      <path class="cls-7" d="M127.23,203.12c-.95,0-1.76-.2-2.44-.61-.68-.41-1.2-.97-1.57-1.68-.37-.72-.55-1.55-.55-2.49s.18-1.79.55-2.51.89-1.28,1.57-1.69c.68-.4,1.49-.61,2.43-.61.81,0,1.51.15,2.12.44.61.29,1.09.71,1.44,1.24.35.53.55,1.16.58,1.88h-2.42c-.04-.31-.14-.58-.28-.81-.14-.23-.33-.41-.57-.54s-.51-.19-.83-.19c-.4,0-.75.11-1.04.32-.3.21-.53.53-.69.94-.16.41-.25.91-.25,1.5s.08,1.09.25,1.51.39.74.69.96.64.33,1.04.33c.44,0,.82-.14,1.12-.42.3-.28.49-.67.56-1.16h2.42c-.04.71-.23,1.33-.57,1.87-.34.54-.82.96-1.42,1.26s-1.32.45-2.15.45Z"/>
      <path class="cls-7" d="M137,203.12c-.94,0-1.74-.2-2.43-.6-.68-.4-1.21-.96-1.58-1.68-.37-.72-.55-1.55-.55-2.5s.18-1.8.55-2.52c.37-.72.89-1.28,1.58-1.68.68-.4,1.49-.6,2.43-.6s1.75.2,2.44.6c.68.4,1.21.96,1.58,1.68.37.72.55,1.56.55,2.52s-.18,1.79-.55,2.5c-.37.72-.89,1.28-1.58,1.68-.68.4-1.5.6-2.44.6ZM137.02,201.11c.43,0,.78-.12,1.07-.36.29-.24.51-.57.65-.99s.22-.9.22-1.44-.07-1.02-.22-1.44-.36-.74-.65-.98c-.29-.24-.64-.36-1.07-.36s-.79.12-1.08.36c-.29.24-.51.56-.66.98s-.22.89-.22,1.44.07,1.02.22,1.44.37.75.66.99c.29.24.65.36,1.08.36Z"/>
      <path class="cls-7" d="M145.61,197.58v5.36h-2.56v-9.28h2.52v1.65h.09c.21-.55.54-.98,1-1.29.46-.32,1.03-.47,1.73-.47.64,0,1.2.14,1.68.42s.85.68,1.12,1.2.4,1.14.4,1.87v5.9h-2.56v-5.45c0-.56-.15-1.01-.44-1.33-.29-.32-.7-.49-1.21-.49-.34,0-.65.08-.91.23-.27.15-.47.37-.62.65-.15.28-.22.62-.22,1.02Z"/>
      <path class="cls-7" d="M158.36,193.66v1.94h-5.59v-1.94h5.59ZM154.04,191.45h2.56v8.63c0,.31.07.54.21.68.14.15.36.22.66.22.1,0,.21,0,.33-.02s.23-.04.32-.06l.41,1.93c-.28.08-.55.14-.82.18s-.52.06-.78.06c-.92,0-1.64-.23-2.14-.69-.5-.46-.76-1.11-.76-1.95v-8.97Z"/>
      <path class="cls-7" d="M164.04,203.12c-.95,0-1.77-.19-2.46-.58-.69-.39-1.22-.94-1.59-1.66-.37-.72-.55-1.56-.55-2.54s.18-1.79.55-2.51.89-1.28,1.56-1.69c.67-.4,1.46-.61,2.37-.61.62,0,1.19.1,1.72.29.53.2,1,.49,1.39.88.4.39.71.88.93,1.47.22.59.33,1.28.33,2.07v.7h-7.84v-1.59h6.59l-1.2.42c0-.47-.07-.88-.22-1.23s-.36-.62-.64-.81c-.29-.19-.64-.29-1.06-.29s-.78.1-1.07.29c-.29.19-.51.46-.67.79s-.23.71-.23,1.15v1.12c0,.5.09.93.27,1.29.18.36.42.63.74.82.32.19.68.29,1.1.29.29,0,.55-.04.78-.12s.43-.2.6-.37.29-.35.38-.58l2.37.16c-.12.57-.36,1.07-.73,1.49-.37.42-.84.75-1.42.99-.58.23-1.25.35-2.02.35Z"/>
      <path class="cls-7" d="M172.3,197.58v5.36h-2.56v-9.28h2.52v1.65h.09c.21-.55.54-.98,1-1.29.46-.32,1.03-.47,1.73-.47.64,0,1.2.14,1.68.42s.85.68,1.12,1.2.4,1.14.4,1.87v5.9h-2.56v-5.45c0-.56-.15-1.01-.44-1.33-.29-.32-.7-.49-1.21-.49-.34,0-.65.08-.91.23-.27.15-.47.37-.62.65-.15.28-.22.62-.22,1.02Z"/>
      <path class="cls-7" d="M181.4,192.47c-.38,0-.71-.13-.98-.38-.27-.25-.41-.56-.41-.92s.14-.67.41-.92c.27-.25.6-.38.98-.38s.72.13.99.38c.27.25.41.56.41.92s-.13.67-.41.92-.6.38-.99.38ZM180.12,202.94v-9.28h2.56v9.28h-2.56Z"/>
      <path class="cls-7" d="M187.93,203.09c-.71,0-1.35-.18-1.92-.55s-1.02-.9-1.35-1.61c-.33-.71-.5-1.58-.5-2.61s.17-1.95.52-2.66c.34-.71.8-1.24,1.37-1.59.57-.35,1.19-.53,1.87-.53.52,0,.96.09,1.3.26.35.17.63.39.85.65s.38.52.49.77h.07v-4.66h2.57v12.37h-2.53v-1.49h-.12c-.12.25-.29.51-.51.76-.22.25-.5.46-.85.63s-.77.25-1.27.25ZM188.73,201.05c.42,0,.77-.11,1.06-.34.29-.23.51-.55.66-.96s.23-.89.23-1.44-.08-1.03-.22-1.44c-.15-.41-.37-.72-.66-.95-.29-.22-.65-.34-1.06-.34s-.77.12-1.06.35-.51.55-.66.96c-.15.41-.22.88-.22,1.42s.08,1.01.22,1.42c.15.41.37.73.66.97.29.23.64.35,1.06.35Z"/>
      <path class="cls-7" d="M199.21,203.12c-.94,0-1.74-.2-2.43-.6-.68-.4-1.21-.96-1.58-1.68-.37-.72-.55-1.55-.55-2.5s.18-1.8.55-2.52c.37-.72.89-1.28,1.58-1.68.68-.4,1.49-.6,2.43-.6s1.75.2,2.44.6c.68.4,1.21.96,1.58,1.68.37.72.55,1.56.55,2.52s-.18,1.79-.55,2.5c-.37.72-.89,1.28-1.58,1.68-.68.4-1.5.6-2.44.6ZM199.23,201.11c.43,0,.78-.12,1.07-.36.29-.24.51-.57.65-.99s.22-.9.22-1.44-.07-1.02-.22-1.44-.36-.74-.65-.98c-.29-.24-.64-.36-1.07-.36s-.79.12-1.08.36c-.29.24-.51.56-.66.98s-.22.89-.22,1.44.07,1.02.22,1.44.37.75.66.99c.29.24.65.36,1.08.36Z"/>
      <path class="cls-1" d="M113.71,223.52c-.95,0-1.77-.19-2.46-.58-.69-.39-1.22-.94-1.59-1.66-.37-.72-.55-1.56-.55-2.54s.18-1.79.55-2.51.89-1.28,1.56-1.69c.67-.4,1.46-.61,2.37-.61.62,0,1.19.1,1.72.29.53.2,1,.49,1.39.88.4.39.71.88.93,1.47.22.59.33,1.28.33,2.07v.7h-7.84v-1.59h6.59l-1.2.42c0-.47-.07-.88-.22-1.23s-.36-.62-.64-.81c-.29-.19-.64-.29-1.06-.29s-.78.1-1.07.29c-.29.19-.51.46-.67.79s-.23.71-.23,1.15v1.12c0,.5.09.93.27,1.29.18.36.42.63.74.82.32.19.68.29,1.1.29.29,0,.55-.04.78-.12s.43-.2.6-.37.29-.35.38-.58l2.37.16c-.12.57-.36,1.07-.73,1.49-.37.42-.84.75-1.42.99-.58.23-1.25.35-2.02.35Z"/>
      <path class="cls-1" d="M121.96,217.98v5.36h-2.56v-9.28h2.52v1.65h.09c.21-.55.54-.98,1-1.29.46-.32,1.03-.47,1.73-.47.64,0,1.2.14,1.68.42s.85.68,1.12,1.2.4,1.14.4,1.87v5.9h-2.56v-5.45c0-.56-.15-1.01-.44-1.33-.29-.32-.7-.49-1.21-.49-.34,0-.65.08-.91.23-.27.15-.47.37-.62.65-.15.28-.22.62-.22,1.02Z"/>
      <path class="cls-1" d="M133.55,223.34v-12.37h8.33v2.16h-5.73v2.91h5.3v2.12h-5.3v3.03h5.74v2.16h-8.35Z"/>
      <path class="cls-1" d="M147.09,223.49c-.71,0-1.35-.18-1.92-.55s-1.02-.9-1.35-1.61c-.33-.71-.5-1.58-.5-2.61s.17-1.95.52-2.66c.34-.71.8-1.24,1.37-1.59.57-.35,1.19-.53,1.87-.53.52,0,.96.09,1.3.26.35.17.63.39.85.65s.38.52.49.77h.07v-4.66h2.57v12.37h-2.53v-1.49h-.12c-.12.25-.29.51-.51.76-.22.25-.5.46-.85.63s-.77.25-1.27.25ZM147.9,221.45c.42,0,.77-.11,1.06-.34.29-.23.51-.55.66-.96s.23-.89.23-1.44-.08-1.03-.22-1.44c-.15-.41-.37-.72-.66-.95-.29-.22-.65-.34-1.06-.34s-.77.12-1.06.35-.51.55-.66.96c-.15.41-.22.88-.22,1.42s.08,1.01.22,1.42c.15.41.37.73.66.97.29.23.64.35,1.06.35Z"/>
      <path class="cls-1" d="M160.15,219.4v-5.34h2.56v9.28h-2.46v-1.69h-.1c-.21.54-.56.97-1.04,1.31-.48.33-1.07.5-1.77.49-.62,0-1.17-.14-1.64-.42-.47-.28-.84-.68-1.1-1.2s-.39-1.14-.39-1.87v-5.91h2.56v5.46c0,.54.15.97.44,1.29.29.32.68.47,1.17.47.31,0,.6-.07.86-.21.27-.14.48-.35.65-.63s.25-.63.25-1.04Z"/>
      <path class="cls-1" d="M168.74,223.52c-.95,0-1.76-.2-2.44-.61-.68-.41-1.2-.97-1.57-1.68-.37-.72-.55-1.55-.55-2.49s.18-1.79.55-2.51.89-1.28,1.57-1.69c.68-.4,1.49-.61,2.43-.61.81,0,1.51.15,2.12.44.61.29,1.09.71,1.44,1.24.35.53.55,1.16.58,1.88h-2.42c-.04-.31-.14-.58-.28-.81-.14-.23-.33-.41-.57-.54s-.51-.19-.83-.19c-.4,0-.75.11-1.04.32-.3.21-.53.53-.69.94-.16.41-.25.91-.25,1.5s.08,1.09.25,1.51.39.74.69.96.64.33,1.04.33c.44,0,.82-.14,1.12-.42.3-.28.49-.67.56-1.16h2.42c-.04.71-.23,1.33-.57,1.87-.34.54-.82.96-1.42,1.26s-1.32.45-2.15.45Z"/>
      <path class="cls-1" d="M176.97,223.51c-.59,0-1.11-.1-1.58-.31-.47-.21-.83-.52-1.1-.93s-.4-.92-.4-1.53c0-.52.09-.95.28-1.3.19-.35.45-.63.77-.84.33-.22.7-.38,1.11-.49.41-.11.85-.19,1.32-.23.54-.05.97-.1,1.29-.15s.57-.13.72-.23c.15-.1.23-.25.23-.44v-.04c0-.38-.12-.68-.36-.89-.24-.21-.58-.32-1.02-.32-.46,0-.83.1-1.1.3-.27.2-.46.46-.54.77l-2.38-.19c.12-.56.36-1.05.71-1.46.35-.41.81-.73,1.37-.96.56-.22,1.21-.34,1.96-.34.51,0,1.01.06,1.48.18s.89.31,1.26.56c.37.25.66.58.88.98.21.4.32.87.32,1.42v6.26h-2.45v-1.29h-.07c-.15.29-.35.55-.6.77-.25.22-.55.39-.9.51-.35.12-.75.19-1.21.19ZM177.71,221.74c.38,0,.71-.08,1-.23.29-.15.52-.36.68-.61.16-.26.25-.55.25-.87v-.99c-.08.05-.19.1-.33.14-.14.04-.3.08-.47.12s-.34.06-.51.09c-.17.02-.33.05-.46.07-.3.04-.57.11-.8.21-.23.1-.4.23-.53.39-.12.16-.19.37-.19.61,0,.35.13.61.38.8s.58.27.98.27Z"/>
      <path class="cls-1" d="M188.21,223.52c-.95,0-1.76-.2-2.44-.61-.68-.41-1.2-.97-1.57-1.68-.37-.72-.55-1.55-.55-2.49s.18-1.79.55-2.51.89-1.28,1.57-1.69c.68-.4,1.49-.61,2.43-.61.81,0,1.51.15,2.12.44.61.29,1.09.71,1.44,1.24.35.53.55,1.16.58,1.88h-2.42c-.04-.31-.14-.58-.28-.81-.14-.23-.33-.41-.57-.54s-.51-.19-.83-.19c-.4,0-.75.11-1.04.32-.3.21-.53.53-.69.94-.16.41-.25.91-.25,1.5s.08,1.09.25,1.51.39.74.69.96.64.33,1.04.33c.44,0,.82-.14,1.12-.42.3-.28.49-.67.56-1.16h2.42c-.04.71-.23,1.33-.57,1.87-.34.54-.82.96-1.42,1.26s-1.32.45-2.15.45Z"/>
      <path class="cls-1" d="M195.08,212.87c-.38,0-.71-.13-.98-.38-.27-.25-.41-.56-.41-.92s.14-.67.41-.92c.27-.25.6-.38.98-.38s.72.13.99.38c.27.25.41.56.41.92s-.13.67-.41.92-.6.38-.99.38ZM193.81,223.34v-9.28h2.56v9.28h-2.56Z"/>
      <path class="cls-1" d="M202.4,223.52c-.94,0-1.74-.2-2.43-.6-.68-.4-1.21-.96-1.58-1.68-.37-.72-.55-1.55-.55-2.5s.18-1.8.55-2.52c.37-.72.89-1.28,1.58-1.68.68-.4,1.49-.6,2.43-.6s1.75.2,2.44.6c.68.4,1.21.96,1.58,1.68.37.72.55,1.56.55,2.52s-.18,1.79-.55,2.5c-.37.72-.89,1.28-1.58,1.68-.68.4-1.5.6-2.44.6ZM202.41,221.51c.43,0,.78-.12,1.07-.36.29-.24.51-.57.65-.99s.22-.9.22-1.44-.07-1.02-.22-1.44-.36-.74-.65-.98c-.29-.24-.64-.36-1.07-.36s-.79.12-1.08.36c-.29.24-.51.56-.66.98s-.22.89-.22,1.44.07,1.02.22,1.44.37.75.66.99c.29.24.65.36,1.08.36ZM201.45,212.91l1.15-2.53h2.36l-1.73,2.53h-1.79Z"/>
      <path class="cls-1" d="M211,217.98v5.36h-2.56v-9.28h2.52v1.65h.09c.21-.55.54-.98,1-1.29.46-.32,1.03-.47,1.73-.47.64,0,1.2.14,1.68.42s.85.68,1.12,1.2.4,1.14.4,1.87v5.9h-2.56v-5.45c0-.56-.15-1.01-.44-1.33-.29-.32-.7-.49-1.21-.49-.34,0-.65.08-.91.23-.27.15-.47.37-.62.65-.15.28-.22.62-.22,1.02Z"/>
      <path class="cls-1" d="M140.52,243.74v-12.37h8.18v2.16h-5.58v3.4h5.04v2.12h-5.04v4.7h-2.61Z"/>
      <path class="cls-1" d="M150.2,243.74v-9.28h2.56v9.28h-2.56ZM150.54,233.31l1.15-2.53h2.36l-1.73,2.53h-1.78Z"/>
      <path class="cls-1" d="M162.32,237.11l-2.35.14c-.06-.29-.22-.55-.49-.76-.27-.21-.62-.32-1.07-.32-.4,0-.73.08-1,.25s-.4.39-.4.66c0,.22.09.41.26.57.17.16.47.28.9.37l1.68.33c.9.18,1.57.48,2.02.89.44.41.66.95.66,1.62,0,.61-.18,1.15-.53,1.61-.35.46-.84.81-1.46,1.07-.62.26-1.33.39-2.13.39-1.23,0-2.21-.26-2.93-.77s-1.15-1.21-1.27-2.09l2.52-.13c.08.38.27.66.56.85s.67.29,1.13.29.81-.09,1.09-.27.42-.4.42-.67c0-.46-.4-.77-1.2-.93l-1.6-.33c-.9-.18-1.57-.5-2.02-.94s-.66-1.01-.66-1.7c0-.6.16-1.11.49-1.54.33-.43.79-.76,1.37-1,.59-.23,1.28-.35,2.07-.35,1.17,0,2.1.25,2.77.74.67.5,1.06,1.17,1.17,2.02Z"/>
      <path class="cls-1" d="M165.23,233.27c-.38,0-.71-.13-.98-.38-.27-.25-.41-.56-.41-.92s.14-.67.41-.92c.27-.25.6-.38.98-.38s.72.13.99.38c.27.25.41.56.41.92s-.13.67-.41.92-.6.38-.99.38ZM163.95,243.74v-9.28h2.56v9.28h-2.56Z"/>
      <path class="cls-1" d="M172.54,243.92c-.95,0-1.76-.2-2.44-.61-.68-.41-1.2-.97-1.57-1.68-.37-.72-.55-1.55-.55-2.49s.18-1.79.55-2.51.89-1.28,1.57-1.69c.68-.4,1.49-.61,2.43-.61.81,0,1.51.15,2.12.44.61.29,1.09.71,1.44,1.24.35.53.55,1.16.58,1.88h-2.42c-.04-.31-.14-.58-.28-.81-.14-.23-.33-.41-.57-.54s-.51-.19-.83-.19c-.4,0-.75.11-1.04.32-.3.21-.53.53-.69.94-.16.41-.25.91-.25,1.5s.08,1.09.25,1.51.39.74.69.96.64.33,1.04.33c.44,0,.82-.14,1.12-.42.3-.28.49-.67.56-1.16h2.42c-.04.71-.23,1.33-.57,1.87-.34.54-.82.96-1.42,1.26s-1.32.45-2.15.45Z"/>
      <path class="cls-1" d="M180.77,243.91c-.59,0-1.11-.1-1.58-.31-.47-.21-.83-.52-1.1-.93s-.4-.92-.4-1.53c0-.52.09-.95.28-1.3.19-.35.45-.63.77-.84.33-.22.7-.38,1.11-.49.41-.11.85-.19,1.32-.23.54-.05.97-.1,1.29-.15s.57-.13.72-.23c.15-.1.23-.25.23-.44v-.04c0-.38-.12-.68-.36-.89-.24-.21-.58-.32-1.02-.32-.46,0-.83.1-1.1.3-.27.2-.46.46-.54.77l-2.38-.19c.12-.56.36-1.05.71-1.46.35-.41.81-.73,1.37-.96.56-.22,1.21-.34,1.96-.34.51,0,1.01.06,1.48.18s.89.31,1.26.56c.37.25.66.58.88.98.21.4.32.87.32,1.42v6.26h-2.45v-1.29h-.07c-.15.29-.35.55-.6.77-.25.22-.55.39-.9.51-.35.12-.75.19-1.21.19ZM181.51,242.14c.38,0,.71-.08,1-.23.29-.15.52-.36.68-.61.16-.26.25-.55.25-.87v-.99c-.08.05-.19.1-.33.14-.14.04-.3.08-.47.12s-.34.06-.51.09c-.17.02-.33.05-.46.07-.3.04-.57.11-.8.21-.23.1-.4.23-.53.39-.12.16-.19.37-.19.61,0,.35.13.61.38.8s.58.27.98.27Z"/>
    </g>
    <g>
      <circle class="cls-4" cx="158.68" cy="203.82" r="119.94"/>
      <circle class="cls-6" cx="98.69" cy="307.7" r="8.4"/>
      <circle class="cls-6" cx="278.62" cy="203.82" r="8.4"/>
      <circle class="cls-6" cx="98.69" cy="99.95" r="8.4"/>
    </g>
    <text class="cls-3" transform="translate(294.68 208.79)"><tspan x="0" y="0">Prácticas corporales motrices </tspan><tspan x="0" y="21.6">y ludomotrices en interacción </tspan><tspan x="0" y="43.2">con otras personas.</tspan></text>
    <rect class="cls-7" x="26.39" y="332.41" width="220.4" height="9.69"/>
    <rect class="cls-7" x="26.39" y="350.48" width="220.4" height="10.68"/>
    <rect class="cls-7" x="85.94" y="59.67" width="220.4" height="12.33"/>
    <rect class="cls-7" x="85.94" y="48.57" width="220.4" height="13.49"/>
    <g>
      <path class="cls-2" d="M91.45,15.55V2.45h4.43c1.03,0,1.86.18,2.52.55s1.14.87,1.46,1.49.47,1.33.47,2.1-.16,1.47-.47,2.1-.8,1.14-1.45,1.51c-.65.37-1.49.56-2.51.56h-3.16v-1.41h3.11c.7,0,1.27-.12,1.7-.36s.74-.57.93-.99.29-.89.29-1.41-.1-1-.29-1.41-.5-.74-.94-.98c-.43-.24-1-.36-1.71-.36h-2.79v11.69h-1.58Z"/>
      <path class="cls-2" d="M101.84,15.55V5.72h1.44v1.49h.11c.18-.49.51-.88.98-1.18.47-.3,1-.45,1.59-.45.11,0,.25,0,.41,0s.29,0,.38.01v1.53c-.05-.01-.17-.03-.35-.05s-.38-.04-.58-.04c-.47,0-.9.1-1.27.3s-.67.47-.88.82-.32.74-.32,1.19v6.21h-1.49Z"/>
      <path class="cls-2" d="M110.57,15.78c-.62,0-1.19-.12-1.7-.36s-.91-.58-1.21-1.03-.45-1-.45-1.63c0-.56.11-1.02.33-1.37s.52-.62.89-.83c.37-.2.78-.35,1.23-.45.45-.1.9-.18,1.36-.24.6-.08,1.08-.13,1.46-.18.37-.04.64-.11.82-.21s.26-.27.26-.51v-.05c0-.63-.17-1.11-.51-1.46-.34-.35-.86-.52-1.56-.52s-1.28.16-1.69.47-.7.65-.86,1.01l-1.44-.51c.26-.6.6-1.06,1.03-1.4.43-.33.9-.57,1.41-.7.51-.13,1.01-.2,1.5-.2.32,0,.68.04,1.09.11s.81.23,1.2.46.71.58.97,1.05c.26.47.38,1.09.38,1.87v6.47h-1.51v-1.34h-.07c-.1.21-.27.44-.51.68s-.56.45-.95.62c-.4.17-.88.26-1.46.26ZM110.8,14.42c.6,0,1.1-.12,1.51-.35s.72-.54.93-.91.32-.76.32-1.16v-1.39c-.06.08-.2.15-.42.21s-.46.12-.74.16-.55.09-.81.12-.47.06-.63.07c-.39.05-.76.14-1.1.25s-.61.28-.82.51c-.21.22-.31.53-.31.91,0,.52.19.92.58,1.18s.89.4,1.49.4ZM110.8,4.49l1.23-2.41h1.71l-1.69,2.41h-1.25Z"/>
      <path class="cls-2" d="M120.98,15.76c-.91,0-1.7-.22-2.37-.65s-1.18-1.04-1.54-1.8c-.36-.76-.54-1.63-.54-2.61s.18-1.89.55-2.65.89-1.36,1.55-1.8c.66-.43,1.44-.65,2.32-.65.69,0,1.31.13,1.87.38.55.25,1.01.61,1.36,1.08.35.46.57,1,.65,1.62h-1.51c-.08-.3-.21-.58-.41-.84s-.46-.48-.79-.64c-.33-.16-.71-.24-1.16-.24-.59,0-1.1.15-1.54.46s-.78.73-1.03,1.29-.37,1.2-.37,1.95.12,1.42.36,1.98.58,1,1.02,1.31c.44.31.96.47,1.55.47s1.1-.15,1.52-.46.7-.73.83-1.26h1.51c-.08.58-.29,1.1-.63,1.56s-.78.83-1.33,1.1c-.55.27-1.19.41-1.91.41Z"/>
      <path class="cls-2" d="M130.52,5.72v1.28h-5.08v-1.28h5.08ZM126.92,3.38h1.49v9.35c0,.51.11.88.32,1.12s.54.36,1,.36c.1,0,.2,0,.31-.02.11-.01.23-.03.36-.05l.32,1.35c-.14.05-.31.1-.51.13-.2.03-.41.05-.61.05-.79,0-1.43-.23-1.93-.7s-.74-1.08-.74-1.83V3.38Z"/>
      <path class="cls-2" d="M132.72,4.09c-.29,0-.54-.1-.76-.3s-.32-.44-.32-.72.11-.52.32-.72.46-.3.76-.3.54.1.76.3.32.44.32.72-.11.52-.32.72-.46.3-.76.3ZM131.97,15.55V5.72h1.49v9.83h-1.49Z"/>
      <path class="cls-2" d="M139.37,15.76c-.91,0-1.7-.22-2.37-.65s-1.18-1.04-1.54-1.8c-.36-.76-.54-1.63-.54-2.61s.18-1.89.55-2.65.89-1.36,1.55-1.8c.66-.43,1.44-.65,2.32-.65.69,0,1.31.13,1.87.38.55.25,1.01.61,1.36,1.08.35.46.57,1,.65,1.62h-1.51c-.08-.3-.21-.58-.41-.84s-.46-.48-.79-.64c-.33-.16-.71-.24-1.16-.24-.59,0-1.1.15-1.54.46s-.78.73-1.03,1.29-.37,1.2-.37,1.95.12,1.42.36,1.98.58,1,1.02,1.31c.44.31.96.47,1.55.47s1.1-.15,1.52-.46.7-.73.83-1.26h1.51c-.08.58-.29,1.1-.63,1.56s-.78.83-1.33,1.1c-.55.27-1.19.41-1.91.41Z"/>
      <path class="cls-2" d="M147.54,15.78c-.62,0-1.19-.12-1.7-.36s-.91-.58-1.21-1.03-.45-1-.45-1.63c0-.56.11-1.02.33-1.37s.52-.62.89-.83c.37-.2.78-.35,1.23-.45.45-.1.9-.18,1.36-.24.6-.08,1.08-.13,1.46-.18.37-.04.64-.11.82-.21s.26-.27.26-.51v-.05c0-.63-.17-1.11-.51-1.46-.34-.35-.86-.52-1.56-.52s-1.28.16-1.69.47-.7.65-.86,1.01l-1.44-.51c.26-.6.6-1.06,1.03-1.4.43-.33.9-.57,1.41-.7.51-.13,1.01-.2,1.5-.2.32,0,.68.04,1.09.11s.81.23,1.2.46.71.58.97,1.05c.26.47.38,1.09.38,1.87v6.47h-1.51v-1.34h-.07c-.1.21-.27.44-.51.68s-.56.45-.95.62c-.4.17-.88.26-1.46.26ZM147.77,14.42c.6,0,1.1-.12,1.51-.35s.72-.54.93-.91.32-.76.32-1.16v-1.39c-.06.08-.2.15-.42.21s-.46.12-.74.16-.55.09-.81.12-.47.06-.63.07c-.39.05-.76.14-1.1.25s-.61.28-.82.51c-.21.22-.31.53-.31.91,0,.52.19.92.58,1.18s.89.4,1.49.4Z"/>
      <path class="cls-2" d="M160.92,7.94l-1.35.37c-.13-.33-.35-.65-.66-.95s-.8-.45-1.46-.45c-.6,0-1.1.14-1.49.42s-.6.63-.6,1.04c0,.38.14.67.41.9.27.22.7.4,1.28.54l1.46.35c.87.21,1.53.54,1.96.98.43.44.65,1,.65,1.68,0,.56-.16,1.07-.48,1.51s-.77.8-1.34,1.05-1.24.39-2,.39c-1,0-1.83-.22-2.48-.66-.65-.44-1.07-1.08-1.24-1.91l1.42-.35c.13.53.39.92.78,1.19s.89.4,1.51.4c.7,0,1.25-.15,1.67-.45s.63-.66.63-1.08c0-.69-.49-1.15-1.46-1.39l-1.63-.39c-.9-.22-1.56-.55-1.99-.99s-.63-1-.63-1.68c0-.56.16-1.05.47-1.48.31-.43.74-.76,1.29-1.01s1.16-.36,1.85-.36c.98,0,1.74.22,2.3.65.55.43.95.99,1.18,1.69Z"/>
      <path class="cls-2" d="M170.73,15.76c-.91,0-1.7-.22-2.37-.65s-1.18-1.04-1.54-1.8c-.36-.76-.54-1.63-.54-2.61s.18-1.89.55-2.65.89-1.36,1.55-1.8c.66-.43,1.44-.65,2.32-.65.69,0,1.31.13,1.87.38.55.25,1.01.61,1.36,1.08.35.46.57,1,.65,1.62h-1.51c-.08-.3-.21-.58-.41-.84s-.46-.48-.79-.64c-.33-.16-.71-.24-1.16-.24-.59,0-1.1.15-1.54.46s-.78.73-1.03,1.29-.37,1.2-.37,1.95.12,1.42.36,1.98.58,1,1.02,1.31c.44.31.96.47,1.55.47s1.1-.15,1.52-.46.7-.73.83-1.26h1.51c-.08.58-.29,1.1-.63,1.56s-.78.83-1.33,1.1c-.55.27-1.19.41-1.91.41Z"/>
      <path class="cls-2" d="M179.99,15.76c-.88,0-1.66-.21-2.33-.63s-1.19-1.01-1.56-1.78c-.37-.76-.56-1.65-.56-2.65s.19-1.92.56-2.69c.37-.76.89-1.36,1.56-1.78s1.44-.63,2.33-.63,1.67.21,2.34.63,1.19,1.02,1.56,1.78.56,1.66.56,2.69-.19,1.89-.56,2.65-.9,1.35-1.56,1.78-1.45.63-2.34.63ZM179.99,14.41c.68,0,1.24-.17,1.67-.52s.76-.8.97-1.37.32-1.17.32-1.82-.11-1.28-.32-1.85-.53-1.03-.97-1.38-.99-.52-1.67-.52-1.22.17-1.65.52-.76.81-.97,1.38-.32,1.18-.32,1.85.11,1.26.32,1.82.53,1.02.97,1.37.98.52,1.65.52Z"/>
      <path class="cls-2" d="M185.91,15.55V5.72h1.44v1.49h.11c.18-.49.51-.88.98-1.18.47-.3,1-.45,1.59-.45.11,0,.25,0,.41,0s.29,0,.38.01v1.53c-.05-.01-.17-.03-.35-.05s-.38-.04-.58-.04c-.47,0-.9.1-1.27.3s-.67.47-.88.82-.32.74-.32,1.19v6.21h-1.49Z"/>
      <path class="cls-2" d="M191.77,19.22V5.72h1.44v1.56h.18c.11-.17.27-.39.47-.65s.49-.51.86-.72.88-.32,1.52-.32c.83,0,1.55.21,2.18.62s1.12,1,1.47,1.76c.35.76.53,1.65.53,2.69s-.18,1.94-.53,2.7-.84,1.35-1.47,1.77-1.35.62-2.17.62c-.63,0-1.13-.11-1.51-.32s-.67-.46-.88-.73-.36-.5-.47-.67h-.12v5.19h-1.49ZM196.06,14.41c.63,0,1.15-.17,1.57-.51s.74-.79.95-1.36c.21-.57.32-1.2.32-1.9s-.11-1.32-.32-1.87-.53-1-.95-1.33-.95-.49-1.59-.49-1.13.15-1.55.46-.73.74-.95,1.29-.32,1.2-.32,1.94.11,1.39.33,1.96.53,1.01.95,1.33c.42.32.93.48,1.53.48Z"/>
      <path class="cls-2" d="M205.85,15.76c-.88,0-1.66-.21-2.33-.63s-1.19-1.01-1.56-1.78c-.37-.76-.56-1.65-.56-2.65s.19-1.92.56-2.69c.37-.76.89-1.36,1.56-1.78s1.44-.63,2.33-.63,1.67.21,2.34.63,1.19,1.02,1.56,1.78.56,1.66.56,2.69-.19,1.89-.56,2.65-.9,1.35-1.56,1.78-1.45.63-2.34.63ZM205.85,14.41c.68,0,1.24-.17,1.67-.52s.76-.8.97-1.37.32-1.17.32-1.82-.11-1.28-.32-1.85-.53-1.03-.97-1.38-.99-.52-1.67-.52-1.22.17-1.65.52-.76.81-.97,1.38-.32,1.18-.32,1.85.11,1.26.32,1.82.53,1.02.97,1.37.98.52,1.65.52Z"/>
      <path class="cls-2" d="M211.77,15.55V5.72h1.44v1.49h.11c.18-.49.51-.88.98-1.18.47-.3,1-.45,1.59-.45.11,0,.25,0,.41,0s.29,0,.38.01v1.53c-.05-.01-.17-.03-.35-.05s-.38-.04-.58-.04c-.47,0-.9.1-1.27.3s-.67.47-.88.82-.32.74-.32,1.19v6.21h-1.49Z"/>
      <path class="cls-2" d="M220.51,15.78c-.62,0-1.19-.12-1.7-.36s-.91-.58-1.21-1.03-.45-1-.45-1.63c0-.56.11-1.02.33-1.37s.52-.62.89-.83c.37-.2.78-.35,1.23-.45.45-.1.9-.18,1.36-.24.6-.08,1.08-.13,1.46-.18.37-.04.64-.11.82-.21s.26-.27.26-.51v-.05c0-.63-.17-1.11-.51-1.46-.34-.35-.86-.52-1.56-.52s-1.28.16-1.69.47-.7.65-.86,1.01l-1.44-.51c.26-.6.6-1.06,1.03-1.4.43-.33.9-.57,1.41-.7.51-.13,1.01-.2,1.5-.2.32,0,.68.04,1.09.11s.81.23,1.2.46.71.58.97,1.05c.26.47.38,1.09.38,1.87v6.47h-1.51v-1.34h-.07c-.1.21-.27.44-.51.68s-.56.45-.95.62c-.4.17-.88.26-1.46.26ZM220.73,14.42c.6,0,1.1-.12,1.51-.35s.72-.54.93-.91.32-.76.32-1.16v-1.39c-.06.08-.2.15-.42.21s-.46.12-.74.16-.55.09-.81.12-.47.06-.63.07c-.39.05-.76.14-1.1.25s-.61.28-.82.51c-.21.22-.31.53-.31.91,0,.52.19.92.58,1.18s.89.4,1.49.4Z"/>
      <path class="cls-2" d="M228.43,2.45v13.1h-1.49V2.45h1.49Z"/>
      <path class="cls-2" d="M234.48,15.76c-.94,0-1.76-.21-2.45-.63-.69-.42-1.22-1.01-1.59-1.77s-.55-1.64-.55-2.64.18-1.9.54-2.66.88-1.37,1.53-1.8c.66-.43,1.43-.65,2.32-.65.51,0,1.02.08,1.52.25s.96.45,1.38.83c.41.38.74.88.99,1.51s.37,1.4.37,2.31v.65h-7.58v-1.3h6.76l-.69.49c0-.66-.1-1.24-.31-1.75s-.51-.91-.92-1.2-.91-.44-1.52-.44-1.12.15-1.55.44c-.43.3-.76.68-.99,1.16s-.34.98-.34,1.53v.86c0,.74.13,1.37.39,1.89s.62.91,1.08,1.17,1,.4,1.61.4c.39,0,.75-.06,1.07-.17s.6-.29.83-.52.41-.52.54-.86l1.46.42c-.15.49-.41.92-.77,1.3-.36.37-.81.66-1.34.87s-1.13.31-1.79.31Z"/>
      <path class="cls-2" d="M246.91,7.94l-1.35.37c-.13-.33-.35-.65-.66-.95s-.8-.45-1.46-.45c-.6,0-1.1.14-1.49.42s-.6.63-.6,1.04c0,.38.14.67.41.9.27.22.7.4,1.28.54l1.46.35c.87.21,1.53.54,1.96.98.43.44.65,1,.65,1.68,0,.56-.16,1.07-.48,1.51s-.77.8-1.34,1.05-1.24.39-2,.39c-1,0-1.83-.22-2.48-.66-.65-.44-1.07-1.08-1.24-1.91l1.42-.35c.13.53.39.92.78,1.19s.89.4,1.51.4c.7,0,1.25-.15,1.67-.45s.63-.66.63-1.08c0-.69-.49-1.15-1.46-1.39l-1.63-.39c-.9-.22-1.56-.55-1.99-.99s-.63-1-.63-1.68c0-.56.16-1.05.47-1.48.31-.43.74-.76,1.29-1.01s1.16-.36,1.85-.36c.98,0,1.74.22,2.3.65.55.43.95.99,1.18,1.69Z"/>
      <path class="cls-2" d="M252.74,15.55V5.72h1.44v1.55h.14c.21-.53.54-.94.99-1.23s1-.44,1.64-.44,1.18.15,1.61.44c.43.29.77.7,1.01,1.23h.11c.26-.51.64-.92,1.14-1.22.5-.3,1.1-.45,1.8-.45.88,0,1.6.27,2.16.82s.84,1.4.84,2.55v6.57h-1.51v-6.57c0-.73-.2-1.25-.6-1.56s-.87-.47-1.41-.47c-.69,0-1.22.21-1.6.63-.38.42-.57.94-.57,1.57v6.4h-1.55v-6.73c0-.56-.18-1.01-.54-1.35s-.82-.51-1.4-.51c-.39,0-.76.11-1.1.32s-.61.5-.82.87c-.21.37-.31.79-.31,1.27v6.13h-1.49Z"/>
      <path class="cls-2" d="M271.54,15.76c-.88,0-1.66-.21-2.33-.63s-1.19-1.01-1.56-1.78c-.37-.76-.56-1.65-.56-2.65s.19-1.92.56-2.69c.37-.76.89-1.36,1.56-1.78s1.44-.63,2.33-.63,1.67.21,2.34.63,1.19,1.02,1.56,1.78.56,1.66.56,2.69-.19,1.89-.56,2.65-.9,1.35-1.56,1.78-1.45.63-2.34.63ZM271.54,14.41c.68,0,1.24-.17,1.67-.52s.76-.8.97-1.37.32-1.17.32-1.82-.11-1.28-.32-1.85-.53-1.03-.97-1.38-.99-.52-1.67-.52-1.22.17-1.65.52-.76.81-.97,1.38-.32,1.18-.32,1.85.11,1.26.32,1.82.53,1.02.97,1.37.98.52,1.65.52Z"/>
      <path class="cls-2" d="M281.71,5.72v1.28h-5.08v-1.28h5.08ZM278.11,3.38h1.49v9.35c0,.51.11.88.32,1.12s.54.36,1,.36c.1,0,.2,0,.31-.02.11-.01.23-.03.36-.05l.32,1.35c-.14.05-.31.1-.51.13-.2.03-.41.05-.61.05-.79,0-1.43-.23-1.93-.7s-.74-1.08-.74-1.83V3.38Z"/>
      <path class="cls-2" d="M283.15,15.55V5.72h1.44v1.49h.11c.18-.49.51-.88.98-1.18.47-.3,1-.45,1.59-.45.11,0,.25,0,.41,0s.29,0,.38.01v1.53c-.05-.01-.17-.03-.35-.05s-.38-.04-.58-.04c-.47,0-.9.1-1.27.3s-.67.47-.88.82-.32.74-.32,1.19v6.21h-1.49Z"/>
      <path class="cls-2" d="M289.76,4.09c-.29,0-.54-.1-.76-.3s-.32-.44-.32-.72.11-.52.32-.72.46-.3.76-.3.54.1.76.3.32.44.32.72-.11.52-.32.72-.46.3-.76.3ZM289.01,15.55V5.72h1.49v9.83h-1.49Z"/>
      <path class="cls-2" d="M296.41,15.76c-.91,0-1.7-.22-2.37-.65s-1.18-1.04-1.54-1.8c-.36-.76-.54-1.63-.54-2.61s.18-1.89.55-2.65.89-1.36,1.55-1.8c.66-.43,1.44-.65,2.32-.65.69,0,1.31.13,1.87.38.55.25,1.01.61,1.36,1.08.35.46.57,1,.65,1.62h-1.51c-.08-.3-.21-.58-.41-.84s-.46-.48-.79-.64c-.33-.16-.71-.24-1.16-.24-.59,0-1.1.15-1.54.46s-.78.73-1.03,1.29-.37,1.2-.37,1.95.12,1.42.36,1.98.58,1,1.02,1.31c.44.31.96.47,1.55.47s1.1-.15,1.52-.46.7-.73.83-1.26h1.51c-.08.58-.29,1.1-.63,1.56s-.78.83-1.33,1.1c-.55.27-1.19.41-1.91.41Z"/>
      <path class="cls-2" d="M305.81,15.76c-.94,0-1.76-.21-2.45-.63-.69-.42-1.22-1.01-1.59-1.77s-.55-1.64-.55-2.64.18-1.9.54-2.66.88-1.37,1.53-1.8c.66-.43,1.43-.65,2.32-.65.51,0,1.02.08,1.52.25s.96.45,1.38.83c.41.38.74.88.99,1.51s.37,1.4.37,2.31v.65h-7.58v-1.3h6.76l-.69.49c0-.66-.1-1.24-.31-1.75s-.51-.91-.92-1.2-.91-.44-1.52-.44-1.12.15-1.55.44c-.43.3-.76.68-.99,1.16s-.34.98-.34,1.53v.86c0,.74.13,1.37.39,1.89s.62.91,1.08,1.17,1,.4,1.61.4c.39,0,.75-.06,1.07-.17s.6-.29.83-.52.41-.52.54-.86l1.46.42c-.15.49-.41.92-.77,1.3-.36.37-.81.66-1.34.87s-1.13.31-1.79.31Z"/>
      <path class="cls-2" d="M318.24,7.94l-1.35.37c-.13-.33-.35-.65-.66-.95s-.8-.45-1.46-.45c-.6,0-1.1.14-1.49.42s-.6.63-.6,1.04c0,.38.14.67.41.9.27.22.7.4,1.28.54l1.46.35c.87.21,1.53.54,1.96.98.43.44.65,1,.65,1.68,0,.56-.16,1.07-.48,1.51s-.77.8-1.34,1.05-1.24.39-2,.39c-1,0-1.83-.22-2.48-.66-.65-.44-1.07-1.08-1.24-1.91l1.42-.35c.13.53.39.92.78,1.19s.89.4,1.51.4c.7,0,1.25-.15,1.67-.45s.63-.66.63-1.08c0-.69-.49-1.15-1.46-1.39l-1.63-.39c-.9-.22-1.56-.55-1.99-.99s-.63-1-.63-1.68c0-.56.16-1.05.47-1.48.31-.43.74-.76,1.29-1.01s1.16-.36,1.85-.36c.98,0,1.74.22,2.3.65.55.43.95.99,1.18,1.69Z"/>
      <path class="cls-2" d="M92.22,40.82c-.26,0-.49-.01-.69-.05s-.34-.08-.42-.12l.39-1.32.15.04c.5.12.93.09,1.27-.07.34-.17.64-.6.9-1.31l.28-.77-3.62-9.88h1.63l2.71,7.84h.11l2.71-7.84h1.63l-4.17,11.25c-.19.51-.42.93-.69,1.27s-.59.58-.96.74-.77.24-1.23.24Z"/>
      <path class="cls-2" d="M106.14,24.05v13.1h-1.49v-13.1h1.49Z"/>
      <path class="cls-2" d="M114.26,33.14v-5.82h1.49v9.83h-1.49v-1.67h-.11c-.23.5-.59.92-1.08,1.27-.48.35-1.1.52-1.84.52-.62,0-1.16-.13-1.63-.4s-.85-.68-1.12-1.23c-.27-.55-.41-1.25-.41-2.08v-6.24h1.49v6.15c0,.71.2,1.28.61,1.71.41.43.92.64,1.55.63.38,0,.76-.1,1.15-.29s.72-.48.98-.88.4-.9.4-1.51Z"/>
      <path class="cls-2" d="M121.38,37.36c-.82,0-1.54-.21-2.17-.62s-1.12-1.01-1.47-1.77-.53-1.67-.53-2.7.18-1.93.53-2.69.85-1.34,1.47-1.76,1.35-.62,2.18-.62c.64,0,1.15.11,1.53.32.37.21.66.45.86.72s.35.48.47.65h.12v-4.83h1.49v13.1h-1.44v-1.51h-.18c-.11.18-.27.4-.47.67s-.5.52-.88.73c-.38.21-.88.32-1.52.32ZM121.58,36.01c.61,0,1.12-.16,1.54-.48s.73-.76.95-1.33.33-1.22.33-1.96-.11-1.38-.32-1.94-.53-.98-.95-1.29-.94-.46-1.55-.46-1.16.16-1.58.49-.74.77-.95,1.33-.32,1.18-.32,1.87.11,1.33.32,1.9.53,1.02.95,1.36.95.51,1.57.51Z"/>
      <path class="cls-2" d="M131.77,37.36c-.88,0-1.66-.21-2.33-.63s-1.19-1.01-1.56-1.78c-.37-.76-.56-1.65-.56-2.65s.19-1.92.56-2.69c.37-.76.89-1.36,1.56-1.78s1.44-.63,2.33-.63,1.67.21,2.34.63,1.19,1.02,1.56,1.78.56,1.66.56,2.69-.19,1.89-.56,2.65-.9,1.35-1.56,1.78-1.45.63-2.34.63ZM131.77,36.01c.68,0,1.24-.17,1.67-.52s.76-.8.97-1.37.32-1.17.32-1.82-.11-1.28-.32-1.85-.53-1.03-.97-1.38-.99-.52-1.67-.52-1.22.17-1.65.52-.76.81-.97,1.38-.32,1.18-.32,1.85.11,1.26.32,1.82.53,1.02.97,1.37.98.52,1.65.52Z"/>
      <path class="cls-2" d="M137.7,37.15v-9.83h1.44v1.55h.14c.21-.53.54-.94.99-1.23s1-.44,1.64-.44,1.18.15,1.61.44c.43.29.77.7,1.01,1.23h.11c.26-.51.64-.92,1.14-1.22.5-.3,1.1-.45,1.8-.45.88,0,1.6.27,2.16.82s.84,1.4.84,2.55v6.57h-1.51v-6.57c0-.73-.2-1.25-.6-1.56s-.87-.47-1.41-.47c-.69,0-1.22.21-1.6.63-.38.42-.57.94-.57,1.57v6.4h-1.55v-6.73c0-.56-.18-1.01-.54-1.35s-.82-.51-1.4-.51c-.39,0-.76.11-1.1.32s-.61.5-.82.87c-.21.37-.31.79-.31,1.27v6.13h-1.49Z"/>
      <path class="cls-2" d="M156.49,37.36c-.88,0-1.66-.21-2.33-.63s-1.19-1.01-1.56-1.78c-.37-.76-.56-1.65-.56-2.65s.19-1.92.56-2.69c.37-.76.89-1.36,1.56-1.78s1.44-.63,2.33-.63,1.67.21,2.34.63,1.19,1.02,1.56,1.78.56,1.66.56,2.69-.19,1.89-.56,2.65-.9,1.35-1.56,1.78-1.45.63-2.34.63ZM156.49,36.01c.68,0,1.24-.17,1.67-.52s.76-.8.97-1.37.32-1.17.32-1.82-.11-1.28-.32-1.85-.53-1.03-.97-1.38-.99-.52-1.67-.52-1.22.17-1.65.52-.76.81-.97,1.38-.32,1.18-.32,1.85.11,1.26.32,1.82.53,1.02.97,1.37.98.52,1.65.52Z"/>
      <path class="cls-2" d="M166.66,27.32v1.28h-5.08v-1.28h5.08ZM163.06,24.98h1.49v9.35c0,.51.11.88.32,1.12s.54.36,1,.36c.1,0,.2,0,.31-.02.11-.01.23-.03.36-.05l.32,1.35c-.14.05-.31.1-.51.13-.2.03-.41.05-.61.05-.79,0-1.43-.23-1.93-.7s-.74-1.08-.74-1.83v-9.76Z"/>
      <path class="cls-2" d="M168.11,37.15v-9.83h1.44v1.49h.11c.18-.49.51-.88.98-1.18.47-.3,1-.45,1.59-.45.11,0,.25,0,.41,0s.29,0,.38.01v1.53c-.05-.01-.17-.03-.35-.05s-.38-.04-.58-.04c-.47,0-.9.1-1.27.3s-.67.47-.88.82-.32.74-.32,1.19v6.21h-1.49Z"/>
      <path class="cls-2" d="M174.72,25.69c-.29,0-.54-.1-.76-.3s-.32-.44-.32-.72.11-.52.32-.72.46-.3.76-.3.54.1.76.3.32.44.32.72-.11.52-.32.72-.46.3-.76.3ZM173.96,37.15v-9.83h1.49v9.83h-1.49Z"/>
      <path class="cls-2" d="M181.36,37.36c-.91,0-1.7-.22-2.37-.65s-1.18-1.04-1.54-1.8c-.36-.76-.54-1.63-.54-2.61s.18-1.89.55-2.65.89-1.36,1.55-1.8c.66-.43,1.44-.65,2.32-.65.69,0,1.31.13,1.87.38.55.25,1.01.61,1.36,1.08.35.46.57,1,.65,1.62h-1.51c-.08-.3-.21-.58-.41-.84s-.46-.48-.79-.64c-.33-.16-.71-.24-1.16-.24-.59,0-1.1.15-1.54.46s-.78.73-1.03,1.29-.37,1.2-.37,1.95.12,1.42.36,1.98.58,1,1.02,1.31c.44.31.96.47,1.55.47s1.1-.15,1.52-.46.7-.73.83-1.26h1.51c-.08.58-.29,1.1-.63,1.56s-.78.83-1.33,1.1c-.55.27-1.19.41-1.91.41Z"/>
      <path class="cls-2" d="M190.76,37.36c-.94,0-1.76-.21-2.45-.63-.69-.42-1.22-1.01-1.59-1.77s-.55-1.64-.55-2.64.18-1.9.54-2.66.88-1.37,1.53-1.8c.66-.43,1.43-.65,2.32-.65.51,0,1.02.08,1.52.25s.96.45,1.38.83c.41.38.74.88.99,1.51s.37,1.4.37,2.31v.65h-7.58v-1.3h6.76l-.69.49c0-.66-.1-1.24-.31-1.75s-.51-.91-.92-1.2-.91-.44-1.52-.44-1.12.15-1.55.44c-.43.3-.76.68-.99,1.16s-.34.98-.34,1.53v.86c0,.74.13,1.37.39,1.89s.62.91,1.08,1.17,1,.4,1.61.4c.39,0,.75-.06,1.07-.17s.6-.29.83-.52.41-.52.54-.86l1.46.42c-.15.49-.41.92-.77,1.3-.36.37-.81.66-1.34.87s-1.13.31-1.79.31Z"/>
      <path class="cls-2" d="M203.19,29.54l-1.35.37c-.13-.33-.35-.65-.66-.95s-.8-.45-1.46-.45c-.6,0-1.1.14-1.49.42s-.6.63-.6,1.04c0,.38.14.67.41.9.27.22.7.4,1.28.54l1.46.35c.87.21,1.53.54,1.96.98.43.44.65,1,.65,1.68,0,.56-.16,1.07-.48,1.51s-.77.8-1.34,1.05-1.24.39-2,.39c-1,0-1.83-.22-2.48-.66-.65-.44-1.07-1.08-1.24-1.91l1.42-.35c.13.53.39.92.78,1.19s.89.4,1.51.4c.7,0,1.25-.15,1.67-.45s.63-.66.63-1.08c0-.69-.49-1.15-1.46-1.39l-1.63-.39c-.9-.22-1.56-.55-1.99-.99s-.63-1-.63-1.68c0-.56.16-1.05.47-1.48.31-.43.74-.76,1.29-1.01s1.16-.36,1.85-.36c.98,0,1.74.22,2.3.65.55.43.95.99,1.18,1.69Z"/>
      <path class="cls-2" d="M209.03,37.15v-9.83h1.44v1.49h.11c.18-.49.51-.88.98-1.18.47-.3,1-.45,1.59-.45.11,0,.25,0,.41,0s.29,0,.38.01v1.53c-.05-.01-.17-.03-.35-.05s-.38-.04-.58-.04c-.47,0-.9.1-1.27.3s-.67.47-.88.82-.32.74-.32,1.19v6.21h-1.49Z"/>
      <path class="cls-2" d="M218.99,37.36c-.94,0-1.76-.21-2.45-.63-.69-.42-1.22-1.01-1.59-1.77s-.55-1.64-.55-2.64.18-1.9.54-2.66.88-1.37,1.53-1.8c.66-.43,1.43-.65,2.32-.65.51,0,1.02.08,1.52.25s.96.45,1.38.83c.41.38.74.88.99,1.51s.37,1.4.37,2.31v.65h-7.58v-1.3h6.76l-.69.49c0-.66-.1-1.24-.31-1.75s-.51-.91-.92-1.2-.91-.44-1.52-.44-1.12.15-1.55.44c-.43.3-.76.68-.99,1.16s-.34.98-.34,1.53v.86c0,.74.13,1.37.39,1.89s.62.91,1.08,1.17,1,.4,1.61.4c.39,0,.75-.06,1.07-.17s.6-.29.83-.52.41-.52.54-.86l1.46.42c-.15.49-.41.92-.77,1.3-.36.37-.81.66-1.34.87s-1.13.31-1.79.31Z"/>
      <path class="cls-2" d="M228.84,27.32v1.28h-5.29v-1.28h5.29ZM225.13,37.15v-11.18c0-.56.13-1.03.4-1.41.27-.38.61-.66,1.03-.84s.86-.28,1.33-.28c.38,0,.68.03.92.09.24.06.41.12.52.17l-.44,1.3c-.08-.03-.18-.06-.31-.1-.13-.04-.31-.06-.53-.06-.5,0-.86.13-1.09.38s-.34.63-.34,1.11v10.81h-1.49Z"/>
      <path class="cls-2" d="M234.23,37.36c-.94,0-1.76-.21-2.45-.63-.69-.42-1.22-1.01-1.59-1.77s-.55-1.64-.55-2.64.18-1.9.54-2.66.88-1.37,1.53-1.8c.66-.43,1.43-.65,2.32-.65.51,0,1.02.08,1.52.25s.96.45,1.38.83c.41.38.74.88.99,1.51s.37,1.4.37,2.31v.65h-7.58v-1.3h6.76l-.69.49c0-.66-.1-1.24-.31-1.75s-.51-.91-.92-1.2-.91-.44-1.52-.44-1.12.15-1.55.44c-.43.3-.76.68-.99,1.16s-.34.98-.34,1.53v.86c0,.74.13,1.37.39,1.89s.62.91,1.08,1.17,1,.4,1.61.4c.39,0,.75-.06,1.07-.17s.6-.29.83-.52.41-.52.54-.86l1.46.42c-.15.49-.41.92-.77,1.3-.36.37-.81.66-1.34.87s-1.13.31-1.79.31Z"/>
      <path class="cls-2" d="M239.72,37.15v-9.83h1.44v1.49h.11c.18-.49.51-.88.98-1.18.47-.3,1-.45,1.59-.45.11,0,.25,0,.41,0s.29,0,.38.01v1.53c-.05-.01-.17-.03-.35-.05s-.38-.04-.58-.04c-.47,0-.9.1-1.27.3s-.67.47-.88.82-.32.74-.32,1.19v6.21h-1.49Z"/>
      <path class="cls-2" d="M246.33,25.69c-.29,0-.54-.1-.76-.3s-.32-.44-.32-.72.11-.52.32-.72.46-.3.76-.3.54.1.76.3.32.44.32.72-.11.52-.32.72-.46.3-.76.3ZM245.57,37.15v-9.83h1.49v9.83h-1.49Z"/>
      <path class="cls-2" d="M252.69,37.36c-.82,0-1.54-.21-2.17-.62s-1.12-1.01-1.47-1.77-.53-1.67-.53-2.7.18-1.93.53-2.69.85-1.34,1.47-1.76,1.35-.62,2.18-.62c.64,0,1.15.11,1.53.32.37.21.66.45.86.72s.35.48.47.65h.12v-4.83h1.49v13.1h-1.44v-1.51h-.18c-.11.18-.27.4-.47.67s-.5.52-.88.73c-.38.21-.88.32-1.52.32ZM252.89,36.01c.61,0,1.12-.16,1.54-.48s.73-.76.95-1.33.33-1.22.33-1.96-.11-1.38-.32-1.94-.53-.98-.95-1.29-.94-.46-1.55-.46-1.16.16-1.58.49-.74.77-.95,1.33-.32,1.18-.32,1.87.11,1.33.32,1.9.53,1.02.95,1.36.95.51,1.57.51Z"/>
      <path class="cls-2" d="M261.99,37.38c-.62,0-1.19-.12-1.7-.36s-.91-.58-1.21-1.03-.45-1-.45-1.63c0-.56.11-1.02.33-1.37s.52-.62.89-.83c.37-.2.78-.35,1.23-.45.45-.1.9-.18,1.36-.24.6-.08,1.08-.13,1.46-.18.37-.04.64-.11.82-.21s.26-.27.26-.51v-.05c0-.63-.17-1.11-.51-1.46-.34-.35-.86-.52-1.56-.52s-1.28.16-1.69.47-.7.65-.86,1.01l-1.44-.51c.26-.6.6-1.06,1.03-1.4.43-.33.9-.57,1.41-.7.51-.13,1.01-.2,1.5-.2.32,0,.68.04,1.09.11s.81.23,1.2.46.71.58.97,1.05c.26.47.38,1.09.38,1.87v6.47h-1.51v-1.34h-.07c-.1.21-.27.44-.51.68s-.56.45-.95.62c-.4.17-.88.26-1.46.26ZM262.22,36.02c.6,0,1.1-.12,1.51-.35s.72-.54.93-.91.32-.76.32-1.16v-1.39c-.06.08-.2.15-.42.21s-.46.12-.74.16-.55.09-.81.12-.47.06-.63.07c-.39.05-.76.14-1.1.25s-.61.28-.82.51c-.21.22-.31.53-.31.91,0,.52.19.92.58,1.18s.89.4,1.49.4Z"/>
      <path class="cls-2" d="M275.37,29.54l-1.35.37c-.13-.33-.35-.65-.66-.95s-.8-.45-1.46-.45c-.6,0-1.1.14-1.49.42s-.6.63-.6,1.04c0,.38.14.67.41.9.27.22.7.4,1.28.54l1.46.35c.87.21,1.53.54,1.96.98.43.44.65,1,.65,1.68,0,.56-.16,1.07-.48,1.51s-.77.8-1.34,1.05-1.24.39-2,.39c-1,0-1.83-.22-2.48-.66-.65-.44-1.07-1.08-1.24-1.91l1.42-.35c.13.53.39.92.78,1.19s.89.4,1.51.4c.7,0,1.25-.15,1.67-.45s.63-.66.63-1.08c0-.69-.49-1.15-1.46-1.39l-1.63-.39c-.9-.22-1.56-.55-1.99-.99s-.63-1-.63-1.68c0-.56.16-1.05.47-1.48.31-.43.74-.76,1.29-1.01s1.16-.36,1.85-.36c.98,0,1.74.22,2.3.65.55.43.95.99,1.18,1.69Z"/>
      <path class="cls-2" d="M284.09,37.38c-.62,0-1.19-.12-1.7-.36s-.91-.58-1.21-1.03-.45-1-.45-1.63c0-.56.11-1.02.33-1.37s.52-.62.89-.83c.37-.2.78-.35,1.23-.45.45-.1.9-.18,1.36-.24.6-.08,1.08-.13,1.46-.18.37-.04.64-.11.82-.21s.26-.27.26-.51v-.05c0-.63-.17-1.11-.51-1.46-.34-.35-.86-.52-1.56-.52s-1.28.16-1.69.47-.7.65-.86,1.01l-1.44-.51c.26-.6.6-1.06,1.03-1.4.43-.33.9-.57,1.41-.7.51-.13,1.01-.2,1.5-.2.32,0,.68.04,1.09.11s.81.23,1.2.46.71.58.97,1.05c.26.47.38,1.09.38,1.87v6.47h-1.51v-1.34h-.07c-.1.21-.27.44-.51.68s-.56.45-.95.62c-.4.17-.88.26-1.46.26ZM284.31,36.02c.6,0,1.1-.12,1.51-.35s.72-.54.93-.91.32-.76.32-1.16v-1.39c-.06.08-.2.15-.42.21s-.46.12-.74.16-.55.09-.81.12-.47.06-.63.07c-.39.05-.76.14-1.1.25s-.61.28-.82.51c-.21.22-.31.53-.31.91,0,.52.19.92.58,1.18s.89.4,1.49.4Z"/>
      <path class="cls-2" d="M292.01,24.05v13.1h-1.49v-13.1h1.49Z"/>
      <path class="cls-2" d="M95.23,58.96c-.91,0-1.7-.22-2.37-.65s-1.18-1.04-1.54-1.8c-.36-.76-.54-1.63-.54-2.61s.18-1.89.55-2.65.89-1.36,1.55-1.8c.66-.43,1.44-.65,2.32-.65.69,0,1.31.13,1.87.38.55.25,1.01.61,1.36,1.08.35.46.57,1,.65,1.62h-1.51c-.08-.3-.21-.58-.41-.84s-.46-.48-.79-.64c-.33-.16-.71-.24-1.16-.24-.59,0-1.1.15-1.54.46s-.78.73-1.03,1.29-.37,1.2-.37,1.95.12,1.42.36,1.98.58,1,1.02,1.31c.44.31.96.47,1.55.47s1.1-.15,1.52-.46.7-.73.83-1.26h1.51c-.08.58-.29,1.1-.63,1.56s-.78.83-1.33,1.1c-.55.27-1.19.41-1.91.41Z"/>
      <path class="cls-2" d="M104.49,58.96c-.88,0-1.66-.21-2.33-.63s-1.19-1.01-1.56-1.78c-.37-.76-.56-1.65-.56-2.65s.19-1.92.56-2.69c.37-.76.89-1.36,1.56-1.78s1.44-.63,2.33-.63,1.67.21,2.34.63,1.19,1.02,1.56,1.78.56,1.66.56,2.69-.19,1.89-.56,2.65-.9,1.35-1.56,1.78-1.45.63-2.34.63ZM104.49,57.61c.68,0,1.24-.17,1.67-.52s.76-.8.97-1.37.32-1.17.32-1.82-.11-1.28-.32-1.85-.53-1.03-.97-1.38-.99-.52-1.67-.52-1.22.17-1.65.52-.76.81-.97,1.38-.32,1.18-.32,1.85.11,1.26.32,1.82.53,1.02.97,1.37.98.52,1.65.52Z"/>
      <path class="cls-2" d="M111.91,52.84v5.91h-1.49v-9.83h1.44v1.55h.14c.23-.5.58-.91,1.05-1.21s1.08-.46,1.82-.46c.66,0,1.24.13,1.74.4s.89.68,1.16,1.23.42,1.24.42,2.08v6.24h-1.49v-6.13c0-.77-.2-1.37-.61-1.81s-.96-.65-1.65-.65c-.48,0-.91.11-1.29.32s-.68.52-.9.91c-.22.4-.33.88-.33,1.46Z"/>
      <path class="cls-2" d="M124.09,58.96c-.88,0-1.66-.21-2.33-.63s-1.19-1.01-1.56-1.78c-.37-.76-.56-1.65-.56-2.65s.19-1.92.56-2.69c.37-.76.89-1.36,1.56-1.78s1.44-.63,2.33-.63,1.67.21,2.34.63,1.19,1.02,1.56,1.78.56,1.66.56,2.69-.19,1.89-.56,2.65-.9,1.35-1.56,1.78-1.45.63-2.34.63ZM124.09,57.61c.68,0,1.24-.17,1.67-.52s.76-.8.97-1.37.32-1.17.32-1.82-.11-1.28-.32-1.85-.53-1.03-.97-1.38-.99-.52-1.67-.52-1.22.17-1.65.52-.76.81-.97,1.38-.32,1.18-.32,1.85.11,1.26.32,1.82.53,1.02.97,1.37.98.52,1.65.52Z"/>
      <path class="cls-2" d="M133.99,58.96c-.91,0-1.7-.22-2.37-.65s-1.18-1.04-1.54-1.8c-.36-.76-.54-1.63-.54-2.61s.18-1.89.55-2.65.89-1.36,1.55-1.8c.66-.43,1.44-.65,2.32-.65.69,0,1.31.13,1.87.38.55.25,1.01.61,1.36,1.08.35.46.57,1,.65,1.62h-1.51c-.08-.3-.21-.58-.41-.84s-.46-.48-.79-.64c-.33-.16-.71-.24-1.16-.24-.59,0-1.1.15-1.54.46s-.78.73-1.03,1.29-.37,1.2-.37,1.95.12,1.42.36,1.98.58,1,1.02,1.31c.44.31.96.47,1.55.47s1.1-.15,1.52-.46.7-.73.83-1.26h1.51c-.08.58-.29,1.1-.63,1.56s-.78.83-1.33,1.1c-.55.27-1.19.41-1.91.41Z"/>
      <path class="cls-2" d="M140.03,47.29c-.29,0-.54-.1-.76-.3s-.32-.44-.32-.72.11-.52.32-.72.46-.3.76-.3.54.1.76.3.32.44.32.72-.11.52-.32.72-.46.3-.76.3ZM139.28,58.75v-9.83h1.49v9.83h-1.49Z"/>
      <path class="cls-2" d="M142.71,58.75v-9.83h1.44v1.55h.14c.21-.53.54-.94.99-1.23s1-.44,1.64-.44,1.18.15,1.61.44c.43.29.77.7,1.01,1.23h.11c.26-.51.64-.92,1.14-1.22.5-.3,1.1-.45,1.8-.45.88,0,1.6.27,2.16.82s.84,1.4.84,2.55v6.57h-1.51v-6.57c0-.73-.2-1.25-.6-1.56s-.87-.47-1.41-.47c-.69,0-1.22.21-1.6.63-.38.42-.57.94-.57,1.57v6.4h-1.55v-6.73c0-.56-.18-1.01-.54-1.35s-.82-.51-1.4-.51c-.39,0-.76.11-1.1.32s-.61.5-.82.87c-.21.37-.31.79-.31,1.27v6.13h-1.49Z"/>
      <path class="cls-2" d="M158.28,47.29c-.29,0-.54-.1-.76-.3s-.32-.44-.32-.72.11-.52.32-.72.46-.3.76-.3.54.1.76.3.32.44.32.72-.11.52-.32.72-.46.3-.76.3ZM157.52,58.75v-9.83h1.49v9.83h-1.49Z"/>
      <path class="cls-2" d="M165.06,58.96c-.94,0-1.76-.21-2.45-.63-.69-.42-1.22-1.01-1.59-1.77s-.55-1.64-.55-2.64.18-1.9.54-2.66.88-1.37,1.53-1.8c.66-.43,1.43-.65,2.32-.65.51,0,1.02.08,1.52.25s.96.45,1.38.83c.41.38.74.88.99,1.51s.37,1.4.37,2.31v.65h-7.58v-1.3h6.76l-.69.49c0-.66-.1-1.24-.31-1.75s-.51-.91-.92-1.2-.91-.44-1.52-.44-1.12.15-1.55.44c-.43.3-.76.68-.99,1.16s-.34.98-.34,1.53v.86c0,.74.13,1.37.39,1.89s.62.91,1.08,1.17,1,.4,1.61.4c.39,0,.75-.06,1.07-.17s.6-.29.83-.52.41-.52.54-.86l1.46.42c-.15.49-.41.92-.77,1.3-.36.37-.81.66-1.34.87s-1.13.31-1.79.31Z"/>
      <path class="cls-2" d="M172.04,52.84v5.91h-1.49v-9.83h1.44v1.55h.14c.23-.5.58-.91,1.05-1.21s1.08-.46,1.82-.46c.66,0,1.24.13,1.74.4s.89.68,1.16,1.23.42,1.24.42,2.08v6.24h-1.49v-6.13c0-.77-.2-1.37-.61-1.81s-.96-.65-1.65-.65c-.48,0-.91.11-1.29.32s-.68.52-.9.91c-.22.4-.33.88-.33,1.46Z"/>
      <path class="cls-2" d="M184.51,48.92v1.28h-5.08v-1.28h5.08ZM180.9,46.58h1.49v9.35c0,.51.11.88.32,1.12s.54.36,1,.36c.1,0,.2,0,.31-.02.11-.01.23-.03.36-.05l.32,1.35c-.14.05-.31.1-.51.13-.2.03-.41.05-.61.05-.79,0-1.43-.23-1.93-.7s-.74-1.08-.74-1.83v-9.76Z"/>
      <path class="cls-2" d="M189.92,58.96c-.88,0-1.66-.21-2.33-.63s-1.19-1.01-1.56-1.78c-.37-.76-.56-1.65-.56-2.65s.19-1.92.56-2.69c.37-.76.89-1.36,1.56-1.78s1.44-.63,2.33-.63,1.67.21,2.34.63,1.19,1.02,1.56,1.78.56,1.66.56,2.69-.19,1.89-.56,2.65-.9,1.35-1.56,1.78-1.45.63-2.34.63ZM189.92,57.61c.68,0,1.24-.17,1.67-.52s.76-.8.97-1.37.32-1.17.32-1.82-.11-1.28-.32-1.85-.53-1.03-.97-1.38-.99-.52-1.67-.52-1.22.17-1.65.52-.76.81-.97,1.38-.32,1.18-.32,1.85.11,1.26.32,1.82.53,1.02.97,1.37.98.52,1.65.52Z"/>
      <path class="cls-2" d="M201.03,62.42c-.26,0-.49-.01-.69-.05s-.34-.08-.42-.12l.39-1.32.15.04c.5.12.93.09,1.27-.07.34-.17.64-.6.9-1.31l.28-.77-3.62-9.88h1.63l2.71,7.84h.11l2.71-7.84h1.63l-4.17,11.25c-.19.51-.42.93-.69,1.27s-.59.58-.96.74-.77.24-1.23.24Z"/>
      <path class="cls-2" d="M216.34,58.98c-.62,0-1.19-.12-1.7-.36s-.91-.58-1.21-1.03-.45-1-.45-1.63c0-.56.11-1.02.33-1.37s.52-.62.89-.83c.37-.2.78-.35,1.23-.45.45-.1.9-.18,1.36-.24.6-.08,1.08-.13,1.46-.18.37-.04.64-.11.82-.21s.26-.27.26-.51v-.05c0-.63-.17-1.11-.51-1.46-.34-.35-.86-.52-1.56-.52s-1.28.16-1.69.47-.7.65-.86,1.01l-1.44-.51c.26-.6.6-1.06,1.03-1.4.43-.33.9-.57,1.41-.7.51-.13,1.01-.2,1.5-.2.32,0,.68.04,1.09.11s.81.23,1.2.46.71.58.97,1.05c.26.47.38,1.09.38,1.87v6.47h-1.51v-1.34h-.07c-.1.21-.27.44-.51.68s-.56.45-.95.62c-.4.17-.88.26-1.46.26ZM216.57,57.62c.6,0,1.1-.12,1.51-.35s.72-.54.93-.91.32-.76.32-1.16v-1.39c-.06.08-.2.15-.42.21s-.46.12-.74.16-.55.09-.81.12-.47.06-.63.07c-.39.05-.76.14-1.1.25s-.61.28-.82.51c-.21.22-.31.53-.31.91,0,.52.19.92.58,1.18s.89.4,1.49.4Z"/>
      <path class="cls-2" d="M228.49,45.65v13.1h-1.49v-13.1h1.49Z"/>
      <path class="cls-2" d="M233.3,58.98c-.62,0-1.19-.12-1.7-.36s-.91-.58-1.21-1.03-.45-1-.45-1.63c0-.56.11-1.02.33-1.37s.52-.62.89-.83c.37-.2.78-.35,1.23-.45.45-.1.9-.18,1.36-.24.6-.08,1.08-.13,1.46-.18.37-.04.64-.11.82-.21s.26-.27.26-.51v-.05c0-.63-.17-1.11-.51-1.46-.34-.35-.86-.52-1.56-.52s-1.28.16-1.69.47-.7.65-.86,1.01l-1.44-.51c.26-.6.6-1.06,1.03-1.4.43-.33.9-.57,1.41-.7.51-.13,1.01-.2,1.5-.2.32,0,.68.04,1.09.11s.81.23,1.2.46.71.58.97,1.05c.26.47.38,1.09.38,1.87v6.47h-1.51v-1.34h-.07c-.1.21-.27.44-.51.68s-.56.45-.95.62c-.4.17-.88.26-1.46.26ZM233.53,57.62c.6,0,1.1-.12,1.51-.35s.72-.54.93-.91.32-.76.32-1.16v-1.39c-.06.08-.2.15-.42.21s-.46.12-.74.16-.55.09-.81.12-.47.06-.63.07c-.39.05-.76.14-1.1.25s-.61.28-.82.51c-.21.22-.31.53-.31.91,0,.52.19.92.58,1.18s.89.4,1.49.4Z"/>
      <path class="cls-2" d="M94.95,80.56c-.82,0-1.54-.21-2.17-.62s-1.12-1.01-1.47-1.77-.53-1.67-.53-2.7.18-1.93.53-2.69.85-1.34,1.47-1.76,1.35-.62,2.18-.62c.64,0,1.15.11,1.53.32.37.21.66.45.86.72s.35.48.47.65h.12v-4.83h1.49v13.1h-1.44v-1.51h-.18c-.11.18-.27.4-.47.67s-.5.52-.88.73c-.38.21-.88.32-1.52.32ZM95.14,79.21c.61,0,1.12-.16,1.54-.48s.73-.76.95-1.33.33-1.22.33-1.96-.11-1.38-.32-1.94-.53-.98-.95-1.29-.94-.46-1.55-.46-1.16.16-1.58.49-.74.77-.95,1.33-.32,1.18-.32,1.87.11,1.33.32,1.9.53,1.02.95,1.36.95.51,1.57.51Z"/>
      <path class="cls-2" d="M102.12,68.89c-.29,0-.54-.1-.76-.3s-.32-.44-.32-.72.11-.52.32-.72.46-.3.76-.3.54.1.76.3.32.44.32.72-.11.52-.32.72-.46.3-.76.3ZM101.36,80.35v-9.83h1.49v9.83h-1.49Z"/>
      <path class="cls-2" d="M111.73,72.74l-1.35.37c-.13-.33-.35-.65-.66-.95s-.8-.45-1.46-.45c-.6,0-1.1.14-1.49.42s-.6.63-.6,1.04c0,.38.14.67.41.9.27.22.7.4,1.28.54l1.46.35c.87.21,1.53.54,1.96.98.43.44.65,1,.65,1.68,0,.56-.16,1.07-.48,1.51s-.77.8-1.34,1.05-1.24.39-2,.39c-1,0-1.83-.22-2.48-.66-.65-.44-1.07-1.08-1.24-1.91l1.42-.35c.13.53.39.92.78,1.19s.89.4,1.51.4c.7,0,1.25-.15,1.67-.45s.63-.66.63-1.08c0-.69-.49-1.15-1.46-1.39l-1.63-.39c-.9-.22-1.56-.55-1.99-.99s-.63-1-.63-1.68c0-.56.16-1.05.47-1.48.31-.43.74-.76,1.29-1.01s1.16-.36,1.85-.36c.98,0,1.74.22,2.3.65.55.43.95.99,1.18,1.69Z"/>
      <path class="cls-2" d="M113.35,84.02v-13.5h1.44v1.56h.18c.11-.17.27-.39.47-.65s.49-.51.86-.72.88-.32,1.52-.32c.83,0,1.55.21,2.18.62s1.12,1,1.47,1.76c.35.76.53,1.65.53,2.69s-.18,1.94-.53,2.7-.84,1.35-1.47,1.77-1.35.62-2.17.62c-.63,0-1.13-.11-1.51-.32s-.67-.46-.88-.73-.36-.5-.47-.67h-.12v5.19h-1.49ZM117.64,79.21c.63,0,1.15-.17,1.57-.51s.74-.79.95-1.36c.21-.57.32-1.2.32-1.9s-.11-1.32-.32-1.87-.53-1-.95-1.33-.95-.49-1.59-.49-1.13.15-1.55.46-.73.74-.95,1.29-.32,1.2-.32,1.94.11,1.39.33,1.96.53,1.01.95,1.33c.42.32.93.48,1.53.48Z"/>
      <path class="cls-2" d="M127.43,80.56c-.88,0-1.66-.21-2.33-.63s-1.19-1.01-1.56-1.78c-.37-.76-.56-1.65-.56-2.65s.19-1.92.56-2.69c.37-.76.89-1.36,1.56-1.78s1.44-.63,2.33-.63,1.67.21,2.34.63,1.19,1.02,1.56,1.78.56,1.66.56,2.69-.19,1.89-.56,2.65-.9,1.35-1.56,1.78-1.45.63-2.34.63ZM127.43,79.21c.68,0,1.24-.17,1.67-.52s.76-.8.97-1.37.32-1.17.32-1.82-.11-1.28-.32-1.85-.53-1.03-.97-1.38-.99-.52-1.67-.52-1.22.17-1.65.52-.76.81-.97,1.38-.32,1.18-.32,1.85.11,1.26.32,1.82.53,1.02.97,1.37.98.52,1.65.52Z"/>
      <path class="cls-2" d="M134.85,74.44v5.91h-1.49v-9.83h1.44v1.55h.14c.23-.5.58-.91,1.05-1.21s1.08-.46,1.82-.46c.66,0,1.24.13,1.74.4s.89.68,1.16,1.23.42,1.24.42,2.08v6.24h-1.49v-6.13c0-.77-.2-1.37-.61-1.81s-.96-.65-1.65-.65c-.48,0-.91.11-1.29.32s-.68.52-.9.91c-.22.4-.33.88-.33,1.46Z"/>
      <path class="cls-2" d="M143.81,68.89c-.29,0-.54-.1-.76-.3s-.32-.44-.32-.72.11-.52.32-.72.46-.3.76-.3.54.1.76.3.32.44.32.72-.11.52-.32.72-.46.3-.76.3ZM143.06,80.35v-9.83h1.49v9.83h-1.49Z"/>
      <path class="cls-2" d="M150.97,80.56c-.63,0-1.13-.11-1.51-.32s-.67-.46-.88-.73-.36-.5-.47-.67h-.18v1.51h-1.44v-13.1h1.49v4.83h.12c.11-.17.27-.39.47-.65s.49-.51.86-.72.88-.32,1.52-.32c.83,0,1.55.21,2.18.62s1.12,1,1.47,1.76c.35.76.53,1.65.53,2.69s-.18,1.94-.53,2.7-.84,1.35-1.47,1.77-1.35.62-2.17.62ZM150.77,79.21c.63,0,1.15-.17,1.57-.51s.74-.79.95-1.36c.21-.57.32-1.2.32-1.9s-.11-1.32-.32-1.87-.53-1-.95-1.33-.95-.49-1.59-.49-1.13.15-1.55.46-.73.74-.95,1.29-.32,1.2-.32,1.94.11,1.39.33,1.96.53,1.01.95,1.33c.42.32.93.48,1.53.48Z"/>
      <path class="cls-2" d="M157.35,68.89c-.29,0-.54-.1-.76-.3s-.32-.44-.32-.72.11-.52.32-.72.46-.3.76-.3.54.1.76.3.32.44.32.72-.11.52-.32.72-.46.3-.76.3ZM156.59,80.35v-9.83h1.49v9.83h-1.49Z"/>
      <path class="cls-2" d="M161.51,67.25v13.1h-1.49v-13.1h1.49Z"/>
      <path class="cls-2" d="M164.2,68.89c-.29,0-.54-.1-.76-.3s-.32-.44-.32-.72.11-.52.32-.72.46-.3.76-.3.54.1.76.3.32.44.32.72-.11.52-.32.72-.46.3-.76.3ZM163.45,80.35v-9.83h1.49v9.83h-1.49Z"/>
      <path class="cls-2" d="M170.57,80.56c-.82,0-1.54-.21-2.17-.62s-1.12-1.01-1.47-1.77-.53-1.67-.53-2.7.18-1.93.53-2.69.85-1.34,1.47-1.76,1.35-.62,2.18-.62c.64,0,1.15.11,1.53.32.37.21.66.45.86.72s.35.48.47.65h.12v-4.83h1.49v13.1h-1.44v-1.51h-.18c-.11.18-.27.4-.47.67s-.5.52-.88.73c-.38.21-.88.32-1.52.32ZM170.76,79.21c.61,0,1.12-.16,1.54-.48s.73-.76.95-1.33.33-1.22.33-1.96-.11-1.38-.32-1.94-.53-.98-.95-1.29-.94-.46-1.55-.46-1.16.16-1.58.49-.74.77-.95,1.33-.32,1.18-.32,1.87.11,1.33.32,1.9.53,1.02.95,1.36.95.51,1.57.51Z"/>
      <path class="cls-2" d="M179.87,80.58c-.62,0-1.19-.12-1.7-.36s-.91-.58-1.21-1.03-.45-1-.45-1.63c0-.56.11-1.02.33-1.37s.52-.62.89-.83c.37-.2.78-.35,1.23-.45.45-.1.9-.18,1.36-.24.6-.08,1.08-.13,1.46-.18.37-.04.64-.11.82-.21s.26-.27.26-.51v-.05c0-.63-.17-1.11-.51-1.46-.34-.35-.86-.52-1.56-.52s-1.28.16-1.69.47-.7.65-.86,1.01l-1.44-.51c.26-.6.6-1.06,1.03-1.4.43-.33.9-.57,1.41-.7.51-.13,1.01-.2,1.5-.2.32,0,.68.04,1.09.11s.81.23,1.2.46.71.58.97,1.05c.26.47.38,1.09.38,1.87v6.47h-1.51v-1.34h-.07c-.1.21-.27.44-.51.68s-.56.45-.95.62c-.4.17-.88.26-1.46.26ZM180.09,79.22c.6,0,1.1-.12,1.51-.35s.72-.54.93-.91.32-.76.32-1.16v-1.39c-.06.08-.2.15-.42.21s-.46.12-.74.16-.55.09-.81.12-.47.06-.63.07c-.39.05-.76.14-1.1.25s-.61.28-.82.51c-.21.22-.31.53-.31.91,0,.52.19.92.58,1.18s.89.4,1.49.4Z"/>
      <path class="cls-2" d="M189.99,80.56c-.82,0-1.54-.21-2.17-.62s-1.12-1.01-1.47-1.77-.53-1.67-.53-2.7.18-1.93.53-2.69.85-1.34,1.47-1.76,1.35-.62,2.18-.62c.64,0,1.15.11,1.53.32.37.21.66.45.86.72s.35.48.47.65h.12v-4.83h1.49v13.1h-1.44v-1.51h-.18c-.11.18-.27.4-.47.67s-.5.52-.88.73c-.38.21-.88.32-1.52.32ZM190.18,79.21c.61,0,1.12-.16,1.54-.48s.73-.76.95-1.33.33-1.22.33-1.96-.11-1.38-.32-1.94-.53-.98-.95-1.29-.94-.46-1.55-.46-1.16.16-1.58.49-.74.77-.95,1.33-.32,1.18-.32,1.87.11,1.33.32,1.9.53,1.02.95,1.36.95.51,1.57.51Z"/>
      <path class="cls-2" d="M204.32,80.56c-.82,0-1.54-.21-2.17-.62s-1.12-1.01-1.47-1.77-.53-1.67-.53-2.7.18-1.93.53-2.69.85-1.34,1.47-1.76,1.35-.62,2.18-.62c.64,0,1.15.11,1.53.32.37.21.66.45.86.72s.35.48.47.65h.12v-4.83h1.49v13.1h-1.44v-1.51h-.18c-.11.18-.27.4-.47.67s-.5.52-.88.73c-.38.21-.88.32-1.52.32ZM204.51,79.21c.61,0,1.12-.16,1.54-.48s.73-.76.95-1.33.33-1.22.33-1.96-.11-1.38-.32-1.94-.53-.98-.95-1.29-.94-.46-1.55-.46-1.16.16-1.58.49-.74.77-.95,1.33-.32,1.18-.32,1.87.11,1.33.32,1.9.53,1.02.95,1.36.95.51,1.57.51Z"/>
      <path class="cls-2" d="M214.85,80.56c-.94,0-1.76-.21-2.45-.63-.69-.42-1.22-1.01-1.59-1.77s-.55-1.64-.55-2.64.18-1.9.54-2.66.88-1.37,1.53-1.8c.66-.43,1.43-.65,2.32-.65.51,0,1.02.08,1.52.25s.96.45,1.38.83c.41.38.74.88.99,1.51s.37,1.4.37,2.31v.65h-7.58v-1.3h6.76l-.69.49c0-.66-.1-1.24-.31-1.75s-.51-.91-.92-1.2-.91-.44-1.52-.44-1.12.15-1.55.44c-.43.3-.76.68-.99,1.16s-.34.98-.34,1.53v.86c0,.74.13,1.37.39,1.89s.62.91,1.08,1.17,1,.4,1.61.4c.39,0,.75-.06,1.07-.17s.6-.29.83-.52.41-.52.54-.86l1.46.42c-.15.49-.41.92-.77,1.3-.36.37-.81.66-1.34.87s-1.13.31-1.79.31Z"/>
      <path class="cls-2" d="M230.74,76.34v-5.82h1.49v9.83h-1.49v-1.67h-.11c-.23.5-.59.92-1.08,1.27-.48.35-1.1.52-1.84.52-.62,0-1.16-.13-1.63-.4s-.85-.68-1.12-1.23c-.27-.55-.41-1.25-.41-2.08v-6.24h1.49v6.15c0,.71.2,1.28.61,1.71.41.43.92.64,1.55.63.38,0,.76-.1,1.15-.29s.72-.48.98-.88.4-.9.4-1.51Z"/>
      <path class="cls-2" d="M235.66,74.44v5.91h-1.49v-9.83h1.44v1.55h.14c.23-.5.58-.91,1.05-1.21s1.08-.46,1.82-.46c.66,0,1.24.13,1.74.4s.89.68,1.16,1.23.42,1.24.42,2.08v6.24h-1.49v-6.13c0-.77-.2-1.37-.61-1.81s-.96-.65-1.65-.65c-.48,0-.91.11-1.29.32s-.68.52-.9.91c-.22.4-.33.88-.33,1.46Z"/>
      <path class="cls-2" d="M247.84,80.56c-.88,0-1.66-.21-2.33-.63s-1.19-1.01-1.56-1.78c-.37-.76-.56-1.65-.56-2.65s.19-1.92.56-2.69c.37-.76.89-1.36,1.56-1.78s1.44-.63,2.33-.63,1.67.21,2.34.63,1.19,1.02,1.56,1.78.56,1.66.56,2.69-.19,1.89-.56,2.65-.9,1.35-1.56,1.78-1.45.63-2.34.63ZM247.84,79.21c.68,0,1.24-.17,1.67-.52s.76-.8.97-1.37.32-1.17.32-1.82-.11-1.28-.32-1.85-.53-1.03-.97-1.38-.99-.52-1.67-.52-1.22.17-1.65.52-.76.81-.97,1.38-.32,1.18-.32,1.85.11,1.26.32,1.82.53,1.02.97,1.37.98.52,1.65.52Z"/>
      <path class="cls-2" d="M257.98,80.35v-9.83h1.44v1.55h.14c.21-.53.54-.94.99-1.23s1-.44,1.64-.44,1.18.15,1.61.44c.43.29.77.7,1.01,1.23h.11c.26-.51.64-.92,1.14-1.22.5-.3,1.1-.45,1.8-.45.88,0,1.6.27,2.16.82s.84,1.4.84,2.55v6.57h-1.51v-6.57c0-.73-.2-1.25-.6-1.56s-.87-.47-1.41-.47c-.69,0-1.22.21-1.6.63-.38.42-.57.94-.57,1.57v6.4h-1.55v-6.73c0-.56-.18-1.01-.54-1.35s-.82-.51-1.4-.51c-.39,0-.76.11-1.1.32s-.61.5-.82.87c-.21.37-.31.79-.31,1.27v6.13h-1.49Z"/>
      <path class="cls-2" d="M273.56,68.89c-.29,0-.54-.1-.76-.3s-.32-.44-.32-.72.11-.52.32-.72.46-.3.76-.3.54.1.76.3.32.44.32.72-.11.52-.32.72-.46.3-.76.3ZM272.8,80.35v-9.83h1.49v9.83h-1.49Z"/>
      <path class="cls-2" d="M283.17,72.74l-1.35.37c-.13-.33-.35-.65-.66-.95s-.8-.45-1.46-.45c-.6,0-1.1.14-1.49.42s-.6.63-.6,1.04c0,.38.14.67.41.9.27.22.7.4,1.28.54l1.46.35c.87.21,1.53.54,1.96.98.43.44.65,1,.65,1.68,0,.56-.16,1.07-.48,1.51s-.77.8-1.34,1.05-1.24.39-2,.39c-1,0-1.83-.22-2.48-.66-.65-.44-1.07-1.08-1.24-1.91l1.42-.35c.13.53.39.92.78,1.19s.89.4,1.51.4c.7,0,1.25-.15,1.67-.45s.63-.66.63-1.08c0-.69-.49-1.15-1.46-1.39l-1.63-.39c-.9-.22-1.56-.55-1.99-.99s-.63-1-.63-1.68c0-.56.16-1.05.47-1.48.31-.43.74-.76,1.29-1.01s1.16-.36,1.85-.36c.98,0,1.74.22,2.3.65.55.43.95.99,1.18,1.69Z"/>
      <path class="cls-2" d="M284.79,80.35v-9.83h1.44v1.55h.14c.21-.53.54-.94.99-1.23s1-.44,1.64-.44,1.18.15,1.61.44c.43.29.77.7,1.01,1.23h.11c.26-.51.64-.92,1.14-1.22.5-.3,1.1-.45,1.8-.45.88,0,1.6.27,2.16.82s.84,1.4.84,2.55v6.57h-1.51v-6.57c0-.73-.2-1.25-.6-1.56s-.87-.47-1.41-.47c-.69,0-1.22.21-1.6.63-.38.42-.57.94-.57,1.57v6.4h-1.55v-6.73c0-.56-.18-1.01-.54-1.35s-.82-.51-1.4-.51c-.39,0-.76.11-1.1.32s-.61.5-.82.87c-.21.37-.31.79-.31,1.27v6.13h-1.49Z"/>
      <path class="cls-2" d="M303.58,80.56c-.88,0-1.66-.21-2.33-.63s-1.19-1.01-1.56-1.78c-.37-.76-.56-1.65-.56-2.65s.19-1.92.56-2.69c.37-.76.89-1.36,1.56-1.78s1.44-.63,2.33-.63,1.67.21,2.34.63,1.19,1.02,1.56,1.78.56,1.66.56,2.69-.19,1.89-.56,2.65-.9,1.35-1.56,1.78-1.45.63-2.34.63ZM303.58,79.21c.68,0,1.24-.17,1.67-.52s.76-.8.97-1.37.32-1.17.32-1.82-.11-1.28-.32-1.85-.53-1.03-.97-1.38-.99-.52-1.67-.52-1.22.17-1.65.52-.76.81-.97,1.38-.32,1.18-.32,1.85.11,1.26.32,1.82.53,1.02.97,1.37.98.52,1.65.52Z"/>
      <path class="cls-2" d="M310.67,80.45c-.32,0-.59-.11-.81-.34s-.34-.5-.34-.81.11-.59.34-.81.5-.34.81-.34.59.11.81.34c.22.23.34.5.34.81s-.11.59-.34.81c-.23.23-.5.34-.81.34Z"/>
    </g>
    <text class="cls-3" transform="translate(26.39 342.86)"><tspan x="0" y="0">Prácticas corporales motrices </tspan><tspan x="0" y="21.6">y ludomotrices referidas a la </tspan><tspan x="0" y="43.2">interacción con el ambiente.</tspan></text>
  </g>
</svg>