<?xml version="1.0" encoding="UTF-8"?>
<svg id="Capa_2" data-name="Capa 2" xmlns="http://www.w3.org/2000/svg" viewBox="0 0 450.98 309.37">
  <defs>
    <style>
      .cls-1 {
        font-family: InterTight-Regular, 'Inter Tight';
        font-size: 16.98px;
      }

      .cls-1, .cls-2 {
        fill: #ff7402;
      }

      .cls-3 {
        fill: #b74d04;
      }

      .cls-4, .cls-5 {
        fill: #fff;
      }

      .cls-6 {
        fill: none;
        stroke: #4b4a63;
        stroke-dasharray: 4.7;
        stroke-width: .67px;
      }

      .cls-6, .cls-5 {
        stroke-miterlimit: 10;
      }

      .cls-5 {
        stroke: #ff7402;
        stroke-width: 3.82px;
      }
    </style>
  </defs>
  <g id="Capa_1-2" data-name="Capa 1">
    <circle class="cls-2" cx="257.04" cy="163.59" r="81.7"/>
    <g>
      <path class="cls-4" d="M227.15,136.71v-12.37h8.33v2.16h-5.73v2.91h5.3v2.12h-5.3v3.03h5.74v2.16h-8.35Z"/>
      <path class="cls-4" d="M237.31,127.43h2.56v9.75c0,.71-.14,1.29-.42,1.73-.28.44-.69.76-1.21.97s-1.15.31-1.88.31h-.52v-2.01h.33c.42,0,.71-.09.88-.26s.25-.43.26-.78v-9.7ZM238.58,126.24c-.38,0-.71-.13-.98-.38s-.41-.56-.41-.92.14-.67.41-.92c.27-.25.6-.38.98-.38s.72.13.99.38c.27.25.41.56.41.92s-.14.67-.41.92-.6.38-.99.38Z"/>
      <path class="cls-4" d="M245.95,136.89c-.95,0-1.77-.19-2.47-.58s-1.22-.94-1.59-1.66c-.37-.72-.55-1.56-.55-2.54s.18-1.79.55-2.51c.37-.72.89-1.28,1.56-1.69.67-.4,1.46-.61,2.37-.61.61,0,1.19.1,1.72.29.53.2,1,.49,1.39.88.4.39.71.88.93,1.47.22.59.33,1.28.33,2.07v.7h-7.84v-1.59h6.59l-1.2.42c0-.47-.07-.88-.22-1.23s-.36-.62-.64-.81c-.28-.19-.64-.29-1.06-.29s-.78.1-1.07.29c-.29.19-.51.46-.67.79s-.23.71-.23,1.15v1.12c0,.5.09.93.27,1.29.18.36.42.63.74.82.32.19.68.29,1.1.29.29,0,.55-.04.78-.12s.43-.2.6-.37c.17-.16.29-.35.38-.58l2.37.16c-.12.57-.36,1.07-.73,1.49-.37.42-.84.75-1.42.99-.58.23-1.25.35-2.02.35Z"/>
      <path class="cls-4" d="M259.33,130.07l-2.35.14c-.06-.29-.22-.55-.49-.76-.27-.21-.62-.32-1.07-.32-.4,0-.73.08-1,.25-.27.17-.4.39-.4.66,0,.22.09.41.26.57.17.16.47.28.9.37l1.69.33c.9.18,1.57.48,2.02.89s.66.95.66,1.62c0,.61-.18,1.15-.53,1.61-.35.46-.84.81-1.46,1.07-.62.26-1.33.39-2.13.39-1.23,0-2.21-.26-2.93-.77-.73-.51-1.15-1.21-1.27-2.09l2.52-.13c.08.38.27.66.56.85s.67.29,1.13.29.81-.09,1.09-.27c.28-.18.42-.4.42-.67,0-.46-.4-.77-1.2-.93l-1.6-.33c-.9-.18-1.57-.5-2.02-.94s-.66-1.01-.66-1.7c0-.6.16-1.11.49-1.54s.78-.76,1.37-1c.59-.23,1.28-.35,2.07-.35,1.17,0,2.1.25,2.77.74.67.5,1.06,1.17,1.17,2.02Z"/>
      <path class="cls-4" d="M268.08,136.86c-.71,0-1.35-.18-1.92-.55s-1.02-.9-1.35-1.61c-.33-.71-.5-1.58-.5-2.61s.17-1.95.51-2.66.8-1.24,1.37-1.59c.57-.35,1.19-.53,1.87-.53.52,0,.95.09,1.3.26.35.17.63.39.85.65s.38.52.49.77h.07v-4.66h2.57v12.37h-2.53v-1.49h-.12c-.12.25-.29.51-.51.76-.22.25-.5.46-.85.63-.35.17-.77.25-1.27.25ZM268.88,134.81c.42,0,.77-.11,1.06-.34.29-.23.51-.55.66-.96.15-.41.23-.89.23-1.44s-.07-1.03-.22-1.44c-.15-.41-.37-.72-.66-.95-.29-.22-.65-.34-1.06-.34s-.77.12-1.06.35-.51.55-.66.96c-.15.41-.22.88-.22,1.42s.07,1.01.22,1.42c.15.41.37.73.66.97.29.23.64.35,1.06.35Z"/>
      <path class="cls-4" d="M279.41,136.89c-.95,0-1.77-.19-2.47-.58s-1.22-.94-1.59-1.66c-.37-.72-.55-1.56-.55-2.54s.18-1.79.55-2.51c.37-.72.89-1.28,1.56-1.69.67-.4,1.46-.61,2.37-.61.61,0,1.19.1,1.72.29.53.2,1,.49,1.39.88.4.39.71.88.93,1.47.22.59.33,1.28.33,2.07v.7h-7.84v-1.59h6.59l-1.2.42c0-.47-.07-.88-.22-1.23s-.36-.62-.64-.81c-.28-.19-.64-.29-1.06-.29s-.78.1-1.07.29c-.29.19-.51.46-.67.79s-.23.71-.23,1.15v1.12c0,.5.09.93.27,1.29.18.36.42.63.74.82.32.19.68.29,1.1.29.29,0,.55-.04.78-.12s.43-.2.6-.37c.17-.16.29-.35.38-.58l2.37.16c-.12.57-.36,1.07-.73,1.49-.37.42-.84.75-1.42.99-.58.23-1.25.35-2.02.35Z"/>
      <path class="cls-4" d="M221.04,157.29c-.95,0-1.76-.2-2.44-.61-.68-.41-1.2-.97-1.57-1.68-.37-.72-.55-1.55-.55-2.49s.18-1.79.55-2.51c.37-.72.89-1.28,1.57-1.69s1.49-.61,2.43-.61c.81,0,1.51.15,2.12.44.61.29,1.09.71,1.44,1.24s.55,1.16.58,1.88h-2.42c-.04-.31-.14-.58-.28-.81s-.33-.41-.57-.54-.51-.19-.83-.19c-.4,0-.75.11-1.04.32-.3.21-.53.53-.69.94-.16.41-.25.91-.25,1.5s.08,1.09.25,1.51c.16.42.39.74.69.96.3.22.64.33,1.04.33.44,0,.82-.14,1.12-.42.3-.28.49-.67.56-1.16h2.42c-.04.71-.23,1.33-.57,1.87-.34.54-.82.96-1.42,1.26-.6.3-1.32.45-2.15.45Z"/>
      <path class="cls-4" d="M230.81,157.29c-.94,0-1.74-.2-2.43-.6-.68-.4-1.21-.96-1.58-1.68-.37-.72-.55-1.55-.55-2.5s.18-1.8.55-2.52c.37-.72.89-1.28,1.58-1.68.68-.4,1.49-.6,2.43-.6s1.75.2,2.44.6c.68.4,1.21.96,1.58,1.68.37.72.55,1.56.55,2.52s-.18,1.79-.55,2.5c-.37.72-.89,1.28-1.58,1.68-.68.4-1.5.6-2.44.6ZM230.83,155.28c.43,0,.78-.12,1.07-.36.29-.24.5-.57.65-.99.15-.42.22-.9.22-1.44s-.07-1.02-.22-1.44c-.15-.42-.36-.74-.65-.98s-.64-.36-1.07-.36-.79.12-1.08.36c-.29.24-.51.56-.66.98-.15.42-.22.89-.22,1.44s.07,1.02.22,1.44c.15.42.37.75.66.99.29.24.65.36,1.08.36Z"/>
      <path class="cls-4" d="M239.42,151.74v5.36h-2.56v-9.28h2.52v1.65h.09c.21-.55.54-.98,1-1.29s1.03-.47,1.73-.47c.64,0,1.2.14,1.68.42.48.28.85.68,1.12,1.2s.4,1.14.4,1.87v5.9h-2.56v-5.45c0-.56-.15-1.01-.44-1.33-.29-.32-.7-.49-1.21-.49-.34,0-.65.08-.91.23-.27.15-.47.37-.62.65s-.22.62-.22,1.02Z"/>
      <path class="cls-4" d="M252.17,147.83v1.94h-5.59v-1.94h5.59ZM247.86,145.62h2.56v8.63c0,.31.07.54.21.68.14.15.36.22.66.22.1,0,.21,0,.33-.02s.23-.04.32-.06l.41,1.93c-.28.08-.55.14-.82.18-.26.04-.52.06-.78.06-.92,0-1.64-.23-2.14-.69-.5-.46-.76-1.11-.76-1.95v-8.97Z"/>
      <path class="cls-4" d="M257.86,157.29c-.95,0-1.77-.19-2.47-.58s-1.22-.94-1.59-1.66c-.37-.72-.55-1.56-.55-2.54s.18-1.79.55-2.51c.37-.72.89-1.28,1.56-1.69.67-.4,1.46-.61,2.37-.61.61,0,1.19.1,1.72.29.53.2,1,.49,1.39.88.4.39.71.88.93,1.47.22.59.33,1.28.33,2.07v.7h-7.84v-1.59h6.59l-1.2.42c0-.47-.07-.88-.22-1.23s-.36-.62-.64-.81c-.28-.19-.64-.29-1.06-.29s-.78.1-1.07.29c-.29.19-.51.46-.67.79s-.23.71-.23,1.15v1.12c0,.5.09.93.27,1.29.18.36.42.63.74.82.32.19.68.29,1.1.29.29,0,.55-.04.78-.12s.43-.2.6-.37c.17-.16.29-.35.38-.58l2.37.16c-.12.57-.36,1.07-.73,1.49-.37.42-.84.75-1.42.99-.58.23-1.25.35-2.02.35Z"/>
      <path class="cls-4" d="M266.11,151.74v5.36h-2.56v-9.28h2.52v1.65h.09c.21-.55.54-.98,1-1.29s1.03-.47,1.73-.47c.64,0,1.2.14,1.68.42.48.28.85.68,1.12,1.2s.4,1.14.4,1.87v5.9h-2.56v-5.45c0-.56-.15-1.01-.44-1.33-.29-.32-.7-.49-1.21-.49-.34,0-.65.08-.91.23-.27.15-.47.37-.62.65s-.22.62-.22,1.02Z"/>
      <path class="cls-4" d="M275.21,146.64c-.38,0-.71-.13-.98-.38s-.41-.56-.41-.92.14-.67.41-.92c.27-.25.6-.38.98-.38s.72.13.99.38c.27.25.41.56.41.92s-.14.67-.41.92-.6.38-.99.38ZM273.94,157.11v-9.28h2.56v9.28h-2.56Z"/>
      <path class="cls-4" d="M281.74,157.26c-.71,0-1.35-.18-1.92-.55s-1.02-.9-1.35-1.61c-.33-.71-.5-1.58-.5-2.61s.17-1.95.51-2.66.8-1.24,1.37-1.59c.57-.35,1.19-.53,1.87-.53.52,0,.95.09,1.3.26.35.17.63.39.85.65s.38.52.49.77h.07v-4.66h2.57v12.37h-2.53v-1.49h-.12c-.12.25-.29.51-.51.76-.22.25-.5.46-.85.63-.35.17-.77.25-1.27.25ZM282.54,155.21c.42,0,.77-.11,1.06-.34.29-.23.51-.55.66-.96.15-.41.23-.89.23-1.44s-.07-1.03-.22-1.44c-.15-.41-.37-.72-.66-.95-.29-.22-.65-.34-1.06-.34s-.77.12-1.06.35-.51.55-.66.96c-.15.41-.22.88-.22,1.42s.07,1.01.22,1.42c.15.41.37.73.66.97.29.23.64.35,1.06.35Z"/>
      <path class="cls-4" d="M293.03,157.29c-.94,0-1.74-.2-2.43-.6-.68-.4-1.21-.96-1.58-1.68-.37-.72-.55-1.55-.55-2.5s.18-1.8.55-2.52c.37-.72.89-1.28,1.58-1.68.68-.4,1.49-.6,2.43-.6s1.75.2,2.44.6c.68.4,1.21.96,1.58,1.68.37.72.55,1.56.55,2.52s-.18,1.79-.55,2.5c-.37.72-.89,1.28-1.58,1.68-.68.4-1.5.6-2.44.6ZM293.04,155.28c.43,0,.78-.12,1.07-.36.29-.24.5-.57.65-.99.15-.42.22-.9.22-1.44s-.07-1.02-.22-1.44c-.15-.42-.36-.74-.65-.98s-.64-.36-1.07-.36-.79.12-1.08.36c-.29.24-.51.56-.66.98-.15.42-.22.89-.22,1.44s.07,1.02.22,1.44c.15.42.37.75.66.99.29.24.65.36,1.08.36Z"/>
      <path class="cls-3" d="M218.61,177.69c-.95,0-1.77-.19-2.47-.58s-1.22-.94-1.59-1.66c-.37-.72-.55-1.56-.55-2.54s.18-1.79.55-2.51c.37-.72.89-1.28,1.56-1.69.67-.4,1.46-.61,2.37-.61.61,0,1.19.1,1.72.29.53.2,1,.49,1.39.88.4.39.71.88.93,1.47.22.59.33,1.28.33,2.07v.7h-7.84v-1.59h6.59l-1.2.42c0-.47-.07-.88-.22-1.23s-.36-.62-.64-.81c-.28-.19-.64-.29-1.06-.29s-.78.1-1.07.29c-.29.19-.51.46-.67.79s-.23.71-.23,1.15v1.12c0,.5.09.93.27,1.29.18.36.42.63.74.82.32.19.68.29,1.1.29.29,0,.55-.04.78-.12s.43-.2.6-.37c.17-.16.29-.35.38-.58l2.37.16c-.12.57-.36,1.07-.73,1.49-.37.42-.84.75-1.42.99-.58.23-1.25.35-2.02.35Z"/>
      <path class="cls-3" d="M226.76,172.14v5.36h-2.56v-9.28h2.52v1.65h.09c.21-.55.54-.98,1-1.29s1.03-.47,1.73-.47c.64,0,1.2.14,1.68.42.48.28.85.68,1.12,1.2s.4,1.14.4,1.87v5.9h-2.56v-5.45c0-.56-.15-1.01-.44-1.33-.29-.32-.7-.49-1.21-.49-.34,0-.65.08-.91.23-.27.15-.47.37-.62.65s-.22.62-.22,1.02Z"/>
      <path class="cls-3" d="M238.15,177.51v-12.37h2.61v10.21h5.3v2.16h-7.91Z"/>
      <path class="cls-3" d="M251.67,177.69c-.95,0-1.77-.19-2.47-.58s-1.22-.94-1.59-1.66c-.37-.72-.55-1.56-.55-2.54s.18-1.79.55-2.51c.37-.72.89-1.28,1.56-1.69.67-.4,1.46-.61,2.37-.61.61,0,1.19.1,1.72.29.53.2,1,.49,1.39.88.4.39.71.88.93,1.47.22.59.33,1.28.33,2.07v.7h-7.84v-1.59h6.59l-1.2.42c0-.47-.07-.88-.22-1.23s-.36-.62-.64-.81c-.28-.19-.64-.29-1.06-.29s-.78.1-1.07.29c-.29.19-.51.46-.67.79s-.23.71-.23,1.15v1.12c0,.5.09.93.27,1.29.18.36.42.63.74.82.32.19.68.29,1.1.29.29,0,.55-.04.78-.12s.43-.2.6-.37c.17-.16.29-.35.38-.58l2.37.16c-.12.57-.36,1.07-.73,1.49-.37.42-.84.75-1.42.99-.58.23-1.25.35-2.02.35Z"/>
      <path class="cls-3" d="M259.81,172.14v5.36h-2.56v-9.28h2.52v1.65h.09c.21-.55.54-.98,1-1.29s1.03-.47,1.73-.47c.64,0,1.2.14,1.68.42.48.28.85.68,1.12,1.2s.4,1.14.4,1.87v5.9h-2.56v-5.45c0-.56-.15-1.01-.44-1.33-.29-.32-.7-.49-1.21-.49-.34,0-.65.08-.91.23-.27.15-.47.37-.62.65s-.22.62-.22,1.02Z"/>
      <path class="cls-3" d="M271.69,181.17c-1.25,0-2.23-.25-2.94-.74-.71-.5-1.14-1.11-1.29-1.85l2.37-.32c.07.19.19.36.34.52s.36.29.62.39c.26.1.58.15.95.15.56,0,1.02-.13,1.39-.4.37-.27.55-.72.55-1.36v-1.7h-.11c-.11.25-.28.5-.51.73s-.52.42-.87.56-.78.22-1.27.22c-.7,0-1.33-.16-1.9-.49-.57-.32-1.02-.82-1.36-1.49-.34-.67-.51-1.52-.51-2.54s.17-1.94.52-2.64c.35-.7.8-1.23,1.37-1.58.57-.35,1.2-.53,1.88-.53.52,0,.96.09,1.31.26.35.17.64.39.86.65s.39.52.5.77h.1v-1.57h2.53v9.38c0,.79-.19,1.44-.58,1.98s-.92.93-1.6,1.2-1.46.4-2.35.4ZM271.74,175.44c.62,0,1.1-.23,1.44-.69.34-.46.51-1.1.51-1.91,0-.54-.08-1.01-.23-1.42-.15-.4-.37-.71-.66-.94-.29-.22-.64-.34-1.06-.34s-.78.11-1.07.34c-.29.23-.51.55-.66.95s-.22.87-.22,1.39.07.99.22,1.38c.15.39.37.69.66.9.29.21.65.32,1.07.32Z"/>
      <path class="cls-3" d="M283.92,173.56v-5.34h2.56v9.28h-2.47v-1.69h-.1c-.21.54-.56.97-1.04,1.31-.48.33-1.07.5-1.77.49-.62,0-1.17-.14-1.64-.42-.47-.28-.84-.68-1.1-1.2-.26-.52-.39-1.14-.39-1.87v-5.91h2.56v5.46c0,.54.15.97.44,1.29.29.32.68.47,1.17.47.31,0,.6-.07.86-.21.27-.14.48-.35.65-.63.17-.28.25-.63.25-1.04Z"/>
      <path class="cls-3" d="M290.87,177.68c-.59,0-1.11-.1-1.58-.31-.47-.21-.83-.52-1.1-.93s-.4-.92-.4-1.53c0-.52.09-.95.28-1.3.19-.35.45-.63.77-.84s.7-.38,1.11-.49.85-.19,1.32-.23c.54-.05.97-.1,1.29-.15s.57-.13.72-.23c.15-.1.23-.25.23-.44v-.04c0-.38-.12-.68-.36-.89-.24-.21-.58-.32-1.02-.32-.46,0-.83.1-1.1.3-.27.2-.46.46-.54.77l-2.38-.19c.12-.56.36-1.05.71-1.46.35-.41.81-.73,1.37-.96.56-.22,1.21-.34,1.96-.34.51,0,1.01.06,1.48.18s.89.31,1.26.56c.37.25.66.58.88.98s.32.87.32,1.42v6.26h-2.45v-1.29h-.07c-.15.29-.35.55-.6.77-.25.22-.55.39-.9.51-.35.12-.75.19-1.21.19ZM291.61,175.9c.38,0,.71-.08,1-.23.29-.15.52-.36.68-.61.16-.26.25-.55.25-.87v-.99c-.08.05-.19.1-.33.14-.14.04-.3.08-.47.12s-.34.06-.51.09c-.17.02-.33.05-.46.07-.3.04-.57.11-.8.21-.23.1-.4.23-.53.39-.12.16-.19.37-.19.61,0,.35.13.61.38.8s.58.27.98.27Z"/>
      <path class="cls-3" d="M213.49,201.38c-.33,0-.63-.02-.92-.07-.28-.05-.52-.11-.7-.19l.58-1.92.08.02c.43.13.8.16,1.11.09.31-.07.54-.31.7-.73l.15-.4-3.32-9.55h2.7l1.92,6.81h.1l1.94-6.81h2.71l-3.6,10.28c-.17.5-.41.93-.7,1.3-.3.37-.67.66-1.12.86-.45.2-.99.3-1.64.3Z"/>
      <path class="cls-3" d="M225.22,197.91v-12.37h2.61v10.21h5.3v2.16h-7.91Z"/>
      <path class="cls-3" d="M235.8,187.44c-.38,0-.71-.13-.98-.38s-.41-.56-.41-.92.14-.67.41-.92c.27-.25.6-.38.98-.38s.72.13.99.38c.27.25.41.56.41.92s-.14.67-.41.92-.6.38-.99.38ZM234.52,197.91v-9.28h2.56v9.28h-2.56Z"/>
      <path class="cls-3" d="M243.75,188.63v1.94h-5.59v-1.94h5.59ZM239.44,186.42h2.56v8.63c0,.31.07.54.21.68.14.15.36.22.66.22.1,0,.21,0,.33-.02s.23-.04.32-.06l.41,1.93c-.28.08-.55.14-.82.18-.26.04-.52.06-.78.06-.92,0-1.64-.23-2.14-.69-.5-.46-.76-1.11-.76-1.95v-8.97Z"/>
      <path class="cls-3" d="M249.34,198.09c-.95,0-1.77-.19-2.47-.58s-1.22-.94-1.59-1.66c-.37-.72-.55-1.56-.55-2.54s.18-1.79.55-2.51c.37-.72.89-1.28,1.56-1.69.67-.4,1.46-.61,2.37-.61.61,0,1.19.1,1.72.29.53.2,1,.49,1.39.88.4.39.71.88.93,1.47.22.59.33,1.28.33,2.07v.7h-7.84v-1.59h6.59l-1.2.42c0-.47-.07-.88-.22-1.23s-.36-.62-.64-.81c-.28-.19-.64-.29-1.06-.29s-.78.1-1.07.29c-.29.19-.51.46-.67.79s-.23.71-.23,1.15v1.12c0,.5.09.93.27,1.29.18.36.42.63.74.82.32.19.68.29,1.1.29.29,0,.55-.04.78-.12s.43-.2.6-.37c.17-.16.29-.35.38-.58l2.37.16c-.12.57-.36,1.07-.73,1.49-.37.42-.84.75-1.42.99-.58.23-1.25.35-2.02.35Z"/>
      <path class="cls-3" d="M254.92,197.91v-9.28h2.48v1.63h.1c.17-.58.46-1.01.85-1.31.4-.3.85-.44,1.37-.44.13,0,.27,0,.42.02.15.01.28.04.39.07v2.27c-.12-.04-.29-.07-.5-.1-.21-.02-.41-.04-.59-.04-.37,0-.71.08-1,.25-.3.16-.53.39-.7.68-.17.29-.25.62-.25,1v5.25h-2.56Z"/>
      <path class="cls-3" d="M264.19,198.08c-.59,0-1.11-.1-1.58-.31-.47-.21-.83-.52-1.1-.93s-.4-.92-.4-1.53c0-.52.09-.95.28-1.3.19-.35.45-.63.77-.84s.7-.38,1.11-.49.85-.19,1.32-.23c.54-.05.97-.1,1.29-.15s.57-.13.72-.23c.15-.1.23-.25.23-.44v-.04c0-.38-.12-.68-.36-.89-.24-.21-.58-.32-1.02-.32-.46,0-.83.1-1.1.3-.27.2-.46.46-.54.77l-2.38-.19c.12-.56.36-1.05.71-1.46.35-.41.81-.73,1.37-.96.56-.22,1.21-.34,1.96-.34.51,0,1.01.06,1.48.18s.89.31,1.26.56c.37.25.66.58.88.98s.32.87.32,1.42v6.26h-2.45v-1.29h-.07c-.15.29-.35.55-.6.77-.25.22-.55.39-.9.51-.35.12-.75.19-1.21.19ZM264.93,196.3c.38,0,.71-.08,1-.23.29-.15.52-.36.68-.61.16-.26.25-.55.25-.87v-.99c-.08.05-.19.1-.33.14-.14.04-.3.08-.47.12s-.34.06-.51.09c-.17.02-.33.05-.46.07-.3.04-.57.11-.8.21-.23.1-.4.23-.53.39-.12.16-.19.37-.19.61,0,.35.13.61.38.8s.58.27.98.27Z"/>
      <path class="cls-3" d="M276.07,188.63v1.94h-5.59v-1.94h5.59ZM271.76,186.42h2.56v8.63c0,.31.07.54.21.68.14.15.36.22.66.22.1,0,.21,0,.33-.02s.23-.04.32-.06l.41,1.93c-.28.08-.55.14-.82.18-.26.04-.52.06-.78.06-.92,0-1.64-.23-2.14-.69-.5-.46-.76-1.11-.76-1.95v-8.97Z"/>
      <path class="cls-3" d="M283.38,193.96v-5.34h2.56v9.28h-2.47v-1.69h-.1c-.21.54-.56.97-1.04,1.31-.48.33-1.07.5-1.77.49-.62,0-1.17-.14-1.64-.42-.47-.28-.84-.68-1.1-1.2-.26-.52-.39-1.14-.39-1.87v-5.91h2.56v5.46c0,.54.15.97.44,1.29.29.32.68.47,1.17.47.31,0,.6-.07.86-.21.27-.14.48-.35.65-.63.17-.28.25-.63.25-1.04Z"/>
      <path class="cls-3" d="M287.69,197.91v-9.28h2.48v1.63h.1c.17-.58.46-1.01.85-1.31.4-.3.85-.44,1.37-.44.13,0,.27,0,.42.02.15.01.28.04.39.07v2.27c-.12-.04-.29-.07-.5-.1-.21-.02-.41-.04-.59-.04-.37,0-.71.08-1,.25-.3.16-.53.39-.7.68-.17.29-.25.62-.25,1v5.25h-2.56Z"/>
      <path class="cls-3" d="M296.96,198.08c-.59,0-1.11-.1-1.58-.31-.47-.21-.83-.52-1.1-.93s-.4-.92-.4-1.53c0-.52.09-.95.28-1.3.19-.35.45-.63.77-.84s.7-.38,1.11-.49.85-.19,1.32-.23c.54-.05.97-.1,1.29-.15s.57-.13.72-.23c.15-.1.23-.25.23-.44v-.04c0-.38-.12-.68-.36-.89-.24-.21-.58-.32-1.02-.32-.46,0-.83.1-1.1.3-.27.2-.46.46-.54.77l-2.38-.19c.12-.56.36-1.05.71-1.46.35-.41.81-.73,1.37-.96.56-.22,1.21-.34,1.96-.34.51,0,1.01.06,1.48.18s.89.31,1.26.56c.37.25.66.58.88.98s.32.87.32,1.42v6.26h-2.45v-1.29h-.07c-.15.29-.35.55-.6.77-.25.22-.55.39-.9.51-.35.12-.75.19-1.21.19ZM297.7,196.3c.38,0,.71-.08,1-.23.29-.15.52-.36.68-.61.16-.26.25-.55.25-.87v-.99c-.08.05-.19.1-.33.14-.14.04-.3.08-.47.12s-.34.06-.51.09c-.17.02-.33.05-.46.07-.3.04-.57.11-.8.21-.23.1-.4.23-.53.39-.12.16-.19.37-.19.61,0,.35.13.61.38.8s.58.27.98.27Z"/>
    </g>
    <text class="cls-1" transform="translate(290.18 14.66)"><tspan x="0" y="0">Oralidad </tspan><tspan x="0" y="20.37">(escucha y habla)</tspan></text>
    <text class="cls-1" transform="translate(0 210.65)"><tspan x="0" y="0">Conocimiento </tspan><tspan x="0" y="20.37">y reflexión sobre </tspan><tspan x="0" y="40.74">la lengua y los textos</tspan></text>
    <text class="cls-1" transform="translate(387.32 169.68)"><tspan x="0" y="0">Escritura</tspan></text>
    <text class="cls-1" transform="translate(80.63 88.18)"><tspan x="0" y="0">Literatura</tspan></text>
    <text class="cls-1" transform="translate(290.18 299.47)"><tspan x="0" y="0">Lectura</tspan></text>
    <path class="cls-6" d="M371.2,162.81c10.47-12.09,16.82-27.85,16.82-45.1,0-38.09-30.88-68.97-68.97-68.97-9.57,0-18.69,1.95-26.98,5.48"/>
    <path class="cls-6" d="M291.97,54.36c-8.43-13.6-21.58-24.35-38.05-29.49-36.36-11.35-75.04,8.93-86.39,45.3-2.85,9.14-3.7,18.42-2.81,27.39"/>
    <path class="cls-6" d="M149.48,97.05c-15.09,5.32-28.41,15.86-36.96,30.84-18.88,33.09-7.37,75.21,25.72,94.09,8.32,4.75,17.2,7.57,26.15,8.61"/>
    <path class="cls-6" d="M290.18,269.9c14.6,6.54,31.52,8.07,48.04,3.09,36.47-10.99,57.14-49.46,46.15-85.94-2.76-9.17-7.26-17.33-13.03-24.25"/>
    <path class="cls-6" d="M164.62,233.52c-1.52,15.92,2.44,32.44,12.43,46.5,22.08,31.05,65.14,38.32,96.18,16.24,7.8-5.55,14.1-12.42,18.81-20.1"/>
    <g>
      <circle class="cls-6" cx="257.04" cy="163.59" r="113.2"/>
      <circle class="cls-5" cx="292.05" cy="271.27" r="8.86"/>
      <circle class="cls-5" cx="165.46" cy="97.04" r="8.86"/>
      <circle class="cls-5" cx="292.05" cy="55.91" r="8.86"/>
      <circle class="cls-5" cx="165.46" cy="230.14" r="8.86"/>
      <circle class="cls-5" cx="370.24" cy="163.59" r="8.86"/>
    </g>
  </g>
</svg>