<?xml version="1.0" encoding="UTF-8"?>
<svg id="Capa_2" data-name="Capa 2" xmlns="http://www.w3.org/2000/svg" viewBox="0 0 511.91 357.72">
  <defs>
    <style>
      .cls-1 {
        fill: #89133b;
      }

      .cls-2 {
        stroke-dasharray: 4.62 4.62;
      }

      .cls-2, .cls-3 {
        fill: none;
        stroke: #4b4a63;
        stroke-width: .66px;
      }

      .cls-2, .cls-3, .cls-4 {
        stroke-miterlimit: 10;
      }

      .cls-5 {
        font-family: InterTight-Regular, 'Inter Tight';
        font-size: 18px;
      }

      .cls-5, .cls-6 {
        fill: #e42254;
      }

      .cls-7, .cls-4 {
        fill: #fff;
      }

      .cls-3 {
        stroke-dasharray: 4.62;
      }

      .cls-4 {
        stroke: #e42254;
        stroke-width: 3.75px;
      }
    </style>
  </defs>
  <g id="Capa_1-2" data-name="Capa 1">
    <g>
      <path class="cls-3" d="M240.51,62.69c14.22-12.59,32.92-20.23,53.4-20.23,44.51,0,80.59,36.09,80.59,80.6,0,20.62-7.75,39.45-20.5,53.7"/>
      <path class="cls-3" d="M354,176.76c12.75,14.25,20.5,33.08,20.5,53.7,0,44.51-36.08,80.6-80.59,80.6-20.96,0-40.06-8.01-54.4-21.13"/>
      <path class="cls-3" d="M126.37,176.03c-11.82,14.02-18.94,32.13-18.94,51.9,0,44.5,36.08,80.59,80.59,80.59,19.57,0,37.53-6.98,51.48-18.59"/>
      <path class="cls-3" d="M126.37,176.03c-12.36-14.16-19.86-32.7-19.86-52.97,0-44.51,36.08-80.6,80.59-80.6,20.48,0,39.17,7.64,53.4,20.23"/>
    </g>
    <circle class="cls-6" cx="244.26" cy="177.49" r="80.31"/>
    <g>
      <path class="cls-7" d="M215.71,164.12v-12.37h8.33v2.16h-5.73v2.91h5.3v2.12h-5.3v3.03h5.74v2.16h-8.35Z"/>
      <path class="cls-7" d="M225.86,154.84h2.56v9.75c0,.71-.14,1.29-.42,1.73-.28.44-.69.76-1.21.97-.53.2-1.15.31-1.88.31h-.52v-2.01h.33c.42,0,.71-.09.88-.26s.25-.43.26-.78v-9.7ZM227.13,153.65c-.38,0-.71-.13-.98-.38s-.41-.56-.41-.92.14-.67.41-.92c.27-.25.6-.38.98-.38s.72.13.99.38c.27.25.41.56.41.92s-.14.67-.41.92c-.27.25-.6.38-.99.38Z"/>
      <path class="cls-7" d="M234.5,164.3c-.95,0-1.77-.19-2.46-.58-.69-.39-1.22-.94-1.59-1.66-.37-.72-.55-1.56-.55-2.54s.18-1.79.55-2.51.89-1.28,1.56-1.69c.67-.4,1.46-.61,2.37-.61.62,0,1.19.1,1.72.29.53.2,1,.49,1.39.88.4.39.71.88.93,1.47.22.59.33,1.28.33,2.07v.7h-7.84v-1.59h6.59l-1.2.42c0-.47-.07-.88-.22-1.23s-.36-.62-.64-.81c-.29-.19-.64-.29-1.06-.29s-.78.1-1.07.29c-.29.19-.51.46-.67.79s-.23.71-.23,1.15v1.12c0,.5.09.93.27,1.29.18.36.42.63.74.82.32.19.68.29,1.1.29.29,0,.55-.04.78-.12s.43-.2.6-.37.29-.35.38-.58l2.37.16c-.12.57-.36,1.07-.73,1.49-.37.42-.84.75-1.42.99-.58.23-1.25.35-2.02.35Z"/>
      <path class="cls-7" d="M247.89,157.49l-2.35.14c-.06-.29-.22-.55-.49-.76-.27-.21-.62-.32-1.07-.32-.4,0-.73.08-1,.25s-.4.39-.4.66c0,.22.09.41.26.57.17.16.47.28.9.37l1.68.33c.9.18,1.57.48,2.02.89.44.41.66.95.66,1.62,0,.61-.18,1.15-.53,1.61-.35.46-.84.81-1.46,1.07-.62.26-1.33.39-2.13.39-1.23,0-2.21-.26-2.93-.77s-1.15-1.21-1.27-2.09l2.52-.13c.08.38.27.66.56.85s.67.29,1.13.29.81-.09,1.09-.27.42-.4.42-.67c0-.46-.4-.77-1.2-.93l-1.6-.33c-.9-.18-1.57-.5-2.02-.94s-.66-1.01-.66-1.7c0-.6.16-1.11.49-1.54.33-.43.79-.76,1.37-1,.59-.23,1.28-.35,2.07-.35,1.17,0,2.1.25,2.77.74.67.5,1.06,1.17,1.17,2.02Z"/>
      <path class="cls-7" d="M256.63,164.27c-.71,0-1.35-.18-1.92-.55s-1.02-.9-1.35-1.61c-.33-.71-.5-1.58-.5-2.61s.17-1.95.52-2.66c.34-.71.8-1.24,1.37-1.59.57-.35,1.19-.53,1.87-.53.52,0,.96.09,1.3.26.35.17.63.39.85.65s.38.52.49.77h.07v-4.66h2.57v12.37h-2.53v-1.49h-.12c-.12.25-.29.51-.51.76-.22.25-.5.46-.85.63s-.77.25-1.27.25ZM257.44,162.23c.42,0,.77-.11,1.06-.34.29-.23.51-.55.66-.96s.23-.89.23-1.44-.08-1.03-.22-1.44c-.15-.41-.37-.72-.66-.95-.29-.22-.65-.34-1.06-.34s-.77.12-1.06.35-.51.55-.66.96c-.15.41-.22.88-.22,1.42s.08,1.01.22,1.42c.15.41.37.73.66.97.29.23.64.35,1.06.35Z"/>
      <path class="cls-7" d="M267.97,164.3c-.95,0-1.77-.19-2.46-.58-.69-.39-1.22-.94-1.59-1.66-.37-.72-.55-1.56-.55-2.54s.18-1.79.55-2.51.89-1.28,1.56-1.69c.67-.4,1.46-.61,2.37-.61.62,0,1.19.1,1.72.29.53.2,1,.49,1.39.88.4.39.71.88.93,1.47.22.59.33,1.28.33,2.07v.7h-7.84v-1.59h6.59l-1.2.42c0-.47-.07-.88-.22-1.23s-.36-.62-.64-.81c-.29-.19-.64-.29-1.06-.29s-.78.1-1.07.29c-.29.19-.51.46-.67.79s-.23.71-.23,1.15v1.12c0,.5.09.93.27,1.29.18.36.42.63.74.82.32.19.68.29,1.1.29.29,0,.55-.04.78-.12s.43-.2.6-.37.29-.35.38-.58l2.37.16c-.12.57-.36,1.07-.73,1.49-.37.42-.84.75-1.42.99-.58.23-1.25.35-2.02.35Z"/>
      <path class="cls-7" d="M209.6,184.7c-.95,0-1.76-.2-2.44-.61-.68-.41-1.2-.97-1.57-1.68-.37-.72-.55-1.55-.55-2.49s.18-1.79.55-2.51.89-1.28,1.57-1.69c.68-.4,1.49-.61,2.43-.61.81,0,1.51.15,2.12.44.61.29,1.09.71,1.44,1.24.35.53.55,1.16.58,1.88h-2.42c-.04-.31-.14-.58-.28-.81-.14-.23-.33-.41-.57-.54s-.51-.19-.83-.19c-.4,0-.75.11-1.04.32-.3.21-.53.53-.69.94-.16.41-.25.91-.25,1.5s.08,1.09.25,1.51.39.74.69.96.64.33,1.04.33c.44,0,.82-.14,1.12-.42.3-.28.49-.67.56-1.16h2.42c-.04.71-.23,1.33-.57,1.87-.34.54-.82.96-1.42,1.26s-1.32.45-2.15.45Z"/>
      <path class="cls-7" d="M219.37,184.7c-.94,0-1.74-.2-2.43-.6-.68-.4-1.21-.96-1.58-1.68-.37-.72-.55-1.55-.55-2.5s.18-1.8.55-2.52c.37-.72.89-1.28,1.58-1.68.68-.4,1.49-.6,2.43-.6s1.75.2,2.44.6c.68.4,1.21.96,1.58,1.68.37.72.55,1.56.55,2.52s-.18,1.79-.55,2.5c-.37.72-.89,1.28-1.58,1.68-.68.4-1.5.6-2.44.6ZM219.39,182.69c.43,0,.78-.12,1.07-.36.29-.24.51-.57.65-.99s.22-.9.22-1.44-.07-1.02-.22-1.44-.36-.74-.65-.98c-.29-.24-.64-.36-1.07-.36s-.79.12-1.08.36c-.29.24-.51.56-.66.98s-.22.89-.22,1.44.07,1.02.22,1.44.37.75.66.99c.29.24.65.36,1.08.36Z"/>
      <path class="cls-7" d="M227.98,179.16v5.36h-2.56v-9.28h2.52v1.65h.09c.21-.55.54-.98,1-1.29.46-.32,1.03-.47,1.73-.47.64,0,1.2.14,1.68.42s.85.68,1.12,1.2.4,1.14.4,1.87v5.9h-2.56v-5.45c0-.56-.15-1.01-.44-1.33-.29-.32-.7-.49-1.21-.49-.34,0-.65.08-.91.23-.27.15-.47.37-.62.65-.15.28-.22.62-.22,1.02Z"/>
      <path class="cls-7" d="M240.73,175.24v1.94h-5.59v-1.94h5.59ZM236.41,173.03h2.56v8.63c0,.31.07.54.21.68.14.15.36.22.66.22.1,0,.21,0,.33-.02s.23-.04.32-.06l.41,1.93c-.28.08-.55.14-.82.18s-.52.06-.78.06c-.92,0-1.64-.23-2.14-.69-.5-.46-.76-1.11-.76-1.95v-8.97Z"/>
      <path class="cls-7" d="M246.41,184.7c-.95,0-1.77-.19-2.46-.58-.69-.39-1.22-.94-1.59-1.66-.37-.72-.55-1.56-.55-2.54s.18-1.79.55-2.51.89-1.28,1.56-1.69c.67-.4,1.46-.61,2.37-.61.62,0,1.19.1,1.72.29.53.2,1,.49,1.39.88.4.39.71.88.93,1.47.22.59.33,1.28.33,2.07v.7h-7.84v-1.59h6.59l-1.2.42c0-.47-.07-.88-.22-1.23s-.36-.62-.64-.81c-.29-.19-.64-.29-1.06-.29s-.78.1-1.07.29c-.29.19-.51.46-.67.79s-.23.71-.23,1.15v1.12c0,.5.09.93.27,1.29.18.36.42.63.74.82.32.19.68.29,1.1.29.29,0,.55-.04.78-.12s.43-.2.6-.37.29-.35.38-.58l2.37.16c-.12.57-.36,1.07-.73,1.49-.37.42-.84.75-1.42.99-.58.23-1.25.35-2.02.35Z"/>
      <path class="cls-7" d="M254.67,179.16v5.36h-2.56v-9.28h2.52v1.65h.09c.21-.55.54-.98,1-1.29.46-.32,1.03-.47,1.73-.47.64,0,1.2.14,1.68.42s.85.68,1.12,1.2.4,1.14.4,1.87v5.9h-2.56v-5.45c0-.56-.15-1.01-.44-1.33-.29-.32-.7-.49-1.21-.49-.34,0-.65.08-.91.23-.27.15-.47.37-.62.65-.15.28-.22.62-.22,1.02Z"/>
      <path class="cls-7" d="M263.77,174.05c-.38,0-.71-.13-.98-.38-.27-.25-.41-.56-.41-.92s.14-.67.41-.92c.27-.25.6-.38.98-.38s.72.13.99.38c.27.25.41.56.41.92s-.13.67-.41.92-.6.38-.99.38ZM262.49,184.52v-9.28h2.56v9.28h-2.56Z"/>
      <path class="cls-7" d="M270.29,184.67c-.71,0-1.35-.18-1.92-.55s-1.02-.9-1.35-1.61c-.33-.71-.5-1.58-.5-2.61s.17-1.95.52-2.66c.34-.71.8-1.24,1.37-1.59.57-.35,1.19-.53,1.87-.53.52,0,.96.09,1.3.26.35.17.63.39.85.65s.38.52.49.77h.07v-4.66h2.57v12.37h-2.53v-1.49h-.12c-.12.25-.29.51-.51.76-.22.25-.5.46-.85.63s-.77.25-1.27.25ZM271.1,182.62c.42,0,.77-.11,1.06-.34.29-.23.51-.55.66-.96s.23-.89.23-1.44-.08-1.03-.22-1.44c-.15-.41-.37-.72-.66-.95-.29-.22-.65-.34-1.06-.34s-.77.12-1.06.35-.51.55-.66.96c-.15.41-.22.88-.22,1.42s.08,1.01.22,1.42c.15.41.37.73.66.97.29.23.64.35,1.06.35Z"/>
      <path class="cls-7" d="M281.58,184.7c-.94,0-1.74-.2-2.43-.6-.68-.4-1.21-.96-1.58-1.68-.37-.72-.55-1.55-.55-2.5s.18-1.8.55-2.52c.37-.72.89-1.28,1.58-1.68.68-.4,1.49-.6,2.43-.6s1.75.2,2.44.6c.68.4,1.21.96,1.58,1.68.37.72.55,1.56.55,2.52s-.18,1.79-.55,2.5c-.37.72-.89,1.28-1.58,1.68-.68.4-1.5.6-2.44.6ZM281.6,182.69c.43,0,.78-.12,1.07-.36.29-.24.51-.57.65-.99s.22-.9.22-1.44-.07-1.02-.22-1.44-.36-.74-.65-.98c-.29-.24-.64-.36-1.07-.36s-.79.12-1.08.36c-.29.24-.51.56-.66.98s-.22.89-.22,1.44.07,1.02.22,1.44.37.75.66.99c.29.24.65.36,1.08.36Z"/>
      <path class="cls-1" d="M190.41,205.1c-.95,0-1.77-.19-2.46-.58-.69-.39-1.22-.94-1.59-1.66-.37-.72-.55-1.56-.55-2.54s.18-1.79.55-2.51.89-1.28,1.56-1.69c.67-.4,1.46-.61,2.37-.61.62,0,1.19.1,1.72.29.53.2,1,.49,1.39.88.4.39.71.88.93,1.47.22.59.33,1.28.33,2.07v.7h-7.84v-1.59h6.59l-1.2.42c0-.47-.07-.88-.22-1.23s-.36-.62-.64-.81c-.29-.19-.64-.29-1.06-.29s-.78.1-1.07.29c-.29.19-.51.46-.67.79s-.23.71-.23,1.15v1.12c0,.5.09.93.27,1.29.18.36.42.63.74.82.32.19.68.29,1.1.29.29,0,.55-.04.78-.12s.43-.2.6-.37.29-.35.38-.58l2.37.16c-.12.57-.36,1.07-.73,1.49-.37.42-.84.75-1.42.99-.58.23-1.25.35-2.02.35Z"/>
      <path class="cls-1" d="M198.66,199.56v5.36h-2.56v-9.28h2.52v1.65h.09c.21-.55.54-.98,1-1.29.46-.32,1.03-.47,1.73-.47.64,0,1.2.14,1.68.42s.85.68,1.12,1.2.4,1.14.4,1.87v5.9h-2.56v-5.45c0-.56-.15-1.01-.44-1.33-.29-.32-.7-.49-1.21-.49-.34,0-.65.08-.91.23-.27.15-.47.37-.62.65-.15.28-.22.62-.22,1.02Z"/>
      <path class="cls-1" d="M210.26,192.55h3.23l3.4,8.31h.14l3.41-8.31h3.24v12.37h-2.56v-8.05h-.1l-3.21,7.99h-1.73l-3.19-8.01h-.1v8.07h-2.54v-12.37Z"/>
      <path class="cls-1" d="M228.21,205.09c-.59,0-1.11-.1-1.58-.31-.47-.21-.83-.52-1.1-.93s-.4-.92-.4-1.53c0-.52.09-.95.28-1.3.19-.35.45-.63.77-.84.33-.22.7-.38,1.11-.49.41-.11.85-.19,1.32-.23.54-.05.97-.1,1.29-.15s.57-.13.72-.23c.15-.1.23-.25.23-.44v-.04c0-.38-.12-.68-.36-.89-.24-.21-.58-.32-1.02-.32-.46,0-.83.1-1.1.3-.27.2-.46.46-.54.77l-2.38-.19c.12-.56.36-1.05.71-1.46.35-.41.81-.73,1.37-.96.56-.22,1.21-.34,1.96-.34.51,0,1.01.06,1.48.18s.89.31,1.26.56c.37.25.66.58.88.98.21.4.32.87.32,1.42v6.26h-2.45v-1.29h-.07c-.15.29-.35.55-.6.77-.25.22-.55.39-.9.51-.35.12-.75.19-1.21.19ZM228.95,203.32c.38,0,.71-.08,1-.23.29-.15.52-.36.68-.61.16-.26.25-.55.25-.87v-.99c-.08.05-.19.1-.33.14-.14.04-.3.08-.47.12s-.34.06-.51.09c-.17.02-.33.05-.46.07-.3.04-.57.11-.8.21-.23.1-.4.23-.53.39-.12.16-.19.37-.19.61,0,.35.13.61.38.8s.58.27.98.27Z"/>
      <path class="cls-1" d="M240.2,195.64v1.94h-5.59v-1.94h5.59ZM235.88,193.43h2.56v8.63c0,.31.07.54.21.68.14.15.36.22.66.22.1,0,.21,0,.33-.02s.23-.04.32-.06l.41,1.93c-.28.08-.55.14-.82.18s-.52.06-.78.06c-.92,0-1.64-.23-2.14-.69-.5-.46-.76-1.11-.76-1.95v-8.97Z"/>
      <path class="cls-1" d="M245.88,205.1c-.95,0-1.77-.19-2.46-.58-.69-.39-1.22-.94-1.59-1.66-.37-.72-.55-1.56-.55-2.54s.18-1.79.55-2.51.89-1.28,1.56-1.69c.67-.4,1.46-.61,2.37-.61.62,0,1.19.1,1.72.29.53.2,1,.49,1.39.88.4.39.71.88.93,1.47.22.59.33,1.28.33,2.07v.7h-7.84v-1.59h6.59l-1.2.42c0-.47-.07-.88-.22-1.23s-.36-.62-.64-.81c-.29-.19-.64-.29-1.06-.29s-.78.1-1.07.29c-.29.19-.51.46-.67.79s-.23.71-.23,1.15v1.12c0,.5.09.93.27,1.29.18.36.42.63.74.82.32.19.68.29,1.1.29.29,0,.55-.04.78-.12s.43-.2.6-.37.29-.35.38-.58l2.37.16c-.12.57-.36,1.07-.73,1.49-.37.42-.84.75-1.42.99-.58.23-1.25.35-2.02.35Z"/>
      <path class="cls-1" d="M251.57,204.92v-9.28h2.43v1.65h.12c.19-.55.52-.98.97-1.29.45-.32.99-.47,1.62-.47s1.18.16,1.62.48c.45.32.74.75.89,1.29h.1c.19-.54.53-.97,1.03-1.29s1.08-.48,1.76-.48c.86,0,1.57.27,2.11.82s.82,1.33.82,2.33v6.24h-2.57v-5.73c0-.52-.14-.91-.41-1.16-.27-.25-.62-.38-1.02-.38-.46,0-.83.15-1.09.44-.26.3-.39.68-.39,1.17v5.66h-2.49v-5.79c0-.45-.13-.81-.39-1.08-.26-.27-.6-.4-1.02-.4-.29,0-.54.07-.77.22-.23.14-.41.34-.54.59-.13.25-.2.55-.2.9v5.56h-2.56Z"/>
      <path class="cls-1" d="M269.53,205.09c-.59,0-1.11-.1-1.58-.31-.47-.21-.83-.52-1.1-.93s-.4-.92-.4-1.53c0-.52.09-.95.28-1.3.19-.35.45-.63.77-.84.33-.22.7-.38,1.11-.49.41-.11.85-.19,1.32-.23.54-.05.97-.1,1.29-.15s.57-.13.72-.23c.15-.1.23-.25.23-.44v-.04c0-.38-.12-.68-.36-.89-.24-.21-.58-.32-1.02-.32-.46,0-.83.1-1.1.3-.27.2-.46.46-.54.77l-2.38-.19c.12-.56.36-1.05.71-1.46.35-.41.81-.73,1.37-.96.56-.22,1.21-.34,1.96-.34.51,0,1.01.06,1.48.18s.89.31,1.26.56c.37.25.66.58.88.98.21.4.32.87.32,1.42v6.26h-2.45v-1.29h-.07c-.15.29-.35.55-.6.77-.25.22-.55.39-.9.51-.35.12-.75.19-1.21.19ZM270.27,203.32c.38,0,.71-.08,1-.23.29-.15.52-.36.68-.61.16-.26.25-.55.25-.87v-.99c-.08.05-.19.1-.33.14-.14.04-.3.08-.47.12s-.34.06-.51.09c-.17.02-.33.05-.46.07-.3.04-.57.11-.8.21-.23.1-.4.23-.53.39-.12.16-.19.37-.19.61,0,.35.13.61.38.8s.58.27.98.27ZM269.96,194.48l1.15-2.53h2.36l-1.73,2.53h-1.79Z"/>
      <path class="cls-1" d="M281.52,195.64v1.94h-5.59v-1.94h5.59ZM277.2,193.43h2.56v8.63c0,.31.07.54.21.68.14.15.36.22.66.22.1,0,.21,0,.33-.02s.23-.04.32-.06l.41,1.93c-.28.08-.55.14-.82.18s-.52.06-.78.06c-.92,0-1.64-.23-2.14-.69-.5-.46-.76-1.11-.76-1.95v-8.97Z"/>
      <path class="cls-1" d="M284.26,194.45c-.38,0-.71-.13-.98-.38-.27-.25-.41-.56-.41-.92s.14-.67.41-.92c.27-.25.6-.38.98-.38s.72.13.99.38c.27.25.41.56.41.92s-.13.67-.41.92-.6.38-.99.38ZM282.98,204.92v-9.28h2.56v9.28h-2.56Z"/>
      <path class="cls-1" d="M291.57,205.1c-.95,0-1.76-.2-2.44-.61-.68-.41-1.2-.97-1.57-1.68-.37-.72-.55-1.55-.55-2.49s.18-1.79.55-2.51.89-1.28,1.57-1.69c.68-.4,1.49-.61,2.43-.61.81,0,1.51.15,2.12.44.61.29,1.09.71,1.44,1.24.35.53.55,1.16.58,1.88h-2.42c-.04-.31-.14-.58-.28-.81-.14-.23-.33-.41-.57-.54s-.51-.19-.83-.19c-.4,0-.75.11-1.04.32-.3.21-.53.53-.69.94-.16.41-.25.91-.25,1.5s.08,1.09.25,1.51.39.74.69.96.64.33,1.04.33c.44,0,.82-.14,1.12-.42.3-.28.49-.67.56-1.16h2.42c-.04.71-.23,1.33-.57,1.87-.34.54-.82.96-1.42,1.26s-1.32.45-2.15.45Z"/>
      <path class="cls-1" d="M299.8,205.09c-.59,0-1.11-.1-1.58-.31-.47-.21-.83-.52-1.1-.93s-.4-.92-.4-1.53c0-.52.09-.95.28-1.3.19-.35.45-.63.77-.84.33-.22.7-.38,1.11-.49.41-.11.85-.19,1.32-.23.54-.05.97-.1,1.29-.15s.57-.13.72-.23c.15-.1.23-.25.23-.44v-.04c0-.38-.12-.68-.36-.89-.24-.21-.58-.32-1.02-.32-.46,0-.83.1-1.1.3-.27.2-.46.46-.54.77l-2.38-.19c.12-.56.36-1.05.71-1.46.35-.41.81-.73,1.37-.96.56-.22,1.21-.34,1.96-.34.51,0,1.01.06,1.48.18s.89.31,1.26.56c.37.25.66.58.88.98.21.4.32.87.32,1.42v6.26h-2.45v-1.29h-.07c-.15.29-.35.55-.6.77-.25.22-.55.39-.9.51-.35.12-.75.19-1.21.19ZM300.54,203.32c.38,0,.71-.08,1-.23.29-.15.52-.36.68-.61.16-.26.25-.55.25-.87v-.99c-.08.05-.19.1-.33.14-.14.04-.3.08-.47.12s-.34.06-.51.09c-.17.02-.33.05-.46.07-.3.04-.57.11-.8.21-.23.1-.4.23-.53.39-.12.16-.19.37-.19.61,0,.35.13.61.38.8s.58.27.98.27Z"/>
    </g>
    <g>
      <circle class="cls-2" cx="240.24" cy="177.49" r="114.81" transform="translate(-55.14 221.86) rotate(-45)"/>
      <circle class="cls-4" cx="125.44" cy="177.49" r="8.04"/>
      <circle class="cls-4" cx="355.05" cy="177.49" r="8.04"/>
      <circle class="cls-4" cx="240.24" cy="292.3" r="8.04"/>
      <circle class="cls-4" cx="240.24" cy="62.69" r="8.04"/>
    </g>
    <g>
      <path class="cls-6" d="M237.18,2.45v13.1h-1.56l-7.12-10.28h-.14v10.28h-1.58V2.45h1.53l7.17,10.3h.12V2.45h1.58Z"/>
      <path class="cls-6" d="M245.49,11.54v-5.82h1.49v9.83h-1.49v-1.67h-.11c-.23.5-.59.92-1.08,1.27-.48.35-1.1.52-1.84.52-.62,0-1.16-.13-1.63-.4s-.85-.68-1.12-1.23c-.27-.55-.41-1.25-.41-2.08v-6.24h1.49v6.15c0,.71.2,1.28.61,1.71.41.43.92.64,1.55.63.38,0,.76-.1,1.15-.29s.72-.48.98-.88.4-.9.4-1.51ZM242.42,4.49l1.23-2.41h1.71l-1.69,2.41h-1.25Z"/>
      <path class="cls-6" d="M248.92,15.55V5.72h1.44v1.55h.14c.21-.53.54-.94.99-1.23s1-.44,1.64-.44,1.18.15,1.61.44c.43.29.77.7,1.01,1.23h.11c.26-.51.64-.92,1.14-1.22.5-.3,1.1-.45,1.8-.45.88,0,1.6.27,2.16.82s.84,1.4.84,2.55v6.57h-1.51v-6.57c0-.73-.2-1.25-.6-1.56s-.87-.47-1.41-.47c-.69,0-1.22.21-1.6.63-.38.42-.57.94-.57,1.57v6.4h-1.55v-6.73c0-.56-.18-1.01-.54-1.35s-.82-.51-1.4-.51c-.39,0-.76.11-1.1.32s-.61.5-.82.87c-.21.37-.31.79-.31,1.27v6.13h-1.49Z"/>
      <path class="cls-6" d="M267.85,15.76c-.94,0-1.76-.21-2.45-.63-.69-.42-1.22-1.01-1.59-1.77s-.55-1.64-.55-2.64.18-1.9.54-2.66.88-1.37,1.53-1.8c.66-.43,1.43-.65,2.32-.65.51,0,1.02.08,1.52.25s.96.45,1.38.83c.41.38.74.88.99,1.51s.37,1.4.37,2.31v.65h-7.58v-1.3h6.76l-.69.49c0-.66-.1-1.24-.31-1.75s-.51-.91-.92-1.2-.91-.44-1.52-.44-1.12.15-1.55.44c-.43.3-.76.68-.99,1.16s-.34.98-.34,1.53v.86c0,.74.13,1.37.39,1.89s.62.91,1.08,1.17,1,.4,1.61.4c.39,0,.75-.06,1.07-.17s.6-.29.83-.52.41-.52.54-.86l1.46.42c-.15.49-.41.92-.77,1.3-.36.37-.81.66-1.34.87s-1.13.31-1.79.31Z"/>
      <path class="cls-6" d="M273.34,15.55V5.72h1.44v1.49h.11c.18-.49.51-.88.98-1.18.47-.3,1-.45,1.59-.45.11,0,.25,0,.41,0s.29,0,.38.01v1.53c-.05-.01-.17-.03-.35-.05s-.38-.04-.58-.04c-.47,0-.9.1-1.27.3s-.67.47-.88.82-.32.74-.32,1.19v6.21h-1.49Z"/>
      <path class="cls-6" d="M283.16,15.76c-.88,0-1.66-.21-2.33-.63s-1.19-1.01-1.56-1.78c-.37-.76-.56-1.65-.56-2.65s.19-1.92.56-2.69c.37-.76.89-1.36,1.56-1.78s1.44-.63,2.33-.63,1.67.21,2.34.63,1.19,1.02,1.56,1.78.56,1.66.56,2.69-.19,1.89-.56,2.65-.9,1.35-1.56,1.78-1.45.63-2.34.63ZM283.16,14.41c.68,0,1.24-.17,1.67-.52s.76-.8.97-1.37.32-1.17.32-1.82-.11-1.28-.32-1.85-.53-1.03-.97-1.38-.99-.52-1.67-.52-1.22.17-1.65.52-.76.81-.97,1.38-.32,1.18-.32,1.85.11,1.26.32,1.82.53,1.02.97,1.37.98.52,1.65.52Z"/>
      <path class="cls-6" d="M296.03,7.94l-1.35.37c-.13-.33-.35-.65-.66-.95s-.8-.45-1.46-.45c-.6,0-1.1.14-1.49.42s-.6.63-.6,1.04c0,.38.14.67.41.9.27.22.7.4,1.28.54l1.46.35c.87.21,1.53.54,1.96.98.43.44.65,1,.65,1.68,0,.56-.16,1.07-.48,1.51s-.77.8-1.34,1.05-1.24.39-2,.39c-1,0-1.83-.22-2.48-.66-.65-.44-1.07-1.08-1.24-1.91l1.42-.35c.13.53.39.92.78,1.19s.89.4,1.51.4c.7,0,1.25-.15,1.67-.45s.63-.66.63-1.08c0-.69-.49-1.15-1.46-1.39l-1.63-.39c-.9-.22-1.56-.55-1.99-.99s-.63-1-.63-1.68c0-.56.16-1.05.47-1.48.31-.43.74-.76,1.29-1.01s1.16-.36,1.85-.36c.98,0,1.74.22,2.3.65.55.43.95.99,1.18,1.69Z"/>
      <path class="cls-6" d="M302.83,19.22c-.26,0-.49-.01-.69-.05s-.34-.08-.42-.12l.39-1.32.15.04c.5.12.93.09,1.27-.07.34-.17.64-.6.9-1.31l.28-.77-3.62-9.88h1.63l2.71,7.84h.11l2.71-7.84h1.63l-4.17,11.25c-.19.51-.42.93-.69,1.27s-.59.58-.96.74-.77.24-1.23.24Z"/>
      <path class="cls-6" d="M230.55,37.36c-.88,0-1.66-.21-2.33-.63s-1.19-1.01-1.56-1.78c-.37-.76-.56-1.65-.56-2.65s.19-1.92.56-2.69c.37-.76.89-1.36,1.56-1.78s1.44-.63,2.33-.63,1.67.21,2.34.63,1.19,1.02,1.56,1.78.56,1.66.56,2.69-.19,1.89-.56,2.65-.9,1.35-1.56,1.78-1.45.63-2.34.63ZM230.55,36.01c.68,0,1.24-.17,1.67-.52s.76-.8.97-1.37.32-1.17.32-1.82-.11-1.28-.32-1.85-.53-1.03-.97-1.38-.99-.52-1.67-.52-1.22.17-1.65.52-.76.81-.97,1.38-.32,1.18-.32,1.85.11,1.26.32,1.82.53,1.02.97,1.37.98.52,1.65.52Z"/>
      <path class="cls-6" d="M236.48,40.82v-13.5h1.44v1.56h.18c.11-.17.27-.39.47-.65s.49-.51.86-.72.88-.32,1.52-.32c.83,0,1.55.21,2.18.62s1.12,1,1.47,1.76c.35.76.53,1.65.53,2.69s-.18,1.94-.53,2.7-.84,1.35-1.47,1.77-1.35.62-2.17.62c-.63,0-1.13-.11-1.51-.32s-.67-.46-.88-.73-.36-.5-.47-.67h-.12v5.19h-1.49ZM240.77,36.01c.63,0,1.15-.17,1.57-.51s.74-.79.95-1.36c.21-.57.32-1.2.32-1.9s-.11-1.32-.32-1.87-.53-1-.95-1.33-.95-.49-1.59-.49-1.13.15-1.55.46-.73.74-.95,1.29-.32,1.2-.32,1.94.11,1.39.33,1.96.53,1.01.95,1.33c.42.32.93.48,1.53.48Z"/>
      <path class="cls-6" d="M250.7,37.36c-.94,0-1.76-.21-2.45-.63-.69-.42-1.22-1.01-1.59-1.77s-.55-1.64-.55-2.64.18-1.9.54-2.66.88-1.37,1.53-1.8c.66-.43,1.43-.65,2.32-.65.51,0,1.02.08,1.52.25s.96.45,1.38.83c.41.38.74.88.99,1.51s.37,1.4.37,2.31v.65h-7.58v-1.3h6.76l-.69.49c0-.66-.1-1.24-.31-1.75s-.51-.91-.92-1.2-.91-.44-1.52-.44-1.12.15-1.55.44c-.43.3-.76.68-.99,1.16s-.34.98-.34,1.53v.86c0,.74.13,1.37.39,1.89s.62.91,1.08,1.17,1,.4,1.61.4c.39,0,.75-.06,1.07-.17s.6-.29.83-.52.41-.52.54-.86l1.46.42c-.15.49-.41.92-.77,1.3-.36.37-.81.66-1.34.87s-1.13.31-1.79.31Z"/>
      <path class="cls-6" d="M256.18,37.15v-9.83h1.44v1.49h.11c.18-.49.51-.88.98-1.18.47-.3,1-.45,1.59-.45.11,0,.25,0,.41,0s.29,0,.38.01v1.53c-.05-.01-.17-.03-.35-.05s-.38-.04-.58-.04c-.47,0-.9.1-1.27.3s-.67.47-.88.82-.32.74-.32,1.19v6.21h-1.49Z"/>
      <path class="cls-6" d="M264.92,37.38c-.62,0-1.19-.12-1.7-.36s-.91-.58-1.21-1.03-.45-1-.45-1.63c0-.56.11-1.02.33-1.37s.52-.62.89-.83c.37-.2.78-.35,1.23-.45.45-.1.9-.18,1.36-.24.6-.08,1.08-.13,1.46-.18.37-.04.64-.11.82-.21s.26-.27.26-.51v-.05c0-.63-.17-1.11-.51-1.46-.34-.35-.86-.52-1.56-.52s-1.28.16-1.69.47-.7.65-.86,1.01l-1.44-.51c.26-.6.6-1.06,1.03-1.4.43-.33.9-.57,1.41-.7.51-.13,1.01-.2,1.5-.2.32,0,.68.04,1.09.11s.81.23,1.2.46.71.58.97,1.05c.26.47.38,1.09.38,1.87v6.47h-1.51v-1.34h-.07c-.1.21-.27.44-.51.68s-.56.45-.95.62c-.4.17-.88.26-1.46.26ZM265.15,36.02c.6,0,1.1-.12,1.51-.35s.72-.54.93-.91.32-.76.32-1.16v-1.39c-.06.08-.2.15-.42.21s-.46.12-.74.16-.55.09-.81.12-.47.06-.63.07c-.39.05-.76.14-1.1.25s-.61.28-.82.51c-.21.22-.31.53-.31.91,0,.52.19.92.58,1.18s.89.4,1.49.4Z"/>
      <path class="cls-6" d="M275.32,37.36c-.91,0-1.7-.22-2.37-.65s-1.18-1.04-1.54-1.8c-.36-.76-.54-1.63-.54-2.61s.18-1.89.55-2.65.89-1.36,1.55-1.8c.66-.43,1.44-.65,2.32-.65.69,0,1.31.13,1.87.38.55.25,1.01.61,1.36,1.08.35.46.57,1,.65,1.62h-1.51c-.08-.3-.21-.58-.41-.84s-.46-.48-.79-.64c-.33-.16-.71-.24-1.16-.24-.59,0-1.1.15-1.54.46s-.78.73-1.03,1.29-.37,1.2-.37,1.95.12,1.42.36,1.98.58,1,1.02,1.31c.44.31.96.47,1.55.47s1.1-.15,1.52-.46.7-.73.83-1.26h1.51c-.08.58-.29,1.1-.63,1.56s-.78.83-1.33,1.1c-.55.27-1.19.41-1.91.41Z"/>
      <path class="cls-6" d="M281.37,25.69c-.29,0-.54-.1-.76-.3s-.32-.44-.32-.72.11-.52.32-.72.46-.3.76-.3.54.1.76.3.32.44.32.72-.11.52-.32.72-.46.3-.76.3ZM280.62,37.15v-9.83h1.49v9.83h-1.49Z"/>
      <path class="cls-6" d="M288.02,37.36c-.88,0-1.66-.21-2.33-.63s-1.19-1.01-1.56-1.78c-.37-.76-.56-1.65-.56-2.65s.19-1.92.56-2.69c.37-.76.89-1.36,1.56-1.78s1.44-.63,2.33-.63,1.67.21,2.34.63,1.19,1.02,1.56,1.78.56,1.66.56,2.69-.19,1.89-.56,2.65-.9,1.35-1.56,1.78-1.45.63-2.34.63ZM288.02,36.01c.68,0,1.24-.17,1.67-.52s.76-.8.97-1.37.32-1.17.32-1.82-.11-1.28-.32-1.85-.53-1.03-.97-1.38-.99-.52-1.67-.52-1.22.17-1.65.52-.76.81-.97,1.38-.32,1.18-.32,1.85.11,1.26.32,1.82.53,1.02.97,1.37.98.52,1.65.52Z"/>
      <path class="cls-6" d="M295.43,31.24v5.91h-1.49v-9.83h1.44v1.55h.14c.23-.5.58-.91,1.05-1.21s1.08-.46,1.82-.46c.66,0,1.24.13,1.74.4s.89.68,1.16,1.23.42,1.24.42,2.08v6.24h-1.49v-6.13c0-.77-.2-1.37-.61-1.81s-.96-.65-1.65-.65c-.48,0-.91.11-1.29.32s-.68.52-.9.91c-.22.4-.33.88-.33,1.46Z"/>
      <path class="cls-6" d="M307.76,37.36c-.94,0-1.76-.21-2.45-.63-.69-.42-1.22-1.01-1.59-1.77s-.55-1.64-.55-2.64.18-1.9.54-2.66.88-1.37,1.53-1.8c.66-.43,1.43-.65,2.32-.65.51,0,1.02.08,1.52.25s.96.45,1.38.83c.41.38.74.88.99,1.51s.37,1.4.37,2.31v.65h-7.58v-1.3h6.76l-.69.49c0-.66-.1-1.24-.31-1.75s-.51-.91-.92-1.2-.91-.44-1.52-.44-1.12.15-1.55.44c-.43.3-.76.68-.99,1.16s-.34.98-.34,1.53v.86c0,.74.13,1.37.39,1.89s.62.91,1.08,1.17,1,.4,1.61.4c.39,0,.75-.06,1.07-.17s.6-.29.83-.52.41-.52.54-.86l1.46.42c-.15.49-.41.92-.77,1.3-.36.37-.81.66-1.34.87s-1.13.31-1.79.31Z"/>
      <path class="cls-6" d="M320.18,29.54l-1.35.37c-.13-.33-.35-.65-.66-.95s-.8-.45-1.46-.45c-.6,0-1.1.14-1.49.42s-.6.63-.6,1.04c0,.38.14.67.41.9.27.22.7.4,1.28.54l1.46.35c.87.21,1.53.54,1.96.98.43.44.65,1,.65,1.68,0,.56-.16,1.07-.48,1.51s-.77.8-1.34,1.05-1.24.39-2,.39c-1,0-1.83-.22-2.48-.66-.65-.44-1.07-1.08-1.24-1.91l1.42-.35c.13.53.39.92.78,1.19s.89.4,1.51.4c.7,0,1.25-.15,1.67-.45s.63-.66.63-1.08c0-.69-.49-1.15-1.46-1.39l-1.63-.39c-.9-.22-1.56-.55-1.99-.99s-.63-1-.63-1.68c0-.56.16-1.05.47-1.48.31-.43.74-.76,1.29-1.01s1.16-.36,1.85-.36c.98,0,1.74.22,2.3.65.55.43.95.99,1.18,1.69Z"/>
    </g>
    <g>
      <path class="cls-6" d="M2.74,168.11v13.1h-1.58v-13.1h1.58Z"/>
      <path class="cls-6" d="M6.36,175.3v5.91h-1.49v-9.83h1.44v1.55h.14c.23-.5.58-.91,1.05-1.21s1.08-.46,1.82-.46c.66,0,1.24.13,1.74.4s.89.68,1.16,1.23.42,1.24.42,2.08v6.24h-1.49v-6.13c0-.77-.2-1.37-.61-1.81s-.96-.65-1.65-.65c-.48,0-.91.11-1.29.32s-.68.52-.9.91c-.22.4-.33.88-.33,1.46Z"/>
      <path class="cls-6" d="M15.33,169.75c-.29,0-.54-.1-.76-.3s-.32-.44-.32-.72.11-.52.32-.72.46-.3.76-.3.54.1.76.3.32.44.32.72-.11.52-.32.72-.46.3-.76.3ZM14.57,181.21v-9.83h1.49v9.83h-1.49Z"/>
      <path class="cls-6" d="M21.97,181.42c-.91,0-1.7-.22-2.37-.65s-1.18-1.04-1.54-1.8c-.36-.76-.54-1.63-.54-2.61s.18-1.89.55-2.65.89-1.36,1.55-1.8c.66-.43,1.44-.65,2.32-.65.69,0,1.31.13,1.87.38.55.25,1.01.61,1.36,1.08.35.46.57,1,.65,1.62h-1.51c-.08-.3-.21-.58-.41-.84s-.46-.48-.79-.64c-.33-.16-.71-.24-1.16-.24-.59,0-1.1.15-1.54.46s-.78.73-1.03,1.29-.37,1.2-.37,1.95.12,1.42.36,1.98.58,1,1.02,1.31c.44.31.96.47,1.55.47s1.1-.15,1.52-.46.7-.73.83-1.26h1.51c-.08.58-.29,1.1-.63,1.56s-.78.83-1.33,1.1c-.55.27-1.19.41-1.91.41Z"/>
      <path class="cls-6" d="M28.02,169.75c-.29,0-.54-.1-.76-.3s-.32-.44-.32-.72.11-.52.32-.72.46-.3.76-.3.54.1.76.3.32.44.32.72-.11.52-.32.72-.46.3-.76.3ZM27.26,181.21v-9.83h1.49v9.83h-1.49Z"/>
      <path class="cls-6" d="M33.57,181.44c-.62,0-1.19-.12-1.7-.36s-.91-.58-1.21-1.03-.45-1-.45-1.63c0-.56.11-1.02.33-1.37s.52-.62.89-.83c.37-.2.78-.35,1.23-.45.45-.1.9-.18,1.36-.24.6-.08,1.08-.13,1.46-.18.37-.04.64-.11.82-.21s.26-.27.26-.51v-.05c0-.63-.17-1.11-.51-1.46-.34-.35-.86-.52-1.56-.52s-1.28.16-1.69.47-.7.65-.86,1.01l-1.44-.51c.26-.6.6-1.06,1.03-1.4.43-.33.9-.57,1.41-.7.51-.13,1.01-.2,1.5-.2.32,0,.68.04,1.09.11s.81.23,1.2.46.71.58.97,1.05c.26.47.38,1.09.38,1.87v6.47h-1.51v-1.34h-.07c-.1.21-.27.44-.51.68s-.56.45-.95.62c-.4.17-.88.26-1.46.26ZM33.8,180.09c.6,0,1.1-.12,1.51-.35s.72-.54.93-.91.32-.76.32-1.16v-1.39c-.06.08-.2.15-.42.21s-.46.12-.74.16-.55.09-.81.12-.47.06-.63.07c-.39.05-.76.14-1.1.25s-.61.28-.82.51c-.21.22-.31.53-.31.91,0,.52.19.92.58,1.18s.89.4,1.49.4Z"/>
      <path class="cls-6" d="M43.98,181.42c-.91,0-1.7-.22-2.37-.65s-1.18-1.04-1.54-1.8c-.36-.76-.54-1.63-.54-2.61s.18-1.89.55-2.65.89-1.36,1.55-1.8c.66-.43,1.44-.65,2.32-.65.69,0,1.31.13,1.87.38.55.25,1.01.61,1.36,1.08.35.46.57,1,.65,1.62h-1.51c-.08-.3-.21-.58-.41-.84s-.46-.48-.79-.64c-.33-.16-.71-.24-1.16-.24-.59,0-1.1.15-1.54.46s-.78.73-1.03,1.29-.37,1.2-.37,1.95.12,1.42.36,1.98.58,1,1.02,1.31c.44.31.96.47,1.55.47s1.1-.15,1.52-.46.7-.73.83-1.26h1.51c-.08.58-.29,1.1-.63,1.56s-.78.83-1.33,1.1c-.55.27-1.19.41-1.91.41Z"/>
      <path class="cls-6" d="M50.03,169.75c-.29,0-.54-.1-.76-.3s-.32-.44-.32-.72.11-.52.32-.72.46-.3.76-.3.54.1.76.3.32.44.32.72-.11.52-.32.72-.46.3-.76.3ZM49.27,181.21v-9.83h1.49v9.83h-1.49Z"/>
      <path class="cls-6" d="M56.67,181.42c-.88,0-1.66-.21-2.33-.63s-1.19-1.01-1.56-1.78c-.37-.76-.56-1.65-.56-2.65s.19-1.92.56-2.69c.37-.76.89-1.36,1.56-1.78s1.44-.63,2.33-.63,1.67.21,2.34.63,1.19,1.02,1.56,1.78.56,1.66.56,2.69-.19,1.89-.56,2.65-.9,1.35-1.56,1.78-1.45.63-2.34.63ZM56.67,180.07c.68,0,1.24-.17,1.67-.52s.76-.8.97-1.37.32-1.17.32-1.82-.11-1.28-.32-1.85-.53-1.03-.97-1.38-.99-.52-1.67-.52-1.22.17-1.65.52-.76.81-.97,1.38-.32,1.18-.32,1.85.11,1.26.32,1.82.53,1.02.97,1.37.98.52,1.65.52ZM55.93,170.15l1.23-2.41h1.71l-1.69,2.41h-1.25Z"/>
      <path class="cls-6" d="M64.09,175.3v5.91h-1.49v-9.83h1.44v1.55h.14c.23-.5.58-.91,1.05-1.21s1.08-.46,1.82-.46c.66,0,1.24.13,1.74.4s.89.68,1.16,1.23.42,1.24.42,2.08v6.24h-1.49v-6.13c0-.77-.2-1.37-.61-1.81s-.96-.65-1.65-.65c-.48,0-.91.11-1.29.32s-.68.52-.9.91c-.22.4-.33.88-.33,1.46Z"/>
      <path class="cls-6" d="M79.4,181.44c-.62,0-1.19-.12-1.7-.36s-.91-.58-1.21-1.03-.45-1-.45-1.63c0-.56.11-1.02.33-1.37s.52-.62.89-.83c.37-.2.78-.35,1.23-.45.45-.1.9-.18,1.36-.24.6-.08,1.08-.13,1.46-.18.37-.04.64-.11.82-.21s.26-.27.26-.51v-.05c0-.63-.17-1.11-.51-1.46-.34-.35-.86-.52-1.56-.52s-1.28.16-1.69.47-.7.65-.86,1.01l-1.44-.51c.26-.6.6-1.06,1.03-1.4.43-.33.9-.57,1.41-.7.51-.13,1.01-.2,1.5-.2.32,0,.68.04,1.09.11s.81.23,1.2.46.71.58.97,1.05c.26.47.38,1.09.38,1.87v6.47h-1.51v-1.34h-.07c-.1.21-.27.44-.51.68s-.56.45-.95.62c-.4.17-.88.26-1.46.26ZM79.63,180.09c.6,0,1.1-.12,1.51-.35s.72-.54.93-.91.32-.76.32-1.16v-1.39c-.06.08-.2.15-.42.21s-.46.12-.74.16-.55.09-.81.12-.47.06-.63.07c-.39.05-.76.14-1.1.25s-.61.28-.82.51c-.21.22-.31.53-.31.91,0,.52.19.92.58,1.18s.89.4,1.49.4Z"/>
      <path class="cls-6" d="M87.33,168.11v13.1h-1.49v-13.1h1.49Z"/>
      <path class="cls-6" d="M3.85,203.04c-.62,0-1.19-.12-1.7-.36s-.91-.58-1.21-1.03-.45-1-.45-1.63c0-.56.11-1.02.33-1.37s.52-.62.89-.83c.37-.2.78-.35,1.23-.45.45-.1.9-.18,1.36-.24.6-.08,1.08-.13,1.46-.18.37-.04.64-.11.82-.21s.26-.27.26-.51v-.05c0-.63-.17-1.11-.51-1.46-.34-.35-.86-.52-1.56-.52s-1.28.16-1.69.47-.7.65-.86,1.01l-1.44-.51c.26-.6.6-1.06,1.03-1.4.43-.33.9-.57,1.41-.7.51-.13,1.01-.2,1.5-.2.32,0,.68.04,1.09.11s.81.23,1.2.46.71.58.97,1.05c.26.47.38,1.09.38,1.87v6.47h-1.51v-1.34h-.07c-.1.21-.27.44-.51.68s-.56.45-.95.62c-.4.17-.88.26-1.46.26ZM4.08,201.69c.6,0,1.1-.12,1.51-.35s.72-.54.93-.91.32-.76.32-1.16v-1.39c-.06.08-.2.15-.42.21s-.46.12-.74.16-.55.09-.81.12-.47.06-.63.07c-.39.05-.76.14-1.1.25s-.61.28-.82.51c-.21.22-.31.53-.31.91,0,.52.19.92.58,1.18s.89.4,1.49.4ZM4.08,191.75l1.23-2.41h1.71l-1.69,2.41h-1.25Z"/>
      <path class="cls-6" d="M11.78,189.71v13.1h-1.49v-13.1h1.49Z"/>
      <path class="cls-6" d="M17.67,206.7c-1.1,0-1.96-.2-2.6-.6s-1.11-.86-1.41-1.37l1.2-.84c.13.18.31.39.52.62s.5.43.86.6.84.25,1.43.25c.79,0,1.45-.19,1.96-.57.52-.38.78-.98.78-1.8v-1.99h-.14c-.11.18-.26.39-.46.65-.2.26-.49.49-.87.69-.38.2-.89.3-1.53.3-.79,0-1.5-.19-2.13-.56s-1.12-.92-1.49-1.63-.55-1.58-.55-2.6.18-1.89.53-2.63.85-1.33,1.48-1.74,1.36-.62,2.19-.62c.64,0,1.15.11,1.53.32.38.21.67.45.87.72.2.27.36.48.47.65h.16v-1.56h1.44v10.11c0,.84-.19,1.53-.57,2.06-.38.53-.89.92-1.53,1.17-.64.25-1.36.37-2.14.37ZM17.61,201.3c.91,0,1.6-.31,2.09-.92.48-.62.72-1.47.72-2.56,0-.71-.11-1.33-.32-1.87s-.53-.96-.95-1.27-.94-.46-1.55-.46-1.17.16-1.6.49-.74.76-.95,1.31-.32,1.15-.32,1.81.11,1.28.32,1.81.54.93.96,1.23.96.44,1.58.44Z"/>
      <path class="cls-6" d="M27.95,203.02c-.94,0-1.76-.21-2.45-.63-.69-.42-1.22-1.01-1.59-1.77s-.55-1.64-.55-2.64.18-1.9.54-2.66.88-1.37,1.53-1.8c.66-.43,1.43-.65,2.32-.65.51,0,1.02.08,1.52.25s.96.45,1.38.83c.41.38.74.88.99,1.51s.37,1.4.37,2.31v.65h-7.58v-1.3h6.76l-.69.49c0-.66-.1-1.24-.31-1.75s-.51-.91-.92-1.2-.91-.44-1.52-.44-1.12.15-1.55.44c-.43.3-.76.68-.99,1.16s-.34.98-.34,1.53v.86c0,.74.13,1.37.39,1.89s.62.91,1.08,1.17,1,.4,1.61.4c.39,0,.75-.06,1.07-.17s.6-.29.83-.52.41-.52.54-.86l1.46.42c-.15.49-.41.92-.77,1.3-.36.37-.81.66-1.34.87s-1.13.31-1.79.31Z"/>
      <path class="cls-6" d="M37.92,203.02c-.63,0-1.13-.11-1.51-.32s-.67-.46-.88-.73-.36-.5-.47-.67h-.18v1.51h-1.44v-13.1h1.49v4.83h.12c.11-.17.27-.39.47-.65s.49-.51.86-.72.88-.32,1.52-.32c.83,0,1.55.21,2.18.62s1.12,1,1.47,1.76c.35.76.53,1.65.53,2.69s-.18,1.94-.53,2.7-.84,1.35-1.47,1.77-1.35.62-2.17.62ZM37.72,201.67c.63,0,1.15-.17,1.57-.51s.74-.79.95-1.36c.21-.57.32-1.2.32-1.9s-.11-1.32-.32-1.87-.53-1-.95-1.33-.95-.49-1.59-.49-1.13.15-1.55.46-.73.74-.95,1.29-.32,1.2-.32,1.94.11,1.39.33,1.96.53,1.01.95,1.33c.42.32.93.48,1.53.48Z"/>
      <path class="cls-6" d="M43.54,202.81v-9.83h1.44v1.49h.11c.18-.49.51-.88.98-1.18.47-.3,1-.45,1.59-.45.11,0,.25,0,.41,0s.29,0,.38.01v1.53c-.05-.01-.17-.03-.35-.05s-.38-.04-.58-.04c-.47,0-.9.1-1.27.3s-.67.47-.88.82-.32.74-.32,1.19v6.21h-1.49Z"/>
      <path class="cls-6" d="M52.28,203.04c-.62,0-1.19-.12-1.7-.36s-.91-.58-1.21-1.03-.45-1-.45-1.63c0-.56.11-1.02.33-1.37s.52-.62.89-.83c.37-.2.78-.35,1.23-.45.45-.1.9-.18,1.36-.24.6-.08,1.08-.13,1.46-.18.37-.04.64-.11.82-.21s.26-.27.26-.51v-.05c0-.63-.17-1.11-.51-1.46-.34-.35-.86-.52-1.56-.52s-1.28.16-1.69.47-.7.65-.86,1.01l-1.44-.51c.26-.6.6-1.06,1.03-1.4.43-.33.9-.57,1.41-.7.51-.13,1.01-.2,1.5-.2.32,0,.68.04,1.09.11s.81.23,1.2.46.71.58.97,1.05c.26.47.38,1.09.38,1.87v6.47h-1.51v-1.34h-.07c-.1.21-.27.44-.51.68s-.56.45-.95.62c-.4.17-.88.26-1.46.26ZM52.51,201.69c.6,0,1.1-.12,1.51-.35s.72-.54.93-.91.32-.76.32-1.16v-1.39c-.06.08-.2.15-.42.21s-.46.12-.74.16-.55.09-.81.12-.47.06-.63.07c-.39.05-.76.14-1.1.25s-.61.28-.82.51c-.21.22-.31.53-.31.91,0,.52.19.92.58,1.18s.89.4,1.49.4Z"/>
      <path class="cls-6" d="M63.9,206.48c-.26,0-.49-.01-.69-.05s-.34-.08-.42-.12l.39-1.32.15.04c.5.12.93.09,1.27-.07.34-.17.64-.6.9-1.31l.28-.77-3.62-9.88h1.63l2.71,7.84h.11l2.71-7.84h1.63l-4.17,11.25c-.19.51-.42.93-.69,1.27s-.59.58-.96.74-.77.24-1.23.24Z"/>
      <path class="cls-6" d="M5.33,214.58v1.28H.04v-1.28h5.29ZM1.62,224.41v-11.18c0-.56.13-1.03.4-1.41.27-.38.61-.66,1.03-.84s.86-.28,1.33-.28c.38,0,.68.03.92.09.24.06.41.12.52.17l-.44,1.3c-.08-.03-.18-.06-.31-.1-.13-.04-.31-.06-.53-.06-.5,0-.86.13-1.09.38s-.34.63-.34,1.11v10.81h-1.49Z"/>
      <path class="cls-6" d="M12.8,220.4v-5.82h1.49v9.83h-1.49v-1.67h-.11c-.23.5-.59.92-1.08,1.27-.48.35-1.1.52-1.84.52-.62,0-1.16-.13-1.63-.4s-.85-.68-1.12-1.23c-.27-.55-.41-1.25-.41-2.08v-6.24h1.49v6.15c0,.71.2,1.28.61,1.71.41.43.92.64,1.55.63.38,0,.76-.1,1.15-.29s.72-.48.98-.88.4-.9.4-1.51Z"/>
      <path class="cls-6" d="M17.72,218.5v5.91h-1.49v-9.83h1.44v1.55h.14c.23-.5.58-.91,1.05-1.21s1.08-.46,1.82-.46c.66,0,1.24.13,1.74.4s.89.68,1.16,1.23.42,1.24.42,2.08v6.24h-1.49v-6.13c0-.77-.2-1.37-.61-1.81s-.96-.65-1.65-.65c-.48,0-.91.11-1.29.32s-.68.52-.9.91c-.22.4-.33.88-.33,1.46Z"/>
      <path class="cls-6" d="M29.9,224.62c-.91,0-1.7-.22-2.37-.65s-1.18-1.04-1.54-1.8c-.36-.76-.54-1.63-.54-2.61s.18-1.89.55-2.65.89-1.36,1.55-1.8c.66-.43,1.44-.65,2.32-.65.69,0,1.31.13,1.87.38.55.25,1.01.61,1.36,1.08.35.46.57,1,.65,1.62h-1.51c-.08-.3-.21-.58-.41-.84s-.46-.48-.79-.64c-.33-.16-.71-.24-1.16-.24-.59,0-1.1.15-1.54.46s-.78.73-1.03,1.29-.37,1.2-.37,1.95.12,1.42.36,1.98.58,1,1.02,1.31c.44.31.96.47,1.55.47s1.1-.15,1.52-.46.7-.73.83-1.26h1.51c-.08.58-.29,1.1-.63,1.56s-.78.83-1.33,1.1c-.55.27-1.19.41-1.91.41Z"/>
      <path class="cls-6" d="M35.95,212.95c-.29,0-.54-.1-.76-.3s-.32-.44-.32-.72.11-.52.32-.72.46-.3.76-.3.54.1.76.3.32.44.32.72-.11.52-.32.72-.46.3-.76.3ZM35.19,224.41v-9.83h1.49v9.83h-1.49Z"/>
      <path class="cls-6" d="M42.59,224.62c-.88,0-1.66-.21-2.33-.63s-1.19-1.01-1.56-1.78c-.37-.76-.56-1.65-.56-2.65s.19-1.92.56-2.69c.37-.76.89-1.36,1.56-1.78s1.44-.63,2.33-.63,1.67.21,2.34.63,1.19,1.02,1.56,1.78.56,1.66.56,2.69-.19,1.89-.56,2.65-.9,1.35-1.56,1.78-1.45.63-2.34.63ZM42.59,223.27c.68,0,1.24-.17,1.67-.52s.76-.8.97-1.37.32-1.17.32-1.82-.11-1.28-.32-1.85-.53-1.03-.97-1.38-.99-.52-1.67-.52-1.22.17-1.65.52-.76.81-.97,1.38-.32,1.18-.32,1.85.11,1.26.32,1.82.53,1.02.97,1.37.98.52,1.65.52Z"/>
      <path class="cls-6" d="M50.01,218.5v5.91h-1.49v-9.83h1.44v1.55h.14c.23-.5.58-.91,1.05-1.21s1.08-.46,1.82-.46c.66,0,1.24.13,1.74.4s.89.68,1.16,1.23.42,1.24.42,2.08v6.24h-1.49v-6.13c0-.77-.2-1.37-.61-1.81s-.96-.65-1.65-.65c-.48,0-.91.11-1.29.32s-.68.52-.9.91c-.22.4-.33.88-.33,1.46Z"/>
      <path class="cls-6" d="M62.33,224.62c-.94,0-1.76-.21-2.45-.63-.69-.42-1.22-1.01-1.59-1.77s-.55-1.64-.55-2.64.18-1.9.54-2.66.88-1.37,1.53-1.8c.66-.43,1.43-.65,2.32-.65.51,0,1.02.08,1.52.25s.96.45,1.38.83c.41.38.74.88.99,1.51s.37,1.4.37,2.31v.65h-7.58v-1.3h6.76l-.69.49c0-.66-.1-1.24-.31-1.75s-.51-.91-.92-1.2-.91-.44-1.52-.44-1.12.15-1.55.44c-.43.3-.76.68-.99,1.16s-.34.98-.34,1.53v.86c0,.74.13,1.37.39,1.89s.62.91,1.08,1.17,1,.4,1.61.4c.39,0,.75-.06,1.07-.17s.6-.29.83-.52.41-.52.54-.86l1.46.42c-.15.49-.41.92-.77,1.3-.36.37-.81.66-1.34.87s-1.13.31-1.79.31Z"/>
      <path class="cls-6" d="M74.76,216.8l-1.35.37c-.13-.33-.35-.65-.66-.95s-.8-.45-1.46-.45c-.6,0-1.1.14-1.49.42s-.6.63-.6,1.04c0,.38.14.67.41.9.27.22.7.4,1.28.54l1.46.35c.87.21,1.53.54,1.96.98.43.44.65,1,.65,1.68,0,.56-.16,1.07-.48,1.51s-.77.8-1.34,1.05-1.24.39-2,.39c-1,0-1.83-.22-2.48-.66-.65-.44-1.07-1.08-1.24-1.91l1.42-.35c.13.53.39.92.78,1.19s.89.4,1.51.4c.7,0,1.25-.15,1.67-.45s.63-.66.63-1.08c0-.69-.49-1.15-1.46-1.39l-1.63-.39c-.9-.22-1.56-.55-1.99-.99s-.63-1-.63-1.68c0-.56.16-1.05.47-1.48.31-.43.74-.76,1.29-1.01s1.16-.36,1.85-.36c.98,0,1.74.22,2.3.65.55.43.95.99,1.18,1.69Z"/>
    </g>
    <g>
      <path class="cls-6" d="M232.1,330.55c-1.16,0-2.18-.27-3.05-.82s-1.56-1.32-2.05-2.32c-.49-1-.73-2.2-.73-3.57s.24-2.58.73-3.59c.49-1.01,1.16-1.78,2.03-2.33s1.85-.82,2.97-.82c.69,0,1.34.1,1.93.31s1.13.5,1.6.88.86.83,1.17,1.35c.31.52.53,1.1.65,1.73h-1.63c-.14-.43-.32-.82-.55-1.16-.23-.34-.5-.64-.81-.88s-.67-.43-1.06-.56-.83-.19-1.3-.19c-.77,0-1.48.2-2.11.6-.64.4-1.14.99-1.52,1.78-.38.78-.57,1.74-.57,2.88s.19,2.09.57,2.87.9,1.37,1.55,1.77,1.38.6,2.19.6c.75,0,1.41-.16,1.98-.48s1.01-.78,1.34-1.37.48-1.28.48-2.09l.49.11h-3.94v-1.41h4.99v1.41c0,1.08-.23,2.01-.69,2.81s-1.09,1.41-1.89,1.85-1.73.65-2.76.65Z"/>
      <path class="cls-6" d="M243.23,330.59c-.94,0-1.76-.21-2.45-.63-.69-.42-1.22-1.01-1.59-1.77s-.55-1.64-.55-2.64.18-1.9.54-2.66.88-1.37,1.53-1.8c.66-.43,1.43-.65,2.32-.65.51,0,1.02.08,1.52.25s.96.45,1.38.83c.41.38.74.88.99,1.51s.37,1.4.37,2.31v.65h-7.58v-1.3h6.76l-.69.49c0-.66-.1-1.24-.31-1.75s-.51-.91-.92-1.2-.91-.44-1.52-.44-1.12.15-1.55.44c-.43.3-.76.68-.99,1.16s-.34.98-.34,1.53v.86c0,.74.13,1.37.39,1.89s.62.91,1.08,1.17,1,.4,1.61.4c.39,0,.75-.06,1.07-.17s.6-.29.83-.52.41-.52.54-.86l1.46.42c-.15.49-.41.92-.77,1.3-.36.37-.81.66-1.34.87s-1.13.31-1.79.31Z"/>
      <path class="cls-6" d="M252.68,330.59c-.88,0-1.66-.21-2.33-.63s-1.19-1.01-1.56-1.78c-.37-.76-.56-1.65-.56-2.65s.19-1.92.56-2.69c.37-.76.89-1.36,1.56-1.78s1.44-.63,2.33-.63,1.67.21,2.34.63,1.19,1.02,1.56,1.78.56,1.66.56,2.69-.19,1.89-.56,2.65-.9,1.35-1.56,1.78-1.45.63-2.34.63ZM252.68,329.23c.68,0,1.24-.17,1.67-.52s.76-.8.97-1.37.32-1.17.32-1.82-.11-1.28-.32-1.85-.53-1.03-.97-1.38-.99-.52-1.67-.52-1.22.17-1.65.52-.76.81-.97,1.38-.32,1.18-.32,1.85.11,1.26.32,1.82.53,1.02.97,1.37.98.52,1.65.52Z"/>
      <path class="cls-6" d="M258.61,330.38v-9.83h1.44v1.55h.14c.21-.53.54-.94.99-1.23s1-.44,1.64-.44,1.18.15,1.61.44c.43.29.77.7,1.01,1.23h.11c.26-.51.64-.92,1.14-1.22.5-.3,1.1-.45,1.8-.45.88,0,1.6.27,2.16.82s.84,1.4.84,2.55v6.57h-1.51v-6.57c0-.73-.2-1.25-.6-1.56s-.87-.47-1.41-.47c-.69,0-1.22.21-1.6.63-.38.42-.57.94-.57,1.57v6.4h-1.55v-6.73c0-.56-.18-1.01-.54-1.35s-.82-.51-1.4-.51c-.39,0-.76.11-1.1.32s-.61.5-.82.87c-.21.37-.31.79-.31,1.27v6.13h-1.49Z"/>
      <path class="cls-6" d="M277.54,330.59c-.94,0-1.76-.21-2.45-.63-.69-.42-1.22-1.01-1.59-1.77s-.55-1.64-.55-2.64.18-1.9.54-2.66.88-1.37,1.53-1.8c.66-.43,1.43-.65,2.32-.65.51,0,1.02.08,1.52.25s.96.45,1.38.83c.41.38.74.88.99,1.51s.37,1.4.37,2.31v.65h-7.58v-1.3h6.76l-.69.49c0-.66-.1-1.24-.31-1.75s-.51-.91-.92-1.2-.91-.44-1.52-.44-1.12.15-1.55.44c-.43.3-.76.68-.99,1.16s-.34.98-.34,1.53v.86c0,.74.13,1.37.39,1.89s.62.91,1.08,1.17,1,.4,1.61.4c.39,0,.75-.06,1.07-.17s.6-.29.83-.52.41-.52.54-.86l1.46.42c-.15.49-.41.92-.77,1.3-.36.37-.81.66-1.34.87s-1.13.31-1.79.31Z"/>
      <path class="cls-6" d="M287.28,320.55v1.28h-5.08v-1.28h5.08ZM283.67,318.21h1.49v9.35c0,.51.11.88.32,1.12s.54.36,1,.36c.1,0,.2,0,.31-.02.11-.01.23-.03.36-.05l.32,1.35c-.14.05-.31.1-.51.13-.2.03-.41.05-.61.05-.79,0-1.43-.23-1.93-.7s-.74-1.08-.74-1.83v-9.76Z"/>
      <path class="cls-6" d="M288.72,330.38v-9.83h1.44v1.49h.11c.18-.49.51-.88.98-1.18.47-.3,1-.45,1.59-.45.11,0,.25,0,.41,0s.29,0,.38.01v1.53c-.05-.01-.17-.03-.35-.05s-.38-.04-.58-.04c-.47,0-.9.1-1.27.3s-.67.47-.88.82-.32.74-.32,1.19v6.21h-1.49Z"/>
      <path class="cls-6" d="M294.57,330.38v-9.83h1.49v9.83h-1.49ZM294.59,319.32l1.23-2.41h1.71l-1.69,2.41h-1.25Z"/>
      <path class="cls-6" d="M300.88,330.6c-.62,0-1.19-.12-1.7-.36s-.91-.58-1.21-1.03-.45-1-.45-1.63c0-.56.11-1.02.33-1.37s.52-.62.89-.83c.37-.2.78-.35,1.23-.45.45-.1.9-.18,1.36-.24.6-.08,1.08-.13,1.46-.18.37-.04.64-.11.82-.21s.26-.27.26-.51v-.05c0-.63-.17-1.11-.51-1.46-.34-.35-.86-.52-1.56-.52s-1.28.16-1.69.47-.7.65-.86,1.01l-1.44-.51c.26-.6.6-1.06,1.03-1.4.43-.33.9-.57,1.41-.7.51-.13,1.01-.2,1.5-.2.32,0,.68.04,1.09.11s.81.23,1.2.46.71.58.97,1.05c.26.47.38,1.09.38,1.87v6.47h-1.51v-1.34h-.07c-.1.21-.27.44-.51.68s-.56.45-.95.62c-.4.17-.88.26-1.46.26ZM301.11,329.25c.6,0,1.1-.12,1.51-.35s.72-.54.93-.91.32-.76.32-1.16v-1.39c-.06.08-.2.15-.42.21s-.46.12-.74.16-.55.09-.81.12-.47.06-.63.07c-.39.05-.76.14-1.1.25s-.61.28-.82.51c-.21.22-.31.53-.31.91,0,.52.19.92.58,1.18s.89.4,1.49.4Z"/>
      <path class="cls-6" d="M227.55,355.65c-.26,0-.49-.01-.69-.05s-.34-.08-.42-.12l.39-1.32.15.04c.5.12.93.09,1.27-.07.34-.17.64-.6.9-1.31l.28-.77-3.62-9.88h1.63l2.71,7.84h.11l2.71-7.84h1.63l-4.17,11.25c-.19.51-.42.93-.69,1.27s-.59.58-.96.74-.77.24-1.23.24Z"/>
      <path class="cls-6" d="M239.97,351.98v-9.83h1.44v1.55h.14c.21-.53.54-.94.99-1.23s1-.44,1.64-.44,1.18.15,1.61.44c.43.29.77.7,1.01,1.23h.11c.26-.51.64-.92,1.14-1.22.5-.3,1.1-.45,1.8-.45.88,0,1.6.27,2.16.82s.84,1.4.84,2.55v6.57h-1.51v-6.57c0-.73-.2-1.25-.6-1.56s-.87-.47-1.41-.47c-.69,0-1.22.21-1.6.63-.38.42-.57.94-.57,1.57v6.4h-1.55v-6.73c0-.56-.18-1.01-.54-1.35s-.82-.51-1.4-.51c-.39,0-.76.11-1.1.32s-.61.5-.82.87c-.21.37-.31.79-.31,1.27v6.13h-1.49Z"/>
      <path class="cls-6" d="M258.91,352.19c-.94,0-1.76-.21-2.45-.63-.69-.42-1.22-1.01-1.59-1.77s-.55-1.64-.55-2.64.18-1.9.54-2.66.88-1.37,1.53-1.8c.66-.43,1.43-.65,2.32-.65.51,0,1.02.08,1.52.25s.96.45,1.38.83c.41.38.74.88.99,1.51s.37,1.4.37,2.31v.65h-7.58v-1.3h6.76l-.69.49c0-.66-.1-1.24-.31-1.75s-.51-.91-.92-1.2-.91-.44-1.52-.44-1.12.15-1.55.44c-.43.3-.76.68-.99,1.16s-.34.98-.34,1.53v.86c0,.74.13,1.37.39,1.89s.62.91,1.08,1.17,1,.4,1.61.4c.39,0,.75-.06,1.07-.17s.6-.29.83-.52.41-.52.54-.86l1.46.42c-.15.49-.41.92-.77,1.3-.36.37-.81.66-1.34.87s-1.13.31-1.79.31Z"/>
      <path class="cls-6" d="M268.08,352.19c-.82,0-1.54-.21-2.17-.62s-1.12-1.01-1.47-1.77-.53-1.67-.53-2.7.18-1.93.53-2.69.85-1.34,1.47-1.76,1.35-.62,2.18-.62c.64,0,1.15.11,1.53.32.37.21.66.45.86.72s.35.48.47.65h.12v-4.83h1.49v13.1h-1.44v-1.51h-.18c-.11.18-.27.4-.47.67s-.5.52-.88.73c-.38.21-.88.32-1.52.32ZM268.28,350.83c.61,0,1.12-.16,1.54-.48s.73-.76.95-1.33.33-1.22.33-1.96-.11-1.38-.32-1.94-.53-.98-.95-1.29-.94-.46-1.55-.46-1.16.16-1.58.49-.74.77-.95,1.33-.32,1.18-.32,1.87.11,1.33.32,1.9.53,1.02.95,1.36.95.51,1.57.51Z"/>
      <path class="cls-6" d="M275.25,340.51c-.29,0-.54-.1-.76-.3s-.32-.44-.32-.72.11-.52.32-.72.46-.3.76-.3.54.1.76.3.32.44.32.72-.11.52-.32.72-.46.3-.76.3ZM274.5,351.98v-9.83h1.49v9.83h-1.49Z"/>
      <path class="cls-6" d="M281.62,352.19c-.82,0-1.54-.21-2.17-.62s-1.12-1.01-1.47-1.77-.53-1.67-.53-2.7.18-1.93.53-2.69.85-1.34,1.47-1.76,1.35-.62,2.18-.62c.64,0,1.15.11,1.53.32.37.21.66.45.86.72s.35.48.47.65h.12v-4.83h1.49v13.1h-1.44v-1.51h-.18c-.11.18-.27.4-.47.67s-.5.52-.88.73c-.38.21-.88.32-1.52.32ZM281.81,350.83c.61,0,1.12-.16,1.54-.48s.73-.76.95-1.33.33-1.22.33-1.96-.11-1.38-.32-1.94-.53-.98-.95-1.29-.94-.46-1.55-.46-1.16.16-1.58.49-.74.77-.95,1.33-.32,1.18-.32,1.87.11,1.33.32,1.9.53,1.02.95,1.36.95.51,1.57.51Z"/>
      <path class="cls-6" d="M290.92,352.2c-.62,0-1.19-.12-1.7-.36s-.91-.58-1.21-1.03-.45-1-.45-1.63c0-.56.11-1.02.33-1.37s.52-.62.89-.83c.37-.2.78-.35,1.23-.45.45-.1.9-.18,1.36-.24.6-.08,1.08-.13,1.46-.18.37-.04.64-.11.82-.21s.26-.27.26-.51v-.05c0-.63-.17-1.11-.51-1.46-.34-.35-.86-.52-1.56-.52s-1.28.16-1.69.47-.7.65-.86,1.01l-1.44-.51c.26-.6.6-1.06,1.03-1.4.43-.33.9-.57,1.41-.7.51-.13,1.01-.2,1.5-.2.32,0,.68.04,1.09.11s.81.23,1.2.46.71.58.97,1.05c.26.47.38,1.09.38,1.87v6.47h-1.51v-1.34h-.07c-.1.21-.27.44-.51.68s-.56.45-.95.62c-.4.17-.88.26-1.46.26ZM291.14,350.85c.6,0,1.1-.12,1.51-.35s.72-.54.93-.91.32-.76.32-1.16v-1.39c-.06.08-.2.15-.42.21s-.46.12-.74.16-.55.09-.81.12-.47.06-.63.07c-.39.05-.76.14-1.1.25s-.61.28-.82.51c-.21.22-.31.53-.31.91,0,.52.19.92.58,1.18s.89.4,1.49.4Z"/>
    </g>
    <text class="cls-5" transform="translate(380.8 180.72)"><tspan x="0" y="0">Estadística y </tspan><tspan x="0" y="21.6">probabilidad</tspan></text>
  </g>
</svg>