<?xml version="1.0" encoding="UTF-8"?>
<svg id="Capa_2" data-name="Capa 2" xmlns="http://www.w3.org/2000/svg" viewBox="0 0 375.46 283.82">
  <defs>
    <style>
      .cls-1 {
        stroke-dasharray: 4.5 4.5;
      }

      .cls-1, .cls-2, .cls-3 {
        stroke-miterlimit: 10;
      }

      .cls-1, .cls-3 {
        fill: none;
        stroke: #4b4a63;
        stroke-width: .64px;
      }

      .cls-4, .cls-5 {
        fill: #ff6d7e;
      }

      .cls-6 {
        fill: #72132b;
      }

      .cls-7, .cls-2 {
        fill: #fff;
      }

      .cls-2 {
        stroke: #ff6d7e;
        stroke-width: 3.65px;
      }

      .cls-3 {
        stroke-dasharray: 4.5;
      }

      .cls-5 {
        font-family: InterTight-Regular, 'Inter Tight';
        font-size: 18px;
      }
    </style>
  </defs>
  <g id="Capa_1-2" data-name="Capa 1">
    <path class="cls-3" d="M269.05,142.42c14.34,28.43,14.44,63.33-2.81,92.87-27.07,46.36-86.59,62-132.94,34.93-13.76-8.04-24.82-18.93-32.85-31.49"/>
    <path class="cls-3" d="M100.45,238.73c-31.79-1.84-62.04-19.24-78.96-48.98C-5.07,143.1,11.23,83.76,57.88,57.2c13.85-7.88,28.82-11.99,43.72-12.65"/>
    <path class="cls-3" d="M101.6,44.72C118.92,18,149.01.32,183.22.32c53.68,0,97.2,43.52,97.2,97.2,0,15.94-3.84,30.98-10.63,44.25"/>
    <circle class="cls-4" cx="161.31" cy="141.39" r="78.1"/>
    <g>
      <path class="cls-7" d="M131.75,121.58v-12.37h8.33v2.16h-5.73v2.91h5.3v2.12h-5.3v3.03h5.74v2.16h-8.35Z"/>
      <path class="cls-7" d="M141.9,112.3h2.57v9.75c0,.71-.14,1.29-.42,1.73-.28.44-.69.76-1.21.97-.53.2-1.15.31-1.88.31h-.52v-2.01h.33c.42,0,.71-.09.88-.26s.25-.43.26-.78v-9.7ZM143.17,111.11c-.38,0-.71-.13-.98-.38s-.41-.56-.41-.92.13-.67.41-.92c.27-.25.6-.38.98-.38s.72.13.99.38c.27.25.41.56.41.92s-.14.67-.41.92c-.27.25-.6.38-.99.38Z"/>
      <path class="cls-7" d="M150.54,121.76c-.95,0-1.77-.19-2.46-.58s-1.22-.94-1.59-1.66c-.37-.72-.55-1.56-.55-2.54s.19-1.79.55-2.51c.37-.72.89-1.28,1.56-1.69s1.46-.61,2.37-.61c.62,0,1.19.1,1.72.29.53.2,1,.49,1.39.88.4.39.71.88.93,1.47.22.59.33,1.28.33,2.07v.7h-7.84v-1.59h6.59l-1.2.42c0-.47-.07-.88-.22-1.23-.14-.35-.36-.62-.64-.81-.29-.19-.64-.29-1.06-.29s-.78.1-1.07.29-.51.46-.67.79c-.16.33-.23.71-.23,1.15v1.12c0,.5.09.93.27,1.29.18.36.42.63.74.82.32.19.69.29,1.1.29.29,0,.55-.04.78-.12s.43-.2.6-.37c.17-.16.29-.35.38-.58l2.38.16c-.12.57-.36,1.07-.73,1.49-.37.42-.84.75-1.42.99-.58.23-1.25.35-2.02.35Z"/>
      <path class="cls-7" d="M163.93,114.95l-2.35.14c-.06-.29-.22-.55-.49-.76-.27-.21-.62-.32-1.07-.32-.4,0-.73.08-1,.25-.27.17-.4.39-.4.66,0,.22.09.41.26.57.18.16.47.28.9.37l1.69.33c.9.18,1.57.48,2.02.89s.66.95.66,1.62c0,.61-.18,1.15-.53,1.61-.35.46-.84.81-1.46,1.07-.62.26-1.33.39-2.13.39-1.23,0-2.21-.26-2.94-.77-.73-.51-1.15-1.21-1.27-2.09l2.52-.13c.08.38.27.66.56.85s.67.29,1.13.29.81-.09,1.09-.27c.28-.18.42-.4.42-.67,0-.46-.4-.77-1.2-.93l-1.6-.33c-.9-.18-1.57-.5-2.02-.94-.44-.44-.66-1.01-.66-1.7,0-.6.16-1.11.49-1.54s.79-.76,1.37-1c.59-.23,1.28-.35,2.07-.35,1.17,0,2.1.25,2.77.74.67.5,1.06,1.17,1.17,2.02Z"/>
      <path class="cls-7" d="M172.67,121.73c-.71,0-1.35-.18-1.92-.55s-1.02-.9-1.35-1.61c-.33-.71-.5-1.58-.5-2.61s.17-1.95.52-2.66.8-1.24,1.37-1.59c.57-.35,1.19-.53,1.87-.53.52,0,.96.09,1.3.26s.63.39.85.65c.22.26.38.52.49.77h.07v-4.66h2.57v12.37h-2.53v-1.49h-.12c-.12.25-.29.51-.51.76-.22.25-.51.46-.85.63s-.77.25-1.27.25ZM173.48,119.69c.42,0,.77-.11,1.06-.34.29-.23.51-.55.66-.96s.23-.89.23-1.44-.07-1.03-.22-1.44c-.15-.41-.37-.72-.66-.95-.29-.22-.65-.34-1.06-.34s-.77.12-1.06.35c-.29.23-.51.55-.66.96-.15.41-.22.88-.22,1.42s.07,1.01.22,1.42c.15.41.37.73.66.97.29.23.64.35,1.06.35Z"/>
      <path class="cls-7" d="M184.01,121.76c-.95,0-1.77-.19-2.46-.58s-1.22-.94-1.59-1.66c-.37-.72-.55-1.56-.55-2.54s.19-1.79.55-2.51c.37-.72.89-1.28,1.56-1.69s1.46-.61,2.37-.61c.62,0,1.19.1,1.72.29.53.2,1,.49,1.39.88.4.39.71.88.93,1.47.22.59.33,1.28.33,2.07v.7h-7.84v-1.59h6.59l-1.2.42c0-.47-.07-.88-.22-1.23-.14-.35-.36-.62-.64-.81-.29-.19-.64-.29-1.06-.29s-.78.1-1.07.29-.51.46-.67.79c-.16.33-.23.71-.23,1.15v1.12c0,.5.09.93.27,1.29.18.36.42.63.74.82.32.19.69.29,1.1.29.29,0,.55-.04.78-.12s.43-.2.6-.37c.17-.16.29-.35.38-.58l2.38.16c-.12.57-.36,1.07-.73,1.49-.37.42-.84.75-1.42.99-.58.23-1.25.35-2.02.35Z"/>
      <path class="cls-7" d="M125.69,137.84c-.95,0-1.76-.2-2.44-.61-.68-.41-1.21-.97-1.57-1.68-.37-.72-.55-1.55-.55-2.49s.18-1.79.55-2.51c.37-.72.89-1.28,1.57-1.69.68-.4,1.49-.61,2.43-.61.81,0,1.52.15,2.12.44s1.09.71,1.44,1.24c.36.53.55,1.16.58,1.88h-2.42c-.04-.31-.14-.58-.28-.81-.14-.23-.33-.41-.57-.54s-.51-.19-.83-.19c-.4,0-.75.11-1.04.32-.3.21-.53.53-.69.94-.16.41-.24.91-.24,1.5s.08,1.09.24,1.51c.16.42.39.74.69.96.29.22.64.33,1.04.33.44,0,.82-.14,1.12-.42.3-.28.49-.67.56-1.16h2.42c-.04.71-.23,1.33-.57,1.87-.34.54-.82.96-1.42,1.26-.6.3-1.32.45-2.15.45Z"/>
      <path class="cls-7" d="M135.46,137.84c-.94,0-1.74-.2-2.43-.6-.68-.4-1.21-.96-1.58-1.68-.37-.72-.55-1.55-.55-2.5s.18-1.8.55-2.52c.37-.72.89-1.28,1.58-1.68.68-.4,1.49-.6,2.43-.6s1.75.2,2.44.6c.68.4,1.21.96,1.58,1.68.37.72.55,1.56.55,2.52s-.19,1.79-.55,2.5c-.37.72-.89,1.28-1.58,1.68-.68.4-1.5.6-2.44.6ZM135.47,135.84c.43,0,.78-.12,1.07-.36.29-.24.5-.57.65-.99.15-.42.22-.9.22-1.44s-.07-1.02-.22-1.44c-.15-.42-.37-.74-.65-.98s-.64-.36-1.07-.36-.79.12-1.08.36-.51.56-.66.98-.22.89-.22,1.44.07,1.02.22,1.44.37.75.66.99c.29.24.65.36,1.08.36Z"/>
      <path class="cls-7" d="M144.06,132.3v5.36h-2.56v-9.28h2.52v1.65h.09c.21-.55.54-.98,1-1.29s1.04-.47,1.73-.47c.64,0,1.2.14,1.68.42.48.28.85.68,1.12,1.2s.4,1.14.4,1.87v5.9h-2.56v-5.45c0-.56-.15-1.01-.44-1.33-.29-.32-.7-.49-1.21-.49-.34,0-.65.08-.91.23-.27.15-.47.37-.62.65-.15.28-.22.62-.22,1.02Z"/>
      <path class="cls-7" d="M156.81,128.38v1.94h-5.59v-1.94h5.59ZM152.5,126.17h2.56v8.63c0,.31.07.54.21.68.14.15.36.22.66.22.1,0,.21,0,.33-.02.12-.02.23-.04.31-.06l.41,1.93c-.28.08-.55.14-.82.18-.26.04-.52.06-.78.06-.92,0-1.64-.23-2.14-.69-.5-.46-.76-1.11-.76-1.95v-8.97Z"/>
      <path class="cls-7" d="M162.41,137.84c-.95,0-1.77-.19-2.46-.58s-1.22-.94-1.59-1.66c-.37-.72-.55-1.56-.55-2.54s.19-1.79.55-2.51c.37-.72.89-1.28,1.56-1.69s1.46-.61,2.37-.61c.62,0,1.19.1,1.72.29.53.2,1,.49,1.39.88.4.39.71.88.93,1.47.22.59.33,1.28.33,2.07v.7h-7.84v-1.59h6.59l-1.2.42c0-.47-.07-.88-.22-1.23-.14-.35-.36-.62-.64-.81-.29-.19-.64-.29-1.06-.29s-.78.1-1.07.29-.51.46-.67.79c-.16.33-.23.71-.23,1.15v1.12c0,.5.09.93.27,1.29.18.36.42.63.74.82.32.19.69.29,1.1.29.29,0,.55-.04.78-.12s.43-.2.6-.37c.17-.16.29-.35.38-.58l2.38.16c-.12.57-.36,1.07-.73,1.49-.37.42-.84.75-1.42.99-.58.23-1.25.35-2.02.35Z"/>
      <path class="cls-7" d="M170.66,132.3v5.36h-2.57v-9.28h2.52v1.65h.09c.21-.55.54-.98,1-1.29.46-.32,1.04-.47,1.73-.47.64,0,1.2.14,1.68.42s.85.68,1.12,1.2.4,1.14.4,1.87v5.9h-2.57v-5.45c0-.56-.15-1.01-.44-1.33-.29-.32-.7-.49-1.21-.49-.34,0-.65.08-.91.23-.27.15-.47.37-.62.65-.15.28-.22.62-.22,1.02Z"/>
      <path class="cls-7" d="M179.76,127.2c-.38,0-.71-.13-.98-.38s-.41-.56-.41-.92.13-.67.41-.92c.27-.25.6-.38.98-.38s.72.13.99.38c.27.25.41.56.41.92s-.13.67-.41.92-.6.38-.99.38ZM178.49,137.66v-9.28h2.56v9.28h-2.56Z"/>
      <path class="cls-7" d="M186.29,137.81c-.71,0-1.35-.18-1.92-.55s-1.02-.9-1.35-1.61c-.33-.71-.5-1.58-.5-2.61s.17-1.95.52-2.66.8-1.24,1.37-1.59c.57-.35,1.19-.53,1.87-.53.52,0,.96.09,1.3.26s.63.39.85.65c.22.26.38.52.49.77h.07v-4.66h2.57v12.37h-2.53v-1.49h-.12c-.12.25-.29.51-.51.76-.22.25-.51.46-.85.63s-.77.25-1.27.25ZM187.09,135.77c.42,0,.77-.11,1.06-.34.29-.23.51-.55.66-.96s.23-.89.23-1.44-.07-1.03-.22-1.44c-.15-.41-.37-.72-.66-.95-.29-.22-.65-.34-1.06-.34s-.77.12-1.06.35c-.29.23-.51.55-.66.96-.15.41-.22.88-.22,1.42s.07,1.01.22,1.42c.15.41.37.73.66.97.29.23.64.35,1.06.35Z"/>
      <path class="cls-7" d="M197.58,137.84c-.94,0-1.74-.2-2.43-.6-.68-.4-1.21-.96-1.58-1.68-.37-.72-.55-1.55-.55-2.5s.19-1.8.55-2.52c.37-.72.89-1.28,1.58-1.68.68-.4,1.49-.6,2.43-.6s1.75.2,2.44.6c.68.4,1.21.96,1.58,1.68.37.72.55,1.56.55,2.52s-.18,1.79-.55,2.5c-.37.72-.89,1.28-1.58,1.68-.68.4-1.5.6-2.44.6ZM197.59,135.84c.43,0,.78-.12,1.07-.36.29-.24.51-.57.65-.99s.22-.9.22-1.44-.07-1.02-.22-1.44-.36-.74-.65-.98c-.29-.24-.64-.36-1.07-.36s-.79.12-1.08.36c-.29.24-.51.56-.66.98s-.22.89-.22,1.44.07,1.02.22,1.44.37.75.66.99c.29.24.65.36,1.08.36Z"/>
      <path class="cls-6" d="M125.31,153.93c-.95,0-1.77-.19-2.47-.58-.69-.39-1.22-.94-1.59-1.66-.37-.72-.55-1.56-.55-2.54s.18-1.79.55-2.51c.37-.72.89-1.28,1.56-1.69.67-.4,1.46-.61,2.37-.61.61,0,1.19.1,1.72.29.53.2,1,.49,1.39.88.4.39.71.88.93,1.47.22.59.33,1.28.33,2.07v.7h-7.84v-1.59h6.59l-1.2.42c0-.47-.07-.88-.21-1.23-.14-.35-.36-.62-.64-.81-.29-.19-.64-.29-1.06-.29s-.78.1-1.07.29c-.29.19-.51.46-.67.79-.15.33-.23.71-.23,1.15v1.12c0,.5.09.93.27,1.29.18.36.43.63.74.82.32.19.68.29,1.1.29.29,0,.55-.04.78-.12s.43-.2.6-.37c.17-.16.29-.35.38-.58l2.37.16c-.12.57-.36,1.07-.73,1.49-.37.42-.84.75-1.42.99-.58.23-1.25.35-2.02.35Z"/>
      <path class="cls-6" d="M133.56,148.38v5.36h-2.56v-9.28h2.52v1.65h.09c.21-.55.54-.98,1-1.29s1.04-.47,1.73-.47c.64,0,1.2.14,1.68.42.48.28.85.68,1.12,1.2s.4,1.14.4,1.87v5.9h-2.56v-5.45c0-.56-.15-1.01-.44-1.33-.29-.32-.7-.49-1.21-.49-.34,0-.65.08-.91.23-.27.15-.47.37-.62.65-.15.28-.22.62-.22,1.02Z"/>
      <path class="cls-6" d="M145.16,141.38h3.23l3.4,8.31h.14l3.41-8.31h3.24v12.37h-2.56v-8.05h-.1l-3.21,7.99h-1.73l-3.19-8.01h-.1v8.07h-2.54v-12.37Z"/>
      <path class="cls-6" d="M166.41,149.8v-5.34h2.56v9.28h-2.46v-1.69h-.1c-.21.54-.56.97-1.04,1.31-.48.33-1.07.5-1.77.49-.62,0-1.17-.14-1.64-.42-.47-.28-.84-.68-1.1-1.2-.26-.52-.39-1.14-.39-1.87v-5.91h2.56v5.46c0,.54.15.97.44,1.29.29.32.68.47,1.17.47.31,0,.6-.07.86-.21.27-.14.48-.35.65-.63.17-.28.25-.63.25-1.04ZM163.78,143.31l1.15-2.53h2.36l-1.73,2.53h-1.78Z"/>
      <path class="cls-6" d="M178.53,147.11l-2.35.14c-.06-.29-.22-.55-.49-.76-.27-.21-.62-.32-1.07-.32-.4,0-.73.08-1,.25-.27.17-.4.39-.4.66,0,.22.09.41.26.57.18.16.47.28.9.37l1.69.33c.9.18,1.57.48,2.02.89s.66.95.66,1.62c0,.61-.18,1.15-.53,1.61-.35.46-.84.81-1.46,1.07-.62.26-1.33.39-2.13.39-1.23,0-2.21-.26-2.94-.77-.73-.51-1.15-1.21-1.27-2.09l2.52-.13c.08.38.27.66.56.85s.67.29,1.13.29.81-.09,1.09-.27c.28-.18.42-.4.42-.67,0-.46-.4-.77-1.2-.93l-1.6-.33c-.9-.18-1.57-.5-2.02-.94-.44-.44-.66-1.01-.66-1.7,0-.6.16-1.11.49-1.54s.79-.76,1.37-1c.59-.23,1.28-.35,2.07-.35,1.17,0,2.1.25,2.77.74.67.5,1.06,1.17,1.17,2.02Z"/>
      <path class="cls-6" d="M181.44,143.28c-.38,0-.71-.13-.98-.38-.27-.25-.41-.56-.41-.92s.14-.67.41-.92c.27-.25.6-.38.98-.38s.72.13.99.38c.27.25.41.56.41.92s-.13.67-.41.92-.6.38-.99.38ZM180.16,153.75v-9.28h2.57v9.28h-2.57Z"/>
      <path class="cls-6" d="M188.75,153.93c-.95,0-1.76-.2-2.44-.61-.68-.41-1.2-.97-1.57-1.68-.37-.72-.55-1.55-.55-2.49s.19-1.79.55-2.51c.37-.72.89-1.28,1.57-1.69.68-.4,1.49-.61,2.43-.61.81,0,1.51.15,2.12.44.61.29,1.09.71,1.44,1.24s.55,1.16.58,1.88h-2.42c-.04-.31-.14-.58-.28-.81s-.33-.41-.57-.54-.52-.19-.83-.19c-.4,0-.75.11-1.04.32-.29.21-.53.53-.69.94-.16.41-.25.91-.25,1.5s.08,1.09.25,1.51c.16.42.39.74.69.96.3.22.64.33,1.04.33.44,0,.82-.14,1.12-.42.3-.28.49-.67.56-1.16h2.42c-.04.71-.23,1.33-.57,1.87-.34.54-.82.96-1.42,1.26-.6.3-1.32.45-2.15.45Z"/>
      <path class="cls-6" d="M196.98,153.92c-.59,0-1.11-.1-1.58-.31-.47-.21-.83-.52-1.1-.93s-.4-.92-.4-1.53c0-.52.09-.95.28-1.3.19-.35.45-.63.77-.84.33-.22.7-.38,1.11-.49.41-.11.86-.19,1.32-.23.54-.05.97-.1,1.29-.15s.56-.13.72-.23c.15-.1.23-.25.23-.44v-.04c0-.38-.12-.68-.36-.89-.24-.21-.58-.32-1.02-.32-.46,0-.83.1-1.1.3-.28.2-.46.46-.54.77l-2.38-.19c.12-.56.36-1.05.71-1.46.35-.41.81-.73,1.37-.96.56-.22,1.21-.34,1.96-.34.52,0,1.01.06,1.48.18s.89.31,1.26.56c.37.25.66.58.88.98.21.4.32.87.32,1.42v6.26h-2.45v-1.29h-.07c-.15.29-.35.55-.6.77-.25.22-.55.39-.9.51-.35.12-.75.19-1.21.19ZM197.72,152.14c.38,0,.71-.08,1-.23.29-.15.52-.36.68-.61.16-.26.25-.55.25-.87v-.99c-.08.05-.19.1-.33.14s-.3.08-.47.12-.34.06-.52.09c-.17.02-.33.05-.46.07-.3.04-.57.11-.8.21-.23.1-.4.23-.53.39-.12.16-.19.37-.19.61,0,.35.13.61.38.8.26.18.58.27.98.27Z"/>
    </g>
    <g>
      <circle class="cls-1" cx="157.4" cy="141.39" r="111.65" transform="translate(-53.88 152.72) rotate(-45)"/>
      <circle class="cls-2" cx="101.56" cy="238.09" r="7.82"/>
      <circle class="cls-2" cx="269.05" cy="141.39" r="7.82"/>
      <circle class="cls-2" cx="101.56" cy="44.69" r="7.82"/>
    </g>
    <g>
      <path class="cls-4" d="M289.12,129.66h1.9l4.45,10.86h.16l4.45-10.86h1.96v13.1h-1.55v-9.95h-.12l-4.12,9.95h-1.42l-4.07-9.95h-.12v9.95h-1.49v-13.1Z"/>
      <path class="cls-4" d="M310.35,138.75v-5.82h1.49v9.83h-1.49v-1.67h-.11c-.23.5-.59.92-1.08,1.27-.48.35-1.1.52-1.84.52-.62,0-1.16-.13-1.63-.4s-.85-.68-1.12-1.23c-.27-.55-.41-1.25-.41-2.08v-6.24h1.49v6.15c0,.71.2,1.28.61,1.71.41.43.92.64,1.55.63.38,0,.76-.1,1.15-.29.39-.19.72-.48.98-.88.27-.4.4-.9.4-1.51ZM307.27,131.7l1.23-2.41h1.71l-1.69,2.41h-1.25Z"/>
      <path class="cls-4" d="M320.72,135.14l-1.35.37c-.13-.33-.35-.65-.66-.95-.31-.3-.8-.45-1.46-.45-.6,0-1.1.14-1.49.42s-.6.63-.6,1.04c0,.38.14.67.41.9.27.22.7.4,1.28.54l1.46.35c.87.21,1.53.54,1.96.98.43.44.65,1,.65,1.68,0,.56-.16,1.07-.48,1.51s-.77.8-1.35,1.05-1.24.39-2,.39c-1,0-1.83-.22-2.48-.66-.65-.44-1.07-1.08-1.24-1.91l1.42-.35c.13.53.39.92.78,1.19.38.26.89.4,1.51.4.7,0,1.26-.15,1.67-.45.42-.3.63-.66.63-1.08,0-.69-.49-1.15-1.46-1.39l-1.63-.39c-.9-.22-1.56-.55-1.99-.99s-.63-1-.63-1.68c0-.56.16-1.05.47-1.48.31-.43.74-.76,1.29-1.01s1.16-.36,1.85-.36c.98,0,1.74.22,2.3.65.55.43.95.99,1.18,1.69Z"/>
      <path class="cls-4" d="M323.09,131.29c-.29,0-.54-.1-.76-.3s-.32-.44-.32-.72.11-.52.32-.72.46-.3.76-.3.54.1.76.3.32.44.32.72-.11.52-.32.72-.46.3-.76.3ZM322.34,142.75v-9.83h1.49v9.83h-1.49Z"/>
      <path class="cls-4" d="M329.74,142.96c-.91,0-1.7-.22-2.37-.65-.66-.44-1.18-1.04-1.54-1.8-.36-.76-.54-1.63-.54-2.61s.19-1.89.55-2.65.88-1.36,1.55-1.8c.66-.43,1.44-.65,2.32-.65.69,0,1.31.13,1.87.38.55.25,1.01.61,1.36,1.08.35.46.57,1,.65,1.62h-1.51c-.08-.3-.21-.58-.41-.84s-.46-.48-.79-.64c-.33-.16-.71-.24-1.16-.24-.59,0-1.1.15-1.54.46s-.78.73-1.03,1.29-.37,1.2-.37,1.95.12,1.42.36,1.98.58,1,1.02,1.31c.44.31.96.47,1.55.47s1.1-.15,1.52-.46.7-.73.83-1.26h1.51c-.08.58-.29,1.1-.63,1.56-.34.46-.78.83-1.33,1.1-.55.27-1.19.41-1.91.41Z"/>
      <path class="cls-4" d="M337.91,142.98c-.62,0-1.19-.12-1.7-.36s-.91-.58-1.21-1.03-.45-1-.45-1.63c0-.56.11-1.02.33-1.37s.52-.62.89-.83c.37-.2.78-.35,1.23-.45.45-.1.9-.18,1.36-.24.6-.08,1.08-.13,1.46-.18.37-.04.64-.11.82-.21.17-.1.26-.27.26-.51v-.05c0-.63-.17-1.11-.51-1.46-.34-.35-.86-.52-1.56-.52s-1.28.16-1.69.47-.7.65-.86,1.01l-1.44-.51c.26-.6.6-1.06,1.03-1.4.43-.33.9-.57,1.41-.7.51-.13,1.01-.2,1.5-.2.32,0,.68.04,1.09.11s.81.23,1.2.46c.39.23.71.58.97,1.05.26.47.38,1.09.38,1.87v6.47h-1.51v-1.34h-.07c-.1.21-.27.44-.51.68s-.56.45-.95.62c-.4.17-.88.26-1.46.26ZM338.14,141.63c.6,0,1.1-.12,1.51-.35s.72-.54.93-.91.32-.76.32-1.16v-1.39c-.06.08-.2.15-.42.21-.21.06-.46.12-.74.16-.28.05-.55.09-.81.12s-.47.06-.63.07c-.39.05-.76.14-1.1.25s-.62.28-.82.51c-.21.22-.31.53-.31.91,0,.52.2.92.58,1.18.39.27.89.4,1.49.4Z"/>
      <path class="cls-4" d="M351.29,135.14l-1.35.37c-.13-.33-.35-.65-.66-.95-.31-.3-.8-.45-1.46-.45-.6,0-1.1.14-1.49.42s-.6.63-.6,1.04c0,.38.14.67.41.9.27.22.7.4,1.28.54l1.46.35c.87.21,1.53.54,1.96.98.43.44.65,1,.65,1.68,0,.56-.16,1.07-.48,1.51s-.77.8-1.35,1.05-1.24.39-2,.39c-1,0-1.83-.22-2.48-.66-.65-.44-1.07-1.08-1.24-1.91l1.42-.35c.13.53.39.92.78,1.19.38.26.89.4,1.51.4.7,0,1.26-.15,1.67-.45.42-.3.63-.66.63-1.08,0-.69-.49-1.15-1.46-1.39l-1.63-.39c-.9-.22-1.56-.55-1.99-.99s-.63-1-.63-1.68c0-.56.16-1.05.47-1.48.31-.43.74-.76,1.29-1.01s1.16-.36,1.85-.36c.98,0,1.74.22,2.3.65.55.43.95.99,1.18,1.69Z"/>
      <path class="cls-4" d="M361.24,142.96c-.94,0-1.76-.21-2.45-.63-.69-.42-1.22-1.01-1.59-1.77s-.55-1.64-.55-2.64.18-1.9.54-2.66.88-1.37,1.53-1.8c.66-.43,1.43-.65,2.32-.65.51,0,1.02.08,1.52.25s.96.45,1.38.83c.41.38.74.88.99,1.51s.37,1.4.37,2.31v.65h-7.58v-1.3h6.76l-.7.49c0-.66-.1-1.24-.31-1.75s-.51-.91-.92-1.2c-.41-.29-.91-.44-1.52-.44s-1.12.15-1.55.44c-.43.3-.76.68-.99,1.16s-.34.98-.34,1.53v.86c0,.74.13,1.37.39,1.89s.62.91,1.08,1.17,1,.4,1.61.4c.39,0,.75-.06,1.07-.17s.6-.29.84-.52.41-.52.54-.86l1.46.42c-.15.49-.41.92-.77,1.3-.36.37-.81.66-1.34.87s-1.13.31-1.79.31Z"/>
      <path class="cls-4" d="M368.22,136.85v5.91h-1.49v-9.83h1.44v1.55h.14c.23-.5.58-.91,1.05-1.21s1.07-.46,1.82-.46c.66,0,1.24.13,1.74.4s.89.68,1.16,1.23c.28.55.42,1.24.42,2.08v6.24h-1.49v-6.13c0-.77-.2-1.37-.61-1.81s-.96-.65-1.65-.65c-.48,0-.91.11-1.29.32s-.68.52-.9.91c-.22.4-.33.88-.33,1.46Z"/>
      <path class="cls-4" d="M292.9,164.56c-.91,0-1.71-.22-2.37-.65-.67-.44-1.18-1.04-1.54-1.8-.36-.76-.54-1.63-.54-2.61s.18-1.89.55-2.65.89-1.36,1.55-1.8c.66-.43,1.44-.65,2.32-.65.69,0,1.31.13,1.87.38.55.25,1.01.61,1.36,1.08.35.46.57,1,.65,1.62h-1.51c-.08-.3-.21-.58-.41-.84s-.46-.48-.79-.64c-.33-.16-.71-.24-1.16-.24-.59,0-1.1.15-1.54.46s-.78.73-1.03,1.29-.37,1.2-.37,1.95.12,1.42.36,1.98.58,1,1.03,1.31c.44.31.96.47,1.55.47s1.1-.15,1.52-.46.7-.73.84-1.26h1.51c-.08.58-.29,1.1-.63,1.56-.34.46-.78.83-1.33,1.1-.55.27-1.19.41-1.91.41Z"/>
      <path class="cls-4" d="M302.17,164.56c-.88,0-1.66-.21-2.33-.63s-1.19-1.01-1.56-1.78c-.37-.76-.56-1.65-.56-2.65s.19-1.92.56-2.69c.37-.76.89-1.36,1.56-1.78s1.45-.63,2.33-.63,1.67.21,2.34.63,1.19,1.02,1.56,1.78.56,1.66.56,2.69-.19,1.89-.56,2.65-.9,1.35-1.56,1.78-1.45.63-2.34.63ZM302.17,163.21c.68,0,1.24-.17,1.67-.52s.76-.8.97-1.37.32-1.17.32-1.82-.11-1.28-.32-1.85-.53-1.03-.97-1.38-.99-.52-1.67-.52-1.22.17-1.65.52-.76.81-.97,1.38-.32,1.18-.32,1.85.11,1.26.32,1.82.53,1.02.97,1.37.98.52,1.65.52Z"/>
      <path class="cls-4" d="M309.59,158.45v5.91h-1.49v-9.83h1.44v1.55h.14c.23-.5.58-.91,1.04-1.21s1.08-.46,1.82-.46c.66,0,1.24.13,1.74.4s.88.68,1.16,1.23c.28.55.42,1.24.42,2.08v6.24h-1.49v-6.13c0-.77-.2-1.37-.61-1.81s-.96-.65-1.65-.65c-.48,0-.91.11-1.29.32s-.68.52-.9.91c-.22.4-.33.88-.33,1.46Z"/>
      <path class="cls-4" d="M322.05,154.53v1.28h-5.08v-1.28h5.08ZM318.45,152.19h1.49v9.35c0,.51.11.88.32,1.12s.54.36,1,.36c.1,0,.2,0,.31-.02.11-.01.23-.03.36-.05l.32,1.35c-.14.05-.31.1-.51.13-.2.03-.41.05-.61.05-.79,0-1.44-.23-1.93-.7-.5-.47-.74-1.08-.74-1.83v-9.76Z"/>
      <path class="cls-4" d="M327.6,164.56c-.94,0-1.76-.21-2.45-.63-.69-.42-1.22-1.01-1.59-1.77s-.55-1.64-.55-2.64.18-1.9.54-2.66.88-1.37,1.53-1.8c.66-.43,1.43-.65,2.32-.65.51,0,1.02.08,1.52.25s.96.45,1.38.83c.41.38.74.88.99,1.51s.37,1.4.37,2.31v.65h-7.58v-1.3h6.76l-.69.49c0-.66-.1-1.24-.31-1.75s-.51-.91-.92-1.2c-.41-.29-.91-.44-1.52-.44s-1.12.15-1.55.44c-.43.3-.76.68-.99,1.16s-.34.98-.34,1.53v.86c0,.74.13,1.37.39,1.89s.62.91,1.08,1.17,1,.4,1.61.4c.39,0,.75-.06,1.07-.17s.6-.29.83-.52.41-.52.54-.86l1.46.42c-.15.49-.41.92-.77,1.3-.36.37-.81.66-1.34.87s-1.13.31-1.79.31Z"/>
      <path class="cls-4" d="M334.21,154.53l2.34,4.03,2.36-4.03h1.74l-3.16,4.92,3.16,4.9h-1.74l-2.36-3.81-2.34,3.81h-1.74l3.11-4.9-3.11-4.92h1.74Z"/>
      <path class="cls-4" d="M346.22,154.53v1.28h-5.08v-1.28h5.08ZM342.62,152.19h1.49v9.35c0,.51.11.88.32,1.12s.54.36,1,.36c.1,0,.2,0,.31-.02.11-.01.23-.03.36-.05l.32,1.35c-.14.05-.31.1-.51.13-.2.03-.41.05-.61.05-.79,0-1.44-.23-1.93-.7-.5-.47-.74-1.08-.74-1.83v-9.76Z"/>
      <path class="cls-4" d="M351.63,164.56c-.88,0-1.66-.21-2.33-.63s-1.19-1.01-1.56-1.78c-.37-.76-.56-1.65-.56-2.65s.19-1.92.56-2.69c.37-.76.89-1.36,1.56-1.78s1.45-.63,2.33-.63,1.67.21,2.34.63,1.19,1.02,1.56,1.78.56,1.66.56,2.69-.19,1.89-.56,2.65-.9,1.35-1.56,1.78-1.45.63-2.34.63ZM351.63,163.21c.68,0,1.24-.17,1.67-.52s.76-.8.97-1.37.32-1.17.32-1.82-.11-1.28-.32-1.85-.53-1.03-.97-1.38-.99-.52-1.67-.52-1.22.17-1.65.52-.76.81-.97,1.38-.32,1.18-.32,1.85.11,1.26.32,1.82.53,1.02.97,1.37.98.52,1.65.52Z"/>
    </g>
    <text class="cls-5" transform="translate(3.91 268.64)"><tspan x="0" y="0">Apreciación</tspan></text>
    <g>
      <path class="cls-4" d="M1.16,26.02v-13.1h4.43c1.03,0,1.86.18,2.52.55.65.37,1.14.87,1.46,1.49s.47,1.33.47,2.1-.16,1.47-.47,2.1c-.31.63-.8,1.14-1.45,1.51-.65.37-1.49.56-2.51.56h-3.16v-1.41h3.11c.7,0,1.27-.12,1.7-.36s.74-.57.93-.99.29-.89.29-1.41-.1-1-.29-1.41-.5-.74-.94-.98c-.43-.24-1-.36-1.71-.36h-2.79v11.69h-1.58Z"/>
      <path class="cls-4" d="M11.55,26.02v-9.83h1.44v1.49h.11c.18-.49.51-.88.98-1.18.47-.3,1-.45,1.59-.45.11,0,.25,0,.41,0s.29,0,.38.01v1.53c-.05-.01-.17-.03-.35-.05s-.38-.04-.58-.04c-.47,0-.9.1-1.28.3s-.67.47-.88.82c-.21.35-.32.74-.32,1.19v6.21h-1.49Z"/>
      <path class="cls-4" d="M21.38,26.23c-.88,0-1.66-.21-2.33-.63s-1.19-1.01-1.56-1.78c-.37-.76-.56-1.65-.56-2.65s.19-1.92.56-2.69c.37-.76.89-1.36,1.56-1.78s1.45-.63,2.33-.63,1.67.21,2.34.63,1.19,1.02,1.56,1.78.56,1.66.56,2.69-.19,1.89-.56,2.65-.9,1.35-1.56,1.78-1.45.63-2.34.63ZM21.38,24.87c.68,0,1.24-.17,1.67-.52s.76-.8.97-1.37.32-1.17.32-1.82-.11-1.28-.32-1.85-.53-1.03-.97-1.38-.99-.52-1.67-.52-1.22.17-1.65.52-.76.81-.97,1.38-.32,1.18-.32,1.85.11,1.26.32,1.82.53,1.02.97,1.37.98.52,1.65.52Z"/>
      <path class="cls-4" d="M30.99,26.23c-.82,0-1.54-.21-2.17-.62s-1.12-1.01-1.47-1.77-.53-1.67-.53-2.7.18-1.93.53-2.69c.35-.76.85-1.34,1.47-1.76s1.35-.62,2.18-.62c.64,0,1.15.11,1.53.32.37.21.66.45.86.72s.36.48.47.65h.12v-4.83h1.49v13.1h-1.44v-1.51h-.18c-.11.18-.27.4-.47.67s-.5.52-.88.73c-.38.21-.88.32-1.52.32ZM31.18,24.87c.61,0,1.12-.16,1.54-.48s.73-.76.95-1.33.33-1.22.33-1.96-.11-1.38-.32-1.94-.53-.98-.95-1.29c-.42-.31-.94-.46-1.55-.46s-1.16.16-1.58.49-.74.77-.95,1.33-.32,1.18-.32,1.87.11,1.33.32,1.9c.21.57.53,1.02.95,1.36s.95.51,1.57.51Z"/>
      <path class="cls-4" d="M43.59,22.01v-5.82h1.49v9.83h-1.49v-1.67h-.11c-.23.5-.59.92-1.08,1.27-.48.35-1.1.52-1.84.52-.62,0-1.16-.13-1.63-.4s-.85-.68-1.12-1.23c-.27-.55-.41-1.25-.41-2.08v-6.24h1.49v6.15c0,.71.2,1.28.61,1.71.41.43.92.64,1.55.63.38,0,.76-.1,1.15-.29.39-.19.72-.48.98-.88.27-.4.4-.9.4-1.51Z"/>
      <path class="cls-4" d="M50.99,26.23c-.91,0-1.71-.22-2.37-.65-.67-.44-1.18-1.04-1.54-1.8-.36-.76-.54-1.63-.54-2.61s.18-1.89.55-2.65.89-1.36,1.55-1.8c.66-.43,1.44-.65,2.32-.65.69,0,1.31.13,1.87.38.55.25,1.01.61,1.36,1.08.35.46.57,1,.65,1.62h-1.51c-.08-.3-.21-.58-.41-.84s-.46-.48-.79-.64c-.33-.16-.71-.24-1.16-.24-.59,0-1.1.15-1.54.46s-.78.73-1.03,1.29-.37,1.2-.37,1.95.12,1.42.36,1.98.58,1,1.03,1.31c.44.31.96.47,1.55.47s1.1-.15,1.52-.46.7-.73.84-1.26h1.51c-.08.58-.29,1.1-.63,1.56-.34.46-.78.83-1.33,1.1-.55.27-1.19.41-1.91.41Z"/>
      <path class="cls-4" d="M60.26,26.23c-.91,0-1.71-.22-2.37-.65-.67-.44-1.18-1.04-1.54-1.8-.36-.76-.54-1.63-.54-2.61s.18-1.89.55-2.65.89-1.36,1.55-1.8c.66-.43,1.44-.65,2.32-.65.69,0,1.31.13,1.87.38.55.25,1.01.61,1.36,1.08.35.46.57,1,.65,1.62h-1.51c-.08-.3-.21-.58-.41-.84s-.46-.48-.79-.64c-.33-.16-.71-.24-1.16-.24-.59,0-1.1.15-1.54.46s-.78.73-1.03,1.29-.37,1.2-.37,1.95.12,1.42.36,1.98.58,1,1.03,1.31c.44.31.96.47,1.55.47s1.1-.15,1.52-.46.7-.73.84-1.26h1.51c-.08.58-.29,1.1-.63,1.56-.34.46-.78.83-1.33,1.1-.55.27-1.19.41-1.91.41Z"/>
      <path class="cls-4" d="M66.3,14.56c-.29,0-.54-.1-.76-.3s-.32-.44-.32-.72.11-.52.32-.72.46-.3.76-.3.54.1.76.3.32.44.32.72-.11.52-.32.72-.46.3-.76.3ZM65.55,26.02v-9.83h1.49v9.83h-1.49Z"/>
      <path class="cls-4" d="M72.95,26.23c-.88,0-1.66-.21-2.33-.63s-1.19-1.01-1.56-1.78c-.37-.76-.56-1.65-.56-2.65s.19-1.92.56-2.69c.37-.76.89-1.36,1.56-1.78s1.45-.63,2.33-.63,1.67.21,2.34.63,1.19,1.02,1.56,1.78.56,1.66.56,2.69-.19,1.89-.56,2.65-.9,1.35-1.56,1.78-1.45.63-2.34.63ZM72.95,24.87c.68,0,1.24-.17,1.67-.52s.76-.8.97-1.37.32-1.17.32-1.82-.11-1.28-.32-1.85-.53-1.03-.97-1.38-.99-.52-1.67-.52-1.22.17-1.65.52-.76.81-.97,1.38-.32,1.18-.32,1.85.11,1.26.32,1.82.53,1.02.97,1.37.98.52,1.65.52ZM72.21,14.96l1.23-2.41h1.71l-1.69,2.41h-1.25Z"/>
      <path class="cls-4" d="M80.37,20.11v5.91h-1.49v-9.83h1.44v1.55h.14c.23-.5.58-.91,1.04-1.21s1.08-.46,1.82-.46c.66,0,1.24.13,1.74.4s.88.68,1.16,1.23c.28.55.42,1.24.42,2.08v6.24h-1.49v-6.13c0-.77-.2-1.37-.61-1.81s-.96-.65-1.65-.65c-.48,0-.91.11-1.29.32s-.68.52-.9.91c-.22.4-.33.88-.33,1.46Z"/>
      <path class="cls-4" d="M.97,47.62v-9.83h1.44v1.55h.14c.21-.53.54-.94.99-1.23s1.01-.44,1.64-.44,1.18.15,1.61.44c.43.29.77.7,1.01,1.23h.11c.26-.51.64-.92,1.14-1.22.5-.3,1.1-.45,1.8-.45.88,0,1.6.27,2.16.82s.84,1.4.84,2.55v6.57h-1.51v-6.57c0-.73-.2-1.25-.6-1.56s-.87-.47-1.41-.47c-.69,0-1.22.21-1.6.63-.38.42-.57.94-.57,1.57v6.4h-1.55v-6.73c0-.56-.18-1.01-.54-1.35s-.82-.51-1.4-.51c-.39,0-.76.11-1.1.32s-.61.5-.82.87c-.21.37-.31.79-.31,1.27v6.13H.97Z"/>
      <path class="cls-4" d="M21.97,43.61v-5.82h1.49v9.83h-1.49v-1.67h-.11c-.23.5-.59.92-1.08,1.27-.48.35-1.1.52-1.84.52-.62,0-1.16-.13-1.63-.4s-.85-.68-1.12-1.23c-.27-.55-.41-1.25-.41-2.08v-6.24h1.49v6.15c0,.71.2,1.28.61,1.71.41.43.92.64,1.55.63.38,0,.76-.1,1.15-.29.39-.19.72-.48.98-.88.27-.4.4-.9.4-1.51Z"/>
      <path class="cls-4" d="M32.34,40.01l-1.35.37c-.13-.33-.35-.65-.66-.95-.31-.3-.8-.45-1.46-.45-.6,0-1.1.14-1.49.42s-.6.63-.6,1.04c0,.38.14.67.41.9.27.22.7.4,1.28.54l1.46.35c.87.21,1.53.54,1.96.98.43.44.65,1,.65,1.68,0,.56-.16,1.07-.48,1.51s-.77.8-1.34,1.05-1.24.39-2,.39c-1,0-1.83-.22-2.48-.66-.65-.44-1.07-1.08-1.24-1.91l1.42-.35c.13.53.39.92.78,1.19.38.26.89.4,1.51.4.7,0,1.25-.15,1.67-.45.42-.3.63-.66.63-1.08,0-.69-.49-1.15-1.46-1.39l-1.63-.39c-.9-.22-1.56-.55-1.99-.99s-.63-1-.63-1.68c0-.56.16-1.05.47-1.48.31-.43.74-.76,1.29-1.01s1.16-.36,1.85-.36c.98,0,1.74.22,2.3.65.55.43.95.99,1.18,1.69Z"/>
      <path class="cls-4" d="M34.72,36.16c-.29,0-.54-.1-.76-.3s-.32-.44-.32-.72.11-.52.32-.72.46-.3.76-.3.54.1.76.3.32.44.32.72-.11.52-.32.72-.46.3-.76.3ZM33.96,47.62v-9.83h1.49v9.83h-1.49Z"/>
      <path class="cls-4" d="M41.36,47.83c-.91,0-1.71-.22-2.37-.65-.67-.44-1.18-1.04-1.54-1.8-.36-.76-.54-1.63-.54-2.61s.18-1.89.55-2.65.89-1.36,1.55-1.8c.66-.43,1.44-.65,2.32-.65.69,0,1.31.13,1.87.38.55.25,1.01.61,1.36,1.08.35.46.57,1,.65,1.62h-1.51c-.08-.3-.21-.58-.41-.84s-.46-.48-.79-.64c-.33-.16-.71-.24-1.16-.24-.59,0-1.1.15-1.54.46s-.78.73-1.03,1.29-.37,1.2-.37,1.95.12,1.42.36,1.98.58,1,1.03,1.31c.44.31.96.47,1.55.47s1.1-.15,1.52-.46.7-.73.84-1.26h1.51c-.08.58-.29,1.1-.63,1.56-.34.46-.78.83-1.33,1.1-.55.27-1.19.41-1.91.41Z"/>
      <path class="cls-4" d="M49.54,47.84c-.62,0-1.19-.12-1.7-.36s-.91-.58-1.21-1.03-.45-1-.45-1.63c0-.56.11-1.02.33-1.37s.52-.62.89-.83c.37-.2.78-.35,1.23-.45.45-.1.9-.18,1.36-.24.6-.08,1.08-.13,1.46-.18.37-.04.64-.11.82-.21.17-.1.26-.27.26-.51v-.05c0-.63-.17-1.11-.51-1.46-.34-.35-.86-.52-1.56-.52s-1.28.16-1.69.47-.7.65-.86,1.01l-1.44-.51c.26-.6.6-1.06,1.03-1.4.43-.33.9-.57,1.41-.7.51-.13,1.01-.2,1.5-.2.32,0,.68.04,1.09.11s.81.23,1.2.46c.39.23.71.58.97,1.05.26.47.38,1.09.38,1.87v6.47h-1.51v-1.34h-.07c-.1.21-.27.44-.51.68s-.56.45-.95.62c-.4.17-.88.26-1.46.26ZM49.76,46.49c.6,0,1.1-.12,1.51-.35s.72-.54.93-.91.32-.76.32-1.16v-1.39c-.06.08-.21.15-.42.21-.21.06-.46.12-.74.16-.28.05-.55.09-.81.12s-.47.06-.63.07c-.39.05-.76.14-1.1.25s-.61.28-.82.51c-.21.22-.31.53-.31.91,0,.52.19.92.58,1.18.39.27.89.4,1.49.4Z"/>
      <path class="cls-4" d="M57.46,34.52v13.1h-1.49v-13.1h1.49Z"/>
    </g>
  </g>
</svg>